M48
; DRILL file KiCad 10.0.1 date 2026-06-22T19:58:03
; FORMAT={-:-/ absolute / metric / decimal}
; #@! TF.CreationDate,2026-06-22T19:58:03-07:00
; #@! TF.GenerationSoftware,Kicad,Pcbnew,10.0.1
; #@! TF.FileFunction,NonPlated,1,2,NPTH
FMAT,2
METRIC
; #@! TA.AperFunction,NonPlated,NPTH,ComponentDrill
T1C0.650
; #@! TA.AperFunction,NonPlated,NPTH,ComponentDrill
T2C1.750
; #@! TA.AperFunction,NonPlated,NPTH,ComponentDrill
T3C2.000
; #@! TA.AperFunction,NonPlated,NPTH,ComponentDrill
T4C3.050
; #@! TA.AperFunction,NonPlated,NPTH,ComponentDrill
T5C4.000
%
G90
G05
T1
X64.42Y-28.43
X70.2Y-28.43
T2
X33.02Y-38.1
X33.02Y-57.15
X33.02Y-76.2
X33.02Y-95.25
X42.545Y-114.3
X43.18Y-38.1
X43.18Y-57.15
X43.18Y-76.2
X43.18Y-95.25
X52.07Y-38.1
X52.07Y-57.15
X52.07Y-76.2
X52.07Y-95.25
X52.705Y-114.3
X62.23Y-38.1
X62.23Y-57.15
X62.23Y-76.2
X62.23Y-95.25
X71.12Y-38.1
X71.12Y-57.15
X71.12Y-76.2
X71.12Y-95.25
X71.12Y-114.3
X81.28Y-38.1
X81.28Y-57.15
X81.28Y-76.2
X81.28Y-95.25
X81.28Y-114.3
X90.17Y-38.1
X90.17Y-66.675
X90.17Y-104.775
X100.33Y-38.1
X100.33Y-66.675
X100.33Y-104.775
T4
X34.29Y-35.56
X34.29Y-54.61
X34.29Y-73.66
X34.29Y-92.71
X40.64Y-33.02
X40.64Y-52.07
X40.64Y-71.12
X40.64Y-90.17
X43.815Y-111.76
X50.165Y-109.22
X53.34Y-35.56
X53.34Y-54.61
X53.34Y-73.66
X53.34Y-92.71
X59.69Y-33.02
X59.69Y-52.07
X59.69Y-71.12
X59.69Y-90.17
X72.39Y-35.56
X72.39Y-54.61
X72.39Y-73.66
X72.39Y-92.71
X72.39Y-111.76
X78.74Y-33.02
X78.74Y-52.07
X78.74Y-71.12
X78.74Y-90.17
X78.74Y-109.22
X91.44Y-35.56
X91.44Y-64.135
X91.44Y-102.235
X97.79Y-33.02
X97.79Y-61.595
X97.79Y-99.695
T5
X38.1Y-38.1
X38.1Y-57.15
X38.1Y-76.2
X38.1Y-95.25
X47.625Y-114.3
X57.15Y-38.1
X57.15Y-57.15
X57.15Y-76.2
X57.15Y-95.25
X76.2Y-38.1
X76.2Y-57.15
X76.2Y-76.2
X76.2Y-95.25
X76.2Y-114.3
X95.25Y-38.1
X95.25Y-66.675
X95.25Y-104.775
T3
G00X33.817Y-25.971
M15
G01X31.817Y-25.971
M16
G05
G00X33.817Y-27.471
M15
G01X31.817Y-27.471
M16
G05
G00X37.174Y-60.717
M15
G01X37.174Y-62.717
M16
G05
G00X37.274Y-41.748
M15
G01X37.274Y-43.748
M16
G05
G00X37.375Y-79.823
M15
G01X37.375Y-81.823
M16
G05
G00X37.375Y-98.593
M15
G01X37.375Y-100.593
M16
G05
G00X39.329Y-25.971
M15
G01X37.329Y-25.971
M16
G05
G00X39.329Y-27.471
M15
G01X37.329Y-27.471
M16
G05
G00X38.674Y-60.717
M15
G01X38.674Y-62.717
M16
G05
G00X38.774Y-41.748
M15
G01X38.774Y-43.748
M16
G05
G00X38.875Y-79.823
M15
G01X38.875Y-81.823
M16
G05
G00X38.875Y-98.593
M15
G01X38.875Y-100.593
M16
G05
G00X44.701Y-25.938
M15
G01X42.701Y-25.938
M16
G05
G00X44.701Y-27.438
M15
G01X42.701Y-27.438
M16
G05
G00X46.951Y-117.77
M15
G01X46.951Y-119.77
M16
G05
G00X48.451Y-117.77
M15
G01X48.451Y-119.77
M16
G05
G00X56.229Y-60.785
M15
G01X56.229Y-62.785
M16
G05
G00X56.451Y-41.596
M15
G01X56.451Y-43.596
M16
G05
G00X56.52Y-79.848
M15
G01X56.52Y-81.848
M16
G05
G00X56.629Y-98.67
M15
G01X56.629Y-100.67
M16
G05
G00X57.729Y-60.785
M15
G01X57.729Y-62.785
M16
G05
G00X57.951Y-41.596
M15
G01X57.951Y-43.596
M16
G05
G00X58.02Y-79.848
M15
G01X58.02Y-81.848
M16
G05
G00X58.129Y-98.67
M15
G01X58.129Y-100.67
M16
G05
G00X75.406Y-79.582
M15
G01X75.406Y-81.582
M16
G05
G00X75.425Y-117.593
M15
G01X75.425Y-119.593
M16
G05
G00X75.577Y-99.0
M15
G01X75.577Y-101.0
M16
G05
G00X75.628Y-60.925
M15
G01X75.628Y-62.925
M16
G05
G00X75.679Y-41.621
M15
G01X75.679Y-43.621
M16
G05
G00X76.906Y-79.582
M15
G01X76.906Y-81.582
M16
G05
G00X76.925Y-117.593
M15
G01X76.925Y-119.593
M16
G05
G00X77.077Y-99.0
M15
G01X77.077Y-101.0
M16
G05
G00X77.128Y-60.925
M15
G01X77.128Y-62.925
M16
G05
G00X77.179Y-41.621
M15
G01X77.179Y-43.621
M16
G05
G00X94.417Y-108.068
M15
G01X94.417Y-110.068
M16
G05
G00X94.449Y-69.79
M15
G01X94.449Y-71.79
M16
G05
G00X94.678Y-41.723
M15
G01X94.678Y-43.723
M16
G05
G00X95.917Y-108.068
M15
G01X95.917Y-110.068
M16
G05
G00X95.949Y-69.79
M15
G01X95.949Y-71.79
M16
G05
G00X96.178Y-41.723
M15
G01X96.178Y-43.723
M16
G05
M30
