M48
; DRILL file KiCad 10.0.1 date 2026-06-22T19:58:03
; FORMAT={-:-/ absolute / metric / decimal}
; #@! TF.CreationDate,2026-06-22T19:58:03-07:00
; #@! TF.GenerationSoftware,Kicad,Pcbnew,10.0.1
; #@! TF.FileFunction,Plated,1,2,PTH
FMAT,2
METRIC
; #@! TA.AperFunction,Plated,PTH,ViaDrill
T1C0.300
; #@! TA.AperFunction,Plated,PTH,ViaDrill
T2C0.394
; #@! TA.AperFunction,Plated,PTH,ComponentDrill
T3C0.600
%
G90
G05
T1
X30.251Y-44.907
X30.302Y-64.694
X33.567Y-23.564
X35.199Y-60.967
X35.299Y-41.998
X35.299Y-43.498
X35.306Y-87.02
X35.4Y-80.073
X35.4Y-98.843
X35.865Y-29.388
X38.862Y-34.544
X39.079Y-23.564
X39.446Y-85.09
X40.54Y-111.76
X40.869Y-39.776
X40.945Y-38.71
X41.097Y-29.464
X41.427Y-75.006
X41.631Y-48.717
X41.758Y-59.131
X42.723Y-97.053
X43.637Y-116.053
X43.993Y-82.55
X44.451Y-23.531
X44.976Y-118.02
X46.228Y-109.957
X46.584Y-84.988
X46.863Y-67.97
X46.888Y-93.497
X48.412Y-81.432
X49.251Y-96.317
X51.029Y-40.361
X51.283Y-62.713
X52.68Y-100.584
X52.68Y-112.217
X54.254Y-61.035
X54.476Y-41.846
X54.545Y-80.098
X54.654Y-98.92
X56.312Y-105.664
X57.29Y-27.28
X57.316Y-24.46
X59.665Y-59.157
X60.223Y-77.978
X60.604Y-115.722
X61.29Y-104.089
X62.205Y-73.66
X64.11Y-29.505
X64.313Y-121.082
X64.795Y-40.183
X64.922Y-83.82
X65.43Y-76.505
X65.837Y-35.585
X66.167Y-96.52
X66.218Y-63.322
X67.31Y-27.813
X67.335Y-97.917
X68.123Y-88.875
X68.301Y-50.343
X68.758Y-39.624
X69.115Y-54.61
X69.19Y-49.312
X69.469Y-45.618
X70.104Y-81.509
X70.434Y-101.549
X70.51Y-29.505
X71.12Y-63.297
X71.811Y-45.791
X72.034Y-48.641
X72.441Y-41.834
X72.593Y-59.538
X72.873Y-76.479
X73.431Y-79.832
X73.431Y-81.332
X73.602Y-99.25
X73.653Y-61.175
X73.704Y-41.871
X74.244Y-44.882
X76.987Y-67.056
X77.648Y-49.378
X78.867Y-77.114
X78.881Y-79.832
X79.197Y-115.9
X79.553Y-94.437
X80.188Y-84.353
X80.828Y-80.25
X81.331Y-101.6
X82.372Y-47.193
X82.601Y-82.423
X83.16Y-85.554
X83.312Y-26.924
X84.378Y-80.739
X84.455Y-50.114
X84.506Y-41.732
X84.531Y-43.256
X84.887Y-121.158
X84.988Y-84.277
X84.988Y-115.773
X85.065Y-78.638
X85.258Y-86.858
X85.852Y-91.135
X86.296Y-26.67
X86.487Y-73.482
X86.589Y-107.594
X86.69Y-58.496
X87.046Y-51.537
X87.046Y-93.751
X87.16Y-88.595
X87.249Y-91.237
X87.306Y-92.602
X87.313Y-24.526
X88.165Y-102.235
X88.316Y-89.764
X88.443Y-84.143
X88.671Y-68.631
X88.71Y-88.595
X88.824Y-49.378
X89.002Y-116.408
X89.205Y-92.501
X89.332Y-71.603
X89.408Y-109.576
X89.626Y-82.108
X89.637Y-41.453
X90.195Y-26.645
X90.653Y-73.139
X90.907Y-79.781
X90.955Y-24.526
X91.527Y-89.332
X92.253Y-30.023
X92.474Y-70.04
X92.507Y-95.822
X92.888Y-58.699
X93.539Y-24.765
X93.751Y-93.269
X93.777Y-86.157
X93.983Y-82.677
X93.983Y-83.871
X94.107Y-76.221
X94.793Y-92.024
X94.983Y-84.938
X95.174Y-77.013
X95.287Y-54.304
X96.037Y-56.029
X96.164Y-83.795
X96.19Y-86.182
X96.215Y-76.187
X96.977Y-94.984
X97.358Y-78.892
X97.754Y-70.04
X98.153Y-41.973
X98.159Y-24.79
X98.385Y-66.294
X98.476Y-76.137
X100.279Y-90.703
X100.647Y-93.447
X101.448Y-87.791
X101.829Y-90.703
X102.083Y-83.828
X102.641Y-81.788
X102.921Y-86.436
X103.44Y-81.736
X103.719Y-86.488
X103.734Y-23.241
T2
X40.742Y-84.023
X40.85Y-100.343
X45.136Y-83.388
X46.584Y-65.456
X47.193Y-51.816
X47.244Y-88.138
X50.065Y-54.61
X52.502Y-82.779
X53.721Y-65.532
X54.762Y-68.682
X59.487Y-44.396
X60.071Y-102.032
X60.3Y-74.955
X65.329Y-28.042
X65.735Y-39.345
X66.269Y-75.717
X67.234Y-94.488
X67.285Y-41.554
X67.945Y-77.546
X68.199Y-86.614
X68.335Y-41.554
X69.85Y-78.185
X71.044Y-85.7
X71.679Y-83.439
X74.27Y-26.99
X74.574Y-83.388
X78.715Y-74.16
X79.052Y-100.883
X79.103Y-62.675
X79.154Y-43.371
X79.781Y-104.597
X80.747Y-63.525
X82.423Y-104.539
X83.693Y-104.826
X83.947Y-83.668
X84.252Y-45.314
X84.455Y-55.118
X84.55Y-53.061
X86.047Y-25.805
X88.392Y-72.212
X89.332Y-45.288
X89.45Y-82.991
X90.653Y-54.388
X90.983Y-51.943
X92.71Y-83.922
X92.71Y-86.9
X93.701Y-63.602
X94.086Y-87.216
X94.107Y-77.771
X95.156Y-82.557
X95.488Y-89.586
X95.626Y-115.626
X96.037Y-52.579
X96.114Y-87.198
X96.139Y-25.715
X96.368Y-79.985
X96.977Y-93.434
X97.206Y-28.718
X97.892Y-109.818
X99.898Y-87.791
X101.766Y-28.473
X102.198Y-73.149
X102.94Y-73.891
X103.623Y-65.049
T3
G00X62.99Y-24.35
M15
G01X62.99Y-25.15
M16
G05
G00X62.99Y-28.38
M15
G01X62.99Y-29.48
M16
G05
G00X71.63Y-24.35
M15
G01X71.63Y-25.15
M16
G05
G00X71.63Y-28.38
M15
G01X71.63Y-29.48
M16
G05
M30
