%TF.GenerationSoftware,KiCad,Pcbnew,10.0.1*%
%TF.CreationDate,2026-06-18T20:02:16-07:00*%
%TF.ProjectId,2 LAYER MECHANICAL NUMPAD PCB WITH RP2040,32204c41-5945-4522-904d-454348414e49,rev?*%
%TF.SameCoordinates,Original*%
%TF.FileFunction,Soldermask,Top*%
%TF.FilePolarity,Negative*%
%FSLAX46Y46*%
G04 Gerber Fmt 4.6, Leading zero omitted, Abs format (unit mm)*
G04 Created by KiCad (PCBNEW 10.0.1) date 2026-06-18 20:02:16*
%MOMM*%
%LPD*%
G01*
G04 APERTURE LIST*
%ADD10C,1.750000*%
%ADD11C,3.050000*%
%ADD12C,4.000000*%
%ADD13R,1.500000X1.000000*%
%ADD14C,0.650000*%
%ADD15O,1.000000X1.800000*%
%ADD16O,1.000000X2.100000*%
G04 APERTURE END LIST*
%TO.C,SJ1*%
G36*
X78599600Y-26189800D02*
G01*
X80099600Y-26189800D01*
X80099600Y-26489800D01*
X78599600Y-26489800D01*
X78599600Y-26189800D01*
G37*
%TD*%
D10*
%TO.C,SW11*%
X71120000Y-76200000D03*
D11*
X72390000Y-73660000D03*
D12*
X76200000Y-76200000D03*
D11*
X78740000Y-71120000D03*
D10*
X81280000Y-76200000D03*
%TD*%
%TO.C,SW8*%
X90170000Y-66675000D03*
D11*
X91440000Y-64135000D03*
D12*
X95250000Y-66675000D03*
D11*
X97790000Y-61595000D03*
D10*
X100330000Y-66675000D03*
%TD*%
%TO.C,SW17*%
X71120000Y-114300000D03*
D11*
X72390000Y-111760000D03*
D12*
X76200000Y-114300000D03*
D11*
X78740000Y-109220000D03*
D10*
X81280000Y-114300000D03*
%TD*%
%TO.C,SW12*%
X33020000Y-95250000D03*
D11*
X34290000Y-92710000D03*
D12*
X38100000Y-95250000D03*
D11*
X40640000Y-90170000D03*
D10*
X43180000Y-95250000D03*
%TD*%
%TO.C,SW7*%
X71120000Y-57150000D03*
D11*
X72390000Y-54610000D03*
D12*
X76200000Y-57150000D03*
D11*
X78740000Y-52070000D03*
D10*
X81280000Y-57150000D03*
%TD*%
%TO.C,SW14*%
X71120000Y-95250000D03*
D11*
X72390000Y-92710000D03*
D12*
X76200000Y-95250000D03*
D11*
X78740000Y-90170000D03*
D10*
X81280000Y-95250000D03*
%TD*%
%TO.C,SW1*%
X33020000Y-38100000D03*
D11*
X34290000Y-35560000D03*
D12*
X38100000Y-38100000D03*
D11*
X40640000Y-33020000D03*
D10*
X43180000Y-38100000D03*
%TD*%
%TO.C,SW9*%
X33020000Y-76200000D03*
D11*
X34290000Y-73660000D03*
D12*
X38100000Y-76200000D03*
D11*
X40640000Y-71120000D03*
D10*
X43180000Y-76200000D03*
%TD*%
%TO.C,SW3*%
X71120000Y-38100000D03*
D11*
X72390000Y-35560000D03*
D12*
X76200000Y-38100000D03*
D11*
X78740000Y-33020000D03*
D10*
X81280000Y-38100000D03*
%TD*%
%TO.C,SW10*%
X52070000Y-76200000D03*
D11*
X53340000Y-73660000D03*
D12*
X57150000Y-76200000D03*
D11*
X59690000Y-71120000D03*
D10*
X62230000Y-76200000D03*
%TD*%
%TO.C,SW6*%
X52070000Y-57150000D03*
D11*
X53340000Y-54610000D03*
D12*
X57150000Y-57150000D03*
D11*
X59690000Y-52070000D03*
D10*
X62230000Y-57150000D03*
%TD*%
%TO.C,SW2*%
X52070000Y-38100000D03*
D11*
X53340000Y-35560000D03*
D12*
X57150000Y-38100000D03*
D11*
X59690000Y-33020000D03*
D10*
X62230000Y-38100000D03*
%TD*%
D13*
%TO.C,SJ1*%
X79349600Y-25689800D03*
X79349600Y-26989800D03*
%TD*%
D10*
%TO.C,SW15*%
X90170000Y-104775000D03*
D11*
X91440000Y-102235000D03*
D12*
X95250000Y-104775000D03*
D11*
X97790000Y-99695000D03*
D10*
X100330000Y-104775000D03*
%TD*%
%TO.C,SW4*%
X90170000Y-38100000D03*
D11*
X91440000Y-35560000D03*
D12*
X95250000Y-38100000D03*
D11*
X97790000Y-33020000D03*
D10*
X100330000Y-38100000D03*
%TD*%
%TO.C,SW5*%
X33020000Y-57150000D03*
D11*
X34290000Y-54610000D03*
D12*
X38100000Y-57150000D03*
D11*
X40640000Y-52070000D03*
D10*
X43180000Y-57150000D03*
%TD*%
%TO.C,SW16*%
X42545000Y-114300000D03*
D11*
X43815000Y-111760000D03*
D12*
X47625000Y-114300000D03*
D11*
X50165000Y-109220000D03*
D10*
X52705000Y-114300000D03*
%TD*%
%TO.C,SW13*%
X52070000Y-95250000D03*
D11*
X53340000Y-92710000D03*
D12*
X57150000Y-95250000D03*
D11*
X59690000Y-90170000D03*
D10*
X62230000Y-95250000D03*
%TD*%
D14*
%TO.C,J1*%
X64420000Y-28430000D03*
X70200000Y-28430000D03*
D15*
X62990000Y-24750000D03*
D16*
X62990000Y-28930000D03*
D15*
X71630000Y-24750000D03*
D16*
X71630000Y-28930000D03*
%TD*%
M02*
