%TF.GenerationSoftware,KiCad,Pcbnew,10.0.1*%
%TF.CreationDate,2026-06-18T20:02:16-07:00*%
%TF.ProjectId,2 LAYER MECHANICAL NUMPAD PCB WITH RP2040,32204c41-5945-4522-904d-454348414e49,rev?*%
%TF.SameCoordinates,Original*%
%TF.FileFunction,Profile,NP*%
%FSLAX46Y46*%
G04 Gerber Fmt 4.6, Leading zero omitted, Abs format (unit mm)*
G04 Created by KiCad (PCBNEW 10.0.1) date 2026-06-18 20:02:16*
%MOMM*%
%LPD*%
G01*
G04 APERTURE LIST*
%TA.AperFunction,Profile*%
%ADD10C,0.050000*%
%TD*%
%TA.AperFunction,Profile*%
%ADD11C,0.120000*%
%TD*%
G04 APERTURE END LIST*
D10*
X28585437Y-22225000D02*
X104775000Y-22225000D01*
X104775000Y-123825000D01*
X28585437Y-123825000D01*
X28585437Y-22225000D01*
%TO.C,D46*%
D11*
X74474600Y-118592600D02*
X74474600Y-117892247D01*
X74474600Y-118592600D02*
X74474600Y-119292953D01*
X76174600Y-117092600D02*
X75274247Y-117092600D01*
X76174600Y-117092600D02*
X77074953Y-117092600D01*
X76174600Y-120092600D02*
X75274247Y-120092600D01*
X76174600Y-120092600D02*
X77074953Y-120092600D01*
X77874600Y-118592600D02*
X77874600Y-117892247D01*
X77874600Y-118592600D02*
X77874600Y-119292953D01*
X74430666Y-117735945D02*
G75*
G02*
X74474600Y-117892247I-256058J-156299D01*
G01*
X74430666Y-117735945D02*
G75*
G02*
X75117945Y-117048666I426776J260503D01*
G01*
X74474600Y-119292953D02*
G75*
G02*
X74430666Y-119449255I-299992J-3D01*
G01*
X75117945Y-120136534D02*
G75*
G02*
X74430666Y-119449255I-260503J426776D01*
G01*
X75117945Y-120136534D02*
G75*
G02*
X75274247Y-120092600I156299J-256058D01*
G01*
X75274247Y-117092600D02*
G75*
G02*
X75117945Y-117048666I-3J299992D01*
G01*
X77074953Y-120092600D02*
G75*
G02*
X77231256Y-120136533I-3J-300020D01*
G01*
X77231255Y-117048666D02*
G75*
G02*
X77074953Y-117092576I-156255J256066D01*
G01*
X77231255Y-117048666D02*
G75*
G02*
X77918534Y-117735945I260505J-426774D01*
G01*
X77874600Y-117892247D02*
G75*
G02*
X77918535Y-117735946I299680J87D01*
G01*
X77918534Y-119449255D02*
G75*
G02*
X77231255Y-120136534I-426774J-260505D01*
G01*
X77918534Y-119449255D02*
G75*
G02*
X77874624Y-119292953I256066J156255D01*
G01*
%TO.C,D41*%
X93499200Y-70789800D02*
X93499200Y-70089447D01*
X93499200Y-70789800D02*
X93499200Y-71490153D01*
X95199200Y-69289800D02*
X94298847Y-69289800D01*
X95199200Y-69289800D02*
X96099553Y-69289800D01*
X95199200Y-72289800D02*
X94298847Y-72289800D01*
X95199200Y-72289800D02*
X96099553Y-72289800D01*
X96899200Y-70789800D02*
X96899200Y-70089447D01*
X96899200Y-70789800D02*
X96899200Y-71490153D01*
X93455266Y-69933145D02*
G75*
G02*
X93499200Y-70089447I-256058J-156299D01*
G01*
X93455266Y-69933145D02*
G75*
G02*
X94142545Y-69245866I426776J260503D01*
G01*
X93499200Y-71490153D02*
G75*
G02*
X93455266Y-71646455I-299992J-3D01*
G01*
X94142545Y-72333734D02*
G75*
G02*
X93455266Y-71646455I-260503J426776D01*
G01*
X94142545Y-72333734D02*
G75*
G02*
X94298847Y-72289800I156299J-256058D01*
G01*
X94298847Y-69289800D02*
G75*
G02*
X94142545Y-69245866I-3J299992D01*
G01*
X96099553Y-72289800D02*
G75*
G02*
X96255856Y-72333733I-3J-300020D01*
G01*
X96255855Y-69245866D02*
G75*
G02*
X96099553Y-69289776I-156255J256066D01*
G01*
X96255855Y-69245866D02*
G75*
G02*
X96943134Y-69933145I260505J-426774D01*
G01*
X96899200Y-70089447D02*
G75*
G02*
X96943135Y-69933146I299680J87D01*
G01*
X96943134Y-71646455D02*
G75*
G02*
X96255855Y-72333734I-426774J-260505D01*
G01*
X96943134Y-71646455D02*
G75*
G02*
X96899224Y-71490153I256066J156255D01*
G01*
%TO.C,D35*%
X36222200Y-61722000D02*
X36222200Y-61021647D01*
X36222200Y-61722000D02*
X36222200Y-62422353D01*
X37922200Y-60222000D02*
X37021847Y-60222000D01*
X37922200Y-60222000D02*
X38822553Y-60222000D01*
X37922200Y-63222000D02*
X37021847Y-63222000D01*
X37922200Y-63222000D02*
X38822553Y-63222000D01*
X39622200Y-61722000D02*
X39622200Y-61021647D01*
X39622200Y-61722000D02*
X39622200Y-62422353D01*
X36178266Y-60865345D02*
G75*
G02*
X36222200Y-61021647I-256058J-156299D01*
G01*
X36178266Y-60865345D02*
G75*
G02*
X36865545Y-60178066I426776J260503D01*
G01*
X36222200Y-62422353D02*
G75*
G02*
X36178266Y-62578655I-299992J-3D01*
G01*
X36865545Y-63265934D02*
G75*
G02*
X36178266Y-62578655I-260503J426776D01*
G01*
X36865545Y-63265934D02*
G75*
G02*
X37021847Y-63222000I156299J-256058D01*
G01*
X37021847Y-60222000D02*
G75*
G02*
X36865545Y-60178066I-3J299992D01*
G01*
X38822553Y-63222000D02*
G75*
G02*
X38978856Y-63265933I-3J-300020D01*
G01*
X38978855Y-60178066D02*
G75*
G02*
X38822553Y-60221976I-156255J256066D01*
G01*
X38978855Y-60178066D02*
G75*
G02*
X39666134Y-60865345I260505J-426774D01*
G01*
X39622200Y-61021647D02*
G75*
G02*
X39666135Y-60865346I299680J87D01*
G01*
X39666134Y-62578655D02*
G75*
G02*
X38978855Y-63265934I-426774J-260505D01*
G01*
X39666134Y-62578655D02*
G75*
G02*
X39622224Y-62422353I256066J156255D01*
G01*
%TO.C,D39*%
X55569800Y-80848200D02*
X55569800Y-80147847D01*
X55569800Y-80848200D02*
X55569800Y-81548553D01*
X57269800Y-79348200D02*
X56369447Y-79348200D01*
X57269800Y-79348200D02*
X58170153Y-79348200D01*
X57269800Y-82348200D02*
X56369447Y-82348200D01*
X57269800Y-82348200D02*
X58170153Y-82348200D01*
X58969800Y-80848200D02*
X58969800Y-80147847D01*
X58969800Y-80848200D02*
X58969800Y-81548553D01*
X55525866Y-79991545D02*
G75*
G02*
X55569800Y-80147847I-256058J-156299D01*
G01*
X55525866Y-79991545D02*
G75*
G02*
X56213145Y-79304266I426776J260503D01*
G01*
X55569800Y-81548553D02*
G75*
G02*
X55525866Y-81704855I-299992J-3D01*
G01*
X56213145Y-82392134D02*
G75*
G02*
X55525866Y-81704855I-260503J426776D01*
G01*
X56213145Y-82392134D02*
G75*
G02*
X56369447Y-82348200I156299J-256058D01*
G01*
X56369447Y-79348200D02*
G75*
G02*
X56213145Y-79304266I-3J299992D01*
G01*
X58170153Y-82348200D02*
G75*
G02*
X58326456Y-82392133I-3J-300020D01*
G01*
X58326455Y-79304266D02*
G75*
G02*
X58170153Y-79348176I-156255J256066D01*
G01*
X58326455Y-79304266D02*
G75*
G02*
X59013734Y-79991545I260505J-426774D01*
G01*
X58969800Y-80147847D02*
G75*
G02*
X59013735Y-79991546I299680J87D01*
G01*
X59013734Y-81704855D02*
G75*
G02*
X58326455Y-82392134I-426774J-260505D01*
G01*
X59013734Y-81704855D02*
G75*
G02*
X58969824Y-81548553I256066J156255D01*
G01*
%TO.C,D47*%
X93473800Y-109067600D02*
X93473800Y-108367247D01*
X93473800Y-109067600D02*
X93473800Y-109767953D01*
X95173800Y-107567600D02*
X94273447Y-107567600D01*
X95173800Y-107567600D02*
X96074153Y-107567600D01*
X95173800Y-110567600D02*
X94273447Y-110567600D01*
X95173800Y-110567600D02*
X96074153Y-110567600D01*
X96873800Y-109067600D02*
X96873800Y-108367247D01*
X96873800Y-109067600D02*
X96873800Y-109767953D01*
X93429866Y-108210945D02*
G75*
G02*
X93473800Y-108367247I-256058J-156299D01*
G01*
X93429866Y-108210945D02*
G75*
G02*
X94117145Y-107523666I426776J260503D01*
G01*
X93473800Y-109767953D02*
G75*
G02*
X93429866Y-109924255I-299992J-3D01*
G01*
X94117145Y-110611534D02*
G75*
G02*
X93429866Y-109924255I-260503J426776D01*
G01*
X94117145Y-110611534D02*
G75*
G02*
X94273447Y-110567600I156299J-256058D01*
G01*
X94273447Y-107567600D02*
G75*
G02*
X94117145Y-107523666I-3J299992D01*
G01*
X96074153Y-110567600D02*
G75*
G02*
X96230456Y-110611533I-3J-300020D01*
G01*
X96230455Y-107523666D02*
G75*
G02*
X96074153Y-107567576I-156255J256066D01*
G01*
X96230455Y-107523666D02*
G75*
G02*
X96917734Y-108210945I260505J-426774D01*
G01*
X96873800Y-108367247D02*
G75*
G02*
X96917735Y-108210946I299680J87D01*
G01*
X96917734Y-109924255D02*
G75*
G02*
X96230455Y-110611534I-426774J-260505D01*
G01*
X96917734Y-109924255D02*
G75*
G02*
X96873824Y-109767953I256066J156255D01*
G01*
%TO.C,D50*%
X42201400Y-26256400D02*
X42201400Y-25356047D01*
X42201400Y-26256400D02*
X42201400Y-27156753D01*
X43701400Y-24556400D02*
X43001047Y-24556400D01*
X43701400Y-24556400D02*
X44401753Y-24556400D01*
X43701400Y-27956400D02*
X43001047Y-27956400D01*
X43701400Y-27956400D02*
X44401753Y-27956400D01*
X45201400Y-26256400D02*
X45201400Y-25356047D01*
X45201400Y-26256400D02*
X45201400Y-27156753D01*
X42157466Y-25199745D02*
G75*
G02*
X42201400Y-25356047I-256058J-156299D01*
G01*
X42157466Y-25199745D02*
G75*
G02*
X42844745Y-24512466I426776J260503D01*
G01*
X42201400Y-27156753D02*
G75*
G02*
X42157467Y-27313056I-300020J3D01*
G01*
X42844745Y-28000334D02*
G75*
G02*
X42157466Y-27313055I-260505J426774D01*
G01*
X42844745Y-28000334D02*
G75*
G02*
X43001047Y-27956424I156255J-256066D01*
G01*
X43001047Y-24556400D02*
G75*
G02*
X42844745Y-24512466I-3J299992D01*
G01*
X44401753Y-27956400D02*
G75*
G02*
X44558054Y-28000335I87J-299680D01*
G01*
X44558055Y-24512466D02*
G75*
G02*
X44401753Y-24556400I-156299J256058D01*
G01*
X44558055Y-24512466D02*
G75*
G02*
X45245334Y-25199745I260503J-426776D01*
G01*
X45201400Y-25356047D02*
G75*
G02*
X45245334Y-25199745I299992J3D01*
G01*
X45245334Y-27313055D02*
G75*
G02*
X44558055Y-28000334I-426774J-260505D01*
G01*
X45245334Y-27313055D02*
G75*
G02*
X45201424Y-27156753I256066J156255D01*
G01*
%TO.C,D36*%
X55279400Y-61784800D02*
X55279400Y-61084447D01*
X55279400Y-61784800D02*
X55279400Y-62485153D01*
X56979400Y-60284800D02*
X56079047Y-60284800D01*
X56979400Y-60284800D02*
X57879753Y-60284800D01*
X56979400Y-63284800D02*
X56079047Y-63284800D01*
X56979400Y-63284800D02*
X57879753Y-63284800D01*
X58679400Y-61784800D02*
X58679400Y-61084447D01*
X58679400Y-61784800D02*
X58679400Y-62485153D01*
X55235466Y-60928145D02*
G75*
G02*
X55279400Y-61084447I-256058J-156299D01*
G01*
X55235466Y-60928145D02*
G75*
G02*
X55922745Y-60240866I426776J260503D01*
G01*
X55279400Y-62485153D02*
G75*
G02*
X55235466Y-62641455I-299992J-3D01*
G01*
X55922745Y-63328734D02*
G75*
G02*
X55235466Y-62641455I-260503J426776D01*
G01*
X55922745Y-63328734D02*
G75*
G02*
X56079047Y-63284800I156299J-256058D01*
G01*
X56079047Y-60284800D02*
G75*
G02*
X55922745Y-60240866I-3J299992D01*
G01*
X57879753Y-63284800D02*
G75*
G02*
X58036056Y-63328733I-3J-300020D01*
G01*
X58036055Y-60240866D02*
G75*
G02*
X57879753Y-60284776I-156255J256066D01*
G01*
X58036055Y-60240866D02*
G75*
G02*
X58723334Y-60928145I260505J-426774D01*
G01*
X58679400Y-61084447D02*
G75*
G02*
X58723335Y-60928146I299680J87D01*
G01*
X58723334Y-62641455D02*
G75*
G02*
X58036055Y-63328734I-426774J-260505D01*
G01*
X58723334Y-62641455D02*
G75*
G02*
X58679424Y-62485153I256066J156255D01*
G01*
%TO.C,D48*%
X31316800Y-26289000D02*
X31316800Y-25388647D01*
X31316800Y-26289000D02*
X31316800Y-27189353D01*
X32816800Y-24589000D02*
X32116447Y-24589000D01*
X32816800Y-24589000D02*
X33517153Y-24589000D01*
X32816800Y-27989000D02*
X32116447Y-27989000D01*
X32816800Y-27989000D02*
X33517153Y-27989000D01*
X34316800Y-26289000D02*
X34316800Y-25388647D01*
X34316800Y-26289000D02*
X34316800Y-27189353D01*
X31272866Y-25232345D02*
G75*
G02*
X31316800Y-25388647I-256058J-156299D01*
G01*
X31272866Y-25232345D02*
G75*
G02*
X31960145Y-24545066I426776J260503D01*
G01*
X31316800Y-27189353D02*
G75*
G02*
X31272867Y-27345656I-300020J3D01*
G01*
X31960145Y-28032934D02*
G75*
G02*
X31272866Y-27345655I-260505J426774D01*
G01*
X31960145Y-28032934D02*
G75*
G02*
X32116447Y-27989024I156255J-256066D01*
G01*
X32116447Y-24589000D02*
G75*
G02*
X31960145Y-24545066I-3J299992D01*
G01*
X33517153Y-27989000D02*
G75*
G02*
X33673454Y-28032935I87J-299680D01*
G01*
X33673455Y-24545066D02*
G75*
G02*
X33517153Y-24589000I-156299J256058D01*
G01*
X33673455Y-24545066D02*
G75*
G02*
X34360734Y-25232345I260503J-426776D01*
G01*
X34316800Y-25388647D02*
G75*
G02*
X34360734Y-25232345I299992J3D01*
G01*
X34360734Y-27345655D02*
G75*
G02*
X33673455Y-28032934I-426774J-260505D01*
G01*
X34360734Y-27345655D02*
G75*
G02*
X34316824Y-27189353I256066J156255D01*
G01*
%TO.C,D37*%
X74677800Y-61925200D02*
X74677800Y-61224847D01*
X74677800Y-61925200D02*
X74677800Y-62625553D01*
X76377800Y-60425200D02*
X75477447Y-60425200D01*
X76377800Y-60425200D02*
X77278153Y-60425200D01*
X76377800Y-63425200D02*
X75477447Y-63425200D01*
X76377800Y-63425200D02*
X77278153Y-63425200D01*
X78077800Y-61925200D02*
X78077800Y-61224847D01*
X78077800Y-61925200D02*
X78077800Y-62625553D01*
X74633866Y-61068545D02*
G75*
G02*
X74677800Y-61224847I-256058J-156299D01*
G01*
X74633866Y-61068545D02*
G75*
G02*
X75321145Y-60381266I426776J260503D01*
G01*
X74677800Y-62625553D02*
G75*
G02*
X74633866Y-62781855I-299992J-3D01*
G01*
X75321145Y-63469134D02*
G75*
G02*
X74633866Y-62781855I-260503J426776D01*
G01*
X75321145Y-63469134D02*
G75*
G02*
X75477447Y-63425200I156299J-256058D01*
G01*
X75477447Y-60425200D02*
G75*
G02*
X75321145Y-60381266I-3J299992D01*
G01*
X77278153Y-63425200D02*
G75*
G02*
X77434456Y-63469133I-3J-300020D01*
G01*
X77434455Y-60381266D02*
G75*
G02*
X77278153Y-60425176I-156255J256066D01*
G01*
X77434455Y-60381266D02*
G75*
G02*
X78121734Y-61068545I260505J-426774D01*
G01*
X78077800Y-61224847D02*
G75*
G02*
X78121735Y-61068546I299680J87D01*
G01*
X78121734Y-62781855D02*
G75*
G02*
X77434455Y-63469134I-426774J-260505D01*
G01*
X78121734Y-62781855D02*
G75*
G02*
X78077824Y-62625553I256066J156255D01*
G01*
%TO.C,D40*%
X74456400Y-80226600D02*
X74456400Y-79526247D01*
X74456400Y-80226600D02*
X74456400Y-80926953D01*
X76156400Y-78726600D02*
X75256047Y-78726600D01*
X76156400Y-78726600D02*
X77056753Y-78726600D01*
X76156400Y-81726600D02*
X75256047Y-81726600D01*
X76156400Y-81726600D02*
X77056753Y-81726600D01*
X77856400Y-80226600D02*
X77856400Y-79526247D01*
X77856400Y-80226600D02*
X77856400Y-80926953D01*
X74412466Y-79369945D02*
G75*
G02*
X74456400Y-79526247I-256058J-156299D01*
G01*
X74412466Y-79369945D02*
G75*
G02*
X75099745Y-78682666I426776J260503D01*
G01*
X74456400Y-80926953D02*
G75*
G02*
X74412466Y-81083255I-299992J-3D01*
G01*
X75099745Y-81770534D02*
G75*
G02*
X74412466Y-81083255I-260503J426776D01*
G01*
X75099745Y-81770534D02*
G75*
G02*
X75256047Y-81726600I156299J-256058D01*
G01*
X75256047Y-78726600D02*
G75*
G02*
X75099745Y-78682666I-3J299992D01*
G01*
X77056753Y-81726600D02*
G75*
G02*
X77213056Y-81770533I-3J-300020D01*
G01*
X77213055Y-78682666D02*
G75*
G02*
X77056753Y-78726576I-156255J256066D01*
G01*
X77213055Y-78682666D02*
G75*
G02*
X77900334Y-79369945I260505J-426774D01*
G01*
X77856400Y-79526247D02*
G75*
G02*
X77900335Y-79369946I299680J87D01*
G01*
X77900334Y-81083255D02*
G75*
G02*
X77213055Y-81770534I-426774J-260505D01*
G01*
X77900334Y-81083255D02*
G75*
G02*
X77856424Y-80926953I256066J156255D01*
G01*
%TO.C,D34*%
X93727800Y-42722800D02*
X93727800Y-42022447D01*
X93727800Y-42722800D02*
X93727800Y-43423153D01*
X95427800Y-41222800D02*
X94527447Y-41222800D01*
X95427800Y-41222800D02*
X96328153Y-41222800D01*
X95427800Y-44222800D02*
X94527447Y-44222800D01*
X95427800Y-44222800D02*
X96328153Y-44222800D01*
X97127800Y-42722800D02*
X97127800Y-42022447D01*
X97127800Y-42722800D02*
X97127800Y-43423153D01*
X93683866Y-41866145D02*
G75*
G02*
X93727800Y-42022447I-256058J-156299D01*
G01*
X93683866Y-41866145D02*
G75*
G02*
X94371145Y-41178866I426776J260503D01*
G01*
X93727800Y-43423153D02*
G75*
G02*
X93683866Y-43579455I-299992J-3D01*
G01*
X94371145Y-44266734D02*
G75*
G02*
X93683866Y-43579455I-260503J426776D01*
G01*
X94371145Y-44266734D02*
G75*
G02*
X94527447Y-44222800I156299J-256058D01*
G01*
X94527447Y-41222800D02*
G75*
G02*
X94371145Y-41178866I-3J299992D01*
G01*
X96328153Y-44222800D02*
G75*
G02*
X96484456Y-44266733I-3J-300020D01*
G01*
X96484455Y-41178866D02*
G75*
G02*
X96328153Y-41222776I-156255J256066D01*
G01*
X96484455Y-41178866D02*
G75*
G02*
X97171734Y-41866145I260505J-426774D01*
G01*
X97127800Y-42022447D02*
G75*
G02*
X97171735Y-41866146I299680J87D01*
G01*
X97171734Y-43579455D02*
G75*
G02*
X96484455Y-44266734I-426774J-260505D01*
G01*
X97171734Y-43579455D02*
G75*
G02*
X97127824Y-43423153I256066J156255D01*
G01*
%TO.C,D38*%
X36425400Y-80822800D02*
X36425400Y-80122447D01*
X36425400Y-80822800D02*
X36425400Y-81523153D01*
X38125400Y-79322800D02*
X37225047Y-79322800D01*
X38125400Y-79322800D02*
X39025753Y-79322800D01*
X38125400Y-82322800D02*
X37225047Y-82322800D01*
X38125400Y-82322800D02*
X39025753Y-82322800D01*
X39825400Y-80822800D02*
X39825400Y-80122447D01*
X39825400Y-80822800D02*
X39825400Y-81523153D01*
X36381466Y-79966145D02*
G75*
G02*
X36425400Y-80122447I-256058J-156299D01*
G01*
X36381466Y-79966145D02*
G75*
G02*
X37068745Y-79278866I426776J260503D01*
G01*
X36425400Y-81523153D02*
G75*
G02*
X36381466Y-81679455I-299992J-3D01*
G01*
X37068745Y-82366734D02*
G75*
G02*
X36381466Y-81679455I-260503J426776D01*
G01*
X37068745Y-82366734D02*
G75*
G02*
X37225047Y-82322800I156299J-256058D01*
G01*
X37225047Y-79322800D02*
G75*
G02*
X37068745Y-79278866I-3J299992D01*
G01*
X39025753Y-82322800D02*
G75*
G02*
X39182056Y-82366733I-3J-300020D01*
G01*
X39182055Y-79278866D02*
G75*
G02*
X39025753Y-79322776I-156255J256066D01*
G01*
X39182055Y-79278866D02*
G75*
G02*
X39869334Y-79966145I260505J-426774D01*
G01*
X39825400Y-80122447D02*
G75*
G02*
X39869335Y-79966146I299680J87D01*
G01*
X39869334Y-81679455D02*
G75*
G02*
X39182055Y-82366734I-426774J-260505D01*
G01*
X39869334Y-81679455D02*
G75*
G02*
X39825424Y-81523153I256066J156255D01*
G01*
%TO.C,D43*%
X55678600Y-99669600D02*
X55678600Y-98969247D01*
X55678600Y-99669600D02*
X55678600Y-100369953D01*
X57378600Y-98169600D02*
X56478247Y-98169600D01*
X57378600Y-98169600D02*
X58278953Y-98169600D01*
X57378600Y-101169600D02*
X56478247Y-101169600D01*
X57378600Y-101169600D02*
X58278953Y-101169600D01*
X59078600Y-99669600D02*
X59078600Y-98969247D01*
X59078600Y-99669600D02*
X59078600Y-100369953D01*
X55634666Y-98812945D02*
G75*
G02*
X55678600Y-98969247I-256058J-156299D01*
G01*
X55634666Y-98812945D02*
G75*
G02*
X56321945Y-98125666I426776J260503D01*
G01*
X55678600Y-100369953D02*
G75*
G02*
X55634666Y-100526255I-299992J-3D01*
G01*
X56321945Y-101213534D02*
G75*
G02*
X55634666Y-100526255I-260503J426776D01*
G01*
X56321945Y-101213534D02*
G75*
G02*
X56478247Y-101169600I156299J-256058D01*
G01*
X56478247Y-98169600D02*
G75*
G02*
X56321945Y-98125666I-3J299992D01*
G01*
X58278953Y-101169600D02*
G75*
G02*
X58435256Y-101213533I-3J-300020D01*
G01*
X58435255Y-98125666D02*
G75*
G02*
X58278953Y-98169576I-156255J256066D01*
G01*
X58435255Y-98125666D02*
G75*
G02*
X59122534Y-98812945I260505J-426774D01*
G01*
X59078600Y-98969247D02*
G75*
G02*
X59122535Y-98812946I299680J87D01*
G01*
X59122534Y-100526255D02*
G75*
G02*
X58435255Y-101213534I-426774J-260505D01*
G01*
X59122534Y-100526255D02*
G75*
G02*
X59078624Y-100369953I256066J156255D01*
G01*
%TO.C,D49*%
X36828600Y-26289000D02*
X36828600Y-25388647D01*
X36828600Y-26289000D02*
X36828600Y-27189353D01*
X38328600Y-24589000D02*
X37628247Y-24589000D01*
X38328600Y-24589000D02*
X39028953Y-24589000D01*
X38328600Y-27989000D02*
X37628247Y-27989000D01*
X38328600Y-27989000D02*
X39028953Y-27989000D01*
X39828600Y-26289000D02*
X39828600Y-25388647D01*
X39828600Y-26289000D02*
X39828600Y-27189353D01*
X36784666Y-25232345D02*
G75*
G02*
X36828600Y-25388647I-256058J-156299D01*
G01*
X36784666Y-25232345D02*
G75*
G02*
X37471945Y-24545066I426776J260503D01*
G01*
X36828600Y-27189353D02*
G75*
G02*
X36784667Y-27345656I-300020J3D01*
G01*
X37471945Y-28032934D02*
G75*
G02*
X36784666Y-27345655I-260505J426774D01*
G01*
X37471945Y-28032934D02*
G75*
G02*
X37628247Y-27989024I156255J-256066D01*
G01*
X37628247Y-24589000D02*
G75*
G02*
X37471945Y-24545066I-3J299992D01*
G01*
X39028953Y-27989000D02*
G75*
G02*
X39185254Y-28032935I87J-299680D01*
G01*
X39185255Y-24545066D02*
G75*
G02*
X39028953Y-24589000I-156299J256058D01*
G01*
X39185255Y-24545066D02*
G75*
G02*
X39872534Y-25232345I260503J-426776D01*
G01*
X39828600Y-25388647D02*
G75*
G02*
X39872534Y-25232345I299992J3D01*
G01*
X39872534Y-27345655D02*
G75*
G02*
X39185255Y-28032934I-426774J-260505D01*
G01*
X39872534Y-27345655D02*
G75*
G02*
X39828624Y-27189353I256066J156255D01*
G01*
%TO.C,D44*%
X74627000Y-99999800D02*
X74627000Y-99299447D01*
X74627000Y-99999800D02*
X74627000Y-100700153D01*
X76327000Y-98499800D02*
X75426647Y-98499800D01*
X76327000Y-98499800D02*
X77227353Y-98499800D01*
X76327000Y-101499800D02*
X75426647Y-101499800D01*
X76327000Y-101499800D02*
X77227353Y-101499800D01*
X78027000Y-99999800D02*
X78027000Y-99299447D01*
X78027000Y-99999800D02*
X78027000Y-100700153D01*
X74583066Y-99143145D02*
G75*
G02*
X74627000Y-99299447I-256058J-156299D01*
G01*
X74583066Y-99143145D02*
G75*
G02*
X75270345Y-98455866I426776J260503D01*
G01*
X74627000Y-100700153D02*
G75*
G02*
X74583066Y-100856455I-299992J-3D01*
G01*
X75270345Y-101543734D02*
G75*
G02*
X74583066Y-100856455I-260503J426776D01*
G01*
X75270345Y-101543734D02*
G75*
G02*
X75426647Y-101499800I156299J-256058D01*
G01*
X75426647Y-98499800D02*
G75*
G02*
X75270345Y-98455866I-3J299992D01*
G01*
X77227353Y-101499800D02*
G75*
G02*
X77383656Y-101543733I-3J-300020D01*
G01*
X77383655Y-98455866D02*
G75*
G02*
X77227353Y-98499776I-156255J256066D01*
G01*
X77383655Y-98455866D02*
G75*
G02*
X78070934Y-99143145I260505J-426774D01*
G01*
X78027000Y-99299447D02*
G75*
G02*
X78070935Y-99143146I299680J87D01*
G01*
X78070934Y-100856455D02*
G75*
G02*
X77383655Y-101543734I-426774J-260505D01*
G01*
X78070934Y-100856455D02*
G75*
G02*
X78027024Y-100700153I256066J156255D01*
G01*
%TO.C,D42*%
X36425400Y-99593400D02*
X36425400Y-98893047D01*
X36425400Y-99593400D02*
X36425400Y-100293753D01*
X38125400Y-98093400D02*
X37225047Y-98093400D01*
X38125400Y-98093400D02*
X39025753Y-98093400D01*
X38125400Y-101093400D02*
X37225047Y-101093400D01*
X38125400Y-101093400D02*
X39025753Y-101093400D01*
X39825400Y-99593400D02*
X39825400Y-98893047D01*
X39825400Y-99593400D02*
X39825400Y-100293753D01*
X36381466Y-98736745D02*
G75*
G02*
X36425400Y-98893047I-256058J-156299D01*
G01*
X36381466Y-98736745D02*
G75*
G02*
X37068745Y-98049466I426776J260503D01*
G01*
X36425400Y-100293753D02*
G75*
G02*
X36381466Y-100450055I-299992J-3D01*
G01*
X37068745Y-101137334D02*
G75*
G02*
X36381466Y-100450055I-260503J426776D01*
G01*
X37068745Y-101137334D02*
G75*
G02*
X37225047Y-101093400I156299J-256058D01*
G01*
X37225047Y-98093400D02*
G75*
G02*
X37068745Y-98049466I-3J299992D01*
G01*
X39025753Y-101093400D02*
G75*
G02*
X39182056Y-101137333I-3J-300020D01*
G01*
X39182055Y-98049466D02*
G75*
G02*
X39025753Y-98093376I-156255J256066D01*
G01*
X39182055Y-98049466D02*
G75*
G02*
X39869334Y-98736745I260505J-426774D01*
G01*
X39825400Y-98893047D02*
G75*
G02*
X39869335Y-98736746I299680J87D01*
G01*
X39869334Y-100450055D02*
G75*
G02*
X39182055Y-101137334I-426774J-260505D01*
G01*
X39869334Y-100450055D02*
G75*
G02*
X39825424Y-100293753I256066J156255D01*
G01*
%TO.C,D32*%
X55500800Y-42595800D02*
X55500800Y-41895447D01*
X55500800Y-42595800D02*
X55500800Y-43296153D01*
X57200800Y-41095800D02*
X56300447Y-41095800D01*
X57200800Y-41095800D02*
X58101153Y-41095800D01*
X57200800Y-44095800D02*
X56300447Y-44095800D01*
X57200800Y-44095800D02*
X58101153Y-44095800D01*
X58900800Y-42595800D02*
X58900800Y-41895447D01*
X58900800Y-42595800D02*
X58900800Y-43296153D01*
X55456866Y-41739145D02*
G75*
G02*
X55500800Y-41895447I-256058J-156299D01*
G01*
X55456866Y-41739145D02*
G75*
G02*
X56144145Y-41051866I426776J260503D01*
G01*
X55500800Y-43296153D02*
G75*
G02*
X55456866Y-43452455I-299992J-3D01*
G01*
X56144145Y-44139734D02*
G75*
G02*
X55456866Y-43452455I-260503J426776D01*
G01*
X56144145Y-44139734D02*
G75*
G02*
X56300447Y-44095800I156299J-256058D01*
G01*
X56300447Y-41095800D02*
G75*
G02*
X56144145Y-41051866I-3J299992D01*
G01*
X58101153Y-44095800D02*
G75*
G02*
X58257456Y-44139733I-3J-300020D01*
G01*
X58257455Y-41051866D02*
G75*
G02*
X58101153Y-41095776I-156255J256066D01*
G01*
X58257455Y-41051866D02*
G75*
G02*
X58944734Y-41739145I260505J-426774D01*
G01*
X58900800Y-41895447D02*
G75*
G02*
X58944735Y-41739146I299680J87D01*
G01*
X58944734Y-43452455D02*
G75*
G02*
X58257455Y-44139734I-426774J-260505D01*
G01*
X58944734Y-43452455D02*
G75*
G02*
X58900824Y-43296153I256066J156255D01*
G01*
%TO.C,D45*%
X46001200Y-118770400D02*
X46001200Y-118070047D01*
X46001200Y-118770400D02*
X46001200Y-119470753D01*
X47701200Y-117270400D02*
X46800847Y-117270400D01*
X47701200Y-117270400D02*
X48601553Y-117270400D01*
X47701200Y-120270400D02*
X46800847Y-120270400D01*
X47701200Y-120270400D02*
X48601553Y-120270400D01*
X49401200Y-118770400D02*
X49401200Y-118070047D01*
X49401200Y-118770400D02*
X49401200Y-119470753D01*
X45957266Y-117913745D02*
G75*
G02*
X46001200Y-118070047I-256058J-156299D01*
G01*
X45957266Y-117913745D02*
G75*
G02*
X46644545Y-117226466I426776J260503D01*
G01*
X46001200Y-119470753D02*
G75*
G02*
X45957266Y-119627055I-299992J-3D01*
G01*
X46644545Y-120314334D02*
G75*
G02*
X45957266Y-119627055I-260503J426776D01*
G01*
X46644545Y-120314334D02*
G75*
G02*
X46800847Y-120270400I156299J-256058D01*
G01*
X46800847Y-117270400D02*
G75*
G02*
X46644545Y-117226466I-3J299992D01*
G01*
X48601553Y-120270400D02*
G75*
G02*
X48757856Y-120314333I-3J-300020D01*
G01*
X48757855Y-117226466D02*
G75*
G02*
X48601553Y-117270376I-156255J256066D01*
G01*
X48757855Y-117226466D02*
G75*
G02*
X49445134Y-117913745I260505J-426774D01*
G01*
X49401200Y-118070047D02*
G75*
G02*
X49445135Y-117913746I299680J87D01*
G01*
X49445134Y-119627055D02*
G75*
G02*
X48757855Y-120314334I-426774J-260505D01*
G01*
X49445134Y-119627055D02*
G75*
G02*
X49401224Y-119470753I256066J156255D01*
G01*
%TO.C,D33*%
X74728600Y-42621200D02*
X74728600Y-41920847D01*
X74728600Y-42621200D02*
X74728600Y-43321553D01*
X76428600Y-41121200D02*
X75528247Y-41121200D01*
X76428600Y-41121200D02*
X77328953Y-41121200D01*
X76428600Y-44121200D02*
X75528247Y-44121200D01*
X76428600Y-44121200D02*
X77328953Y-44121200D01*
X78128600Y-42621200D02*
X78128600Y-41920847D01*
X78128600Y-42621200D02*
X78128600Y-43321553D01*
X74684666Y-41764545D02*
G75*
G02*
X74728600Y-41920847I-256058J-156299D01*
G01*
X74684666Y-41764545D02*
G75*
G02*
X75371945Y-41077266I426776J260503D01*
G01*
X74728600Y-43321553D02*
G75*
G02*
X74684666Y-43477855I-299992J-3D01*
G01*
X75371945Y-44165134D02*
G75*
G02*
X74684666Y-43477855I-260503J426776D01*
G01*
X75371945Y-44165134D02*
G75*
G02*
X75528247Y-44121200I156299J-256058D01*
G01*
X75528247Y-41121200D02*
G75*
G02*
X75371945Y-41077266I-3J299992D01*
G01*
X77328953Y-44121200D02*
G75*
G02*
X77485256Y-44165133I-3J-300020D01*
G01*
X77485255Y-41077266D02*
G75*
G02*
X77328953Y-41121176I-156255J256066D01*
G01*
X77485255Y-41077266D02*
G75*
G02*
X78172534Y-41764545I260505J-426774D01*
G01*
X78128600Y-41920847D02*
G75*
G02*
X78172535Y-41764546I299680J87D01*
G01*
X78172534Y-43477855D02*
G75*
G02*
X77485255Y-44165134I-426774J-260505D01*
G01*
X78172534Y-43477855D02*
G75*
G02*
X78128624Y-43321553I256066J156255D01*
G01*
%TO.C,D31*%
X36323800Y-42748200D02*
X36323800Y-42047847D01*
X36323800Y-42748200D02*
X36323800Y-43448553D01*
X38023800Y-41248200D02*
X37123447Y-41248200D01*
X38023800Y-41248200D02*
X38924153Y-41248200D01*
X38023800Y-44248200D02*
X37123447Y-44248200D01*
X38023800Y-44248200D02*
X38924153Y-44248200D01*
X39723800Y-42748200D02*
X39723800Y-42047847D01*
X39723800Y-42748200D02*
X39723800Y-43448553D01*
X36279866Y-41891545D02*
G75*
G02*
X36323800Y-42047847I-256058J-156299D01*
G01*
X36279866Y-41891545D02*
G75*
G02*
X36967145Y-41204266I426776J260503D01*
G01*
X36323800Y-43448553D02*
G75*
G02*
X36279866Y-43604855I-299992J-3D01*
G01*
X36967145Y-44292134D02*
G75*
G02*
X36279866Y-43604855I-260503J426776D01*
G01*
X36967145Y-44292134D02*
G75*
G02*
X37123447Y-44248200I156299J-256058D01*
G01*
X37123447Y-41248200D02*
G75*
G02*
X36967145Y-41204266I-3J299992D01*
G01*
X38924153Y-44248200D02*
G75*
G02*
X39080456Y-44292133I-3J-300020D01*
G01*
X39080455Y-41204266D02*
G75*
G02*
X38924153Y-41248176I-156255J256066D01*
G01*
X39080455Y-41204266D02*
G75*
G02*
X39767734Y-41891545I260505J-426774D01*
G01*
X39723800Y-42047847D02*
G75*
G02*
X39767735Y-41891546I299680J87D01*
G01*
X39767734Y-43604855D02*
G75*
G02*
X39080455Y-44292134I-426774J-260505D01*
G01*
X39767734Y-43604855D02*
G75*
G02*
X39723824Y-43448553I256066J156255D01*
G01*
%TD*%
M02*
