M48
; DRILL file KiCad 10.0.1 date 2026-06-18T20:02:13
; FORMAT={-:-/ absolute / metric / decimal}
; #@! TF.CreationDate,2026-06-18T20:02:13-07:00
; #@! TF.GenerationSoftware,Kicad,Pcbnew,10.0.1
; #@! TF.FileFunction,NonPlated,1,2,NPTH
FMAT,2
METRIC
; #@! TA.AperFunction,NonPlated,NPTH,ComponentDrill
T1C0.650
; #@! TA.AperFunction,NonPlated,NPTH,ComponentDrill
T2C1.750
; #@! TA.AperFunction,NonPlated,NPTH,ComponentDrill
T3C3.050
; #@! TA.AperFunction,NonPlated,NPTH,ComponentDrill
T4C4.000
%
G90
G05
T1
X64.42Y-28.43
X70.2Y-28.43
T2
X33.02Y-38.1
X33.02Y-57.15
X33.02Y-76.2
X33.02Y-95.25
X42.545Y-114.3
X43.18Y-38.1
X43.18Y-57.15
X43.18Y-76.2
X43.18Y-95.25
X52.07Y-38.1
X52.07Y-57.15
X52.07Y-76.2
X52.07Y-95.25
X52.705Y-114.3
X62.23Y-38.1
X62.23Y-57.15
X62.23Y-76.2
X62.23Y-95.25
X71.12Y-38.1
X71.12Y-57.15
X71.12Y-76.2
X71.12Y-95.25
X71.12Y-114.3
X81.28Y-38.1
X81.28Y-57.15
X81.28Y-76.2
X81.28Y-95.25
X81.28Y-114.3
X90.17Y-38.1
X90.17Y-66.675
X90.17Y-104.775
X100.33Y-38.1
X100.33Y-66.675
X100.33Y-104.775
T3
X34.29Y-35.56
X34.29Y-54.61
X34.29Y-73.66
X34.29Y-92.71
X40.64Y-33.02
X40.64Y-52.07
X40.64Y-71.12
X40.64Y-90.17
X43.815Y-111.76
X50.165Y-109.22
X53.34Y-35.56
X53.34Y-54.61
X53.34Y-73.66
X53.34Y-92.71
X59.69Y-33.02
X59.69Y-52.07
X59.69Y-71.12
X59.69Y-90.17
X72.39Y-35.56
X72.39Y-54.61
X72.39Y-73.66
X72.39Y-92.71
X72.39Y-111.76
X78.74Y-33.02
X78.74Y-52.07
X78.74Y-71.12
X78.74Y-90.17
X78.74Y-109.22
X91.44Y-35.56
X91.44Y-64.135
X91.44Y-102.235
X97.79Y-33.02
X97.79Y-61.595
X97.79Y-99.695
T4
X38.1Y-38.1
X38.1Y-57.15
X38.1Y-76.2
X38.1Y-95.25
X47.625Y-114.3
X57.15Y-38.1
X57.15Y-57.15
X57.15Y-76.2
X57.15Y-95.25
X76.2Y-38.1
X76.2Y-57.15
X76.2Y-76.2
X76.2Y-95.25
X76.2Y-114.3
X95.25Y-38.1
X95.25Y-66.675
X95.25Y-104.775
M30
