%TF.GenerationSoftware,KiCad,Pcbnew,10.0.1*%
%TF.CreationDate,2026-06-17T14:42:31-07:00*%
%TF.ProjectId,MECHANICAL NUMPAD PCB WITH RP2040,4d454348-414e-4494-9341-4c204e554d50,rev?*%
%TF.SameCoordinates,Original*%
%TF.FileFunction,Profile,NP*%
%FSLAX46Y46*%
G04 Gerber Fmt 4.6, Leading zero omitted, Abs format (unit mm)*
G04 Created by KiCad (PCBNEW 10.0.1) date 2026-06-17 14:42:31*
%MOMM*%
%LPD*%
G01*
G04 APERTURE LIST*
%TA.AperFunction,Profile*%
%ADD10C,0.050000*%
%TD*%
%TA.AperFunction,Profile*%
%ADD11C,0.120000*%
%TD*%
G04 APERTURE END LIST*
D10*
X28585437Y-22225000D02*
X104775000Y-22225000D01*
X104775000Y-123825000D01*
X28585437Y-123825000D01*
X28585437Y-22225000D01*
%TO.C,D50*%
D11*
X43701400Y-24556400D02*
X43001047Y-24556400D01*
X43701400Y-24556400D02*
X44401753Y-24556400D01*
X42201400Y-26256400D02*
X42201400Y-25356047D01*
X42201400Y-26256400D02*
X42201400Y-27156753D01*
X45201400Y-26256400D02*
X45201400Y-25356047D01*
X45201400Y-26256400D02*
X45201400Y-27156753D01*
X43701400Y-27956400D02*
X43001047Y-27956400D01*
X43701400Y-27956400D02*
X44401753Y-27956400D01*
X43001047Y-24556400D02*
G75*
G02*
X42844745Y-24512466I-1J299999D01*
G01*
X42157466Y-25199745D02*
G75*
G02*
X42844745Y-24512466I426776J260503D01*
G01*
X44558055Y-24512466D02*
G75*
G02*
X44401753Y-24556400I-156301J256065D01*
G01*
X44558055Y-24512466D02*
G75*
G02*
X45245334Y-25199745I260503J-426776D01*
G01*
X45201400Y-25356047D02*
G75*
G02*
X45245334Y-25199745I299999J1D01*
G01*
X42157466Y-25199745D02*
G75*
G02*
X42201400Y-25356047I-256065J-156301D01*
G01*
X45245334Y-27313055D02*
G75*
G02*
X45201398Y-27156753I256066J156305D01*
G01*
X42201400Y-27156753D02*
G75*
G02*
X42157465Y-27313054I-300000J3D01*
G01*
X42844745Y-28000334D02*
G75*
G02*
X42157466Y-27313055I-260505J426774D01*
G01*
X42844745Y-28000334D02*
G75*
G02*
X43001047Y-27956398I156305J-256066D01*
G01*
X45245334Y-27313055D02*
G75*
G02*
X44558055Y-28000334I-426776J-260503D01*
G01*
X44401753Y-27956400D02*
G75*
G02*
X44558068Y-28000313I47J-300000D01*
G01*
%TO.C,D49*%
X38328600Y-24589000D02*
X37628247Y-24589000D01*
X38328600Y-24589000D02*
X39028953Y-24589000D01*
X36828600Y-26289000D02*
X36828600Y-25388647D01*
X36828600Y-26289000D02*
X36828600Y-27189353D01*
X39828600Y-26289000D02*
X39828600Y-25388647D01*
X39828600Y-26289000D02*
X39828600Y-27189353D01*
X38328600Y-27989000D02*
X37628247Y-27989000D01*
X38328600Y-27989000D02*
X39028953Y-27989000D01*
X37628247Y-24589000D02*
G75*
G02*
X37471945Y-24545066I-1J299999D01*
G01*
X36784666Y-25232345D02*
G75*
G02*
X37471945Y-24545066I426776J260503D01*
G01*
X39185255Y-24545066D02*
G75*
G02*
X39028953Y-24589000I-156301J256065D01*
G01*
X39185255Y-24545066D02*
G75*
G02*
X39872534Y-25232345I260503J-426776D01*
G01*
X39828600Y-25388647D02*
G75*
G02*
X39872534Y-25232345I299999J1D01*
G01*
X36784666Y-25232345D02*
G75*
G02*
X36828600Y-25388647I-256065J-156301D01*
G01*
X39872534Y-27345655D02*
G75*
G02*
X39828598Y-27189353I256066J156305D01*
G01*
X36828600Y-27189353D02*
G75*
G02*
X36784665Y-27345654I-300000J3D01*
G01*
X37471945Y-28032934D02*
G75*
G02*
X36784666Y-27345655I-260505J426774D01*
G01*
X37471945Y-28032934D02*
G75*
G02*
X37628247Y-27988998I156305J-256066D01*
G01*
X39872534Y-27345655D02*
G75*
G02*
X39185255Y-28032934I-426776J-260503D01*
G01*
X39028953Y-27989000D02*
G75*
G02*
X39185268Y-28032913I47J-300000D01*
G01*
%TO.C,D48*%
X32816800Y-24589000D02*
X32116447Y-24589000D01*
X32816800Y-24589000D02*
X33517153Y-24589000D01*
X31316800Y-26289000D02*
X31316800Y-25388647D01*
X31316800Y-26289000D02*
X31316800Y-27189353D01*
X34316800Y-26289000D02*
X34316800Y-25388647D01*
X34316800Y-26289000D02*
X34316800Y-27189353D01*
X32816800Y-27989000D02*
X32116447Y-27989000D01*
X32816800Y-27989000D02*
X33517153Y-27989000D01*
X32116447Y-24589000D02*
G75*
G02*
X31960145Y-24545066I-1J299999D01*
G01*
X31272866Y-25232345D02*
G75*
G02*
X31960145Y-24545066I426776J260503D01*
G01*
X33673455Y-24545066D02*
G75*
G02*
X33517153Y-24589000I-156301J256065D01*
G01*
X33673455Y-24545066D02*
G75*
G02*
X34360734Y-25232345I260503J-426776D01*
G01*
X34316800Y-25388647D02*
G75*
G02*
X34360734Y-25232345I299999J1D01*
G01*
X31272866Y-25232345D02*
G75*
G02*
X31316800Y-25388647I-256065J-156301D01*
G01*
X34360734Y-27345655D02*
G75*
G02*
X34316798Y-27189353I256066J156305D01*
G01*
X31316800Y-27189353D02*
G75*
G02*
X31272865Y-27345654I-300000J3D01*
G01*
X31960145Y-28032934D02*
G75*
G02*
X31272866Y-27345655I-260505J426774D01*
G01*
X31960145Y-28032934D02*
G75*
G02*
X32116447Y-27988998I156305J-256066D01*
G01*
X34360734Y-27345655D02*
G75*
G02*
X33673455Y-28032934I-426776J-260503D01*
G01*
X33517153Y-27989000D02*
G75*
G02*
X33673468Y-28032913I47J-300000D01*
G01*
%TO.C,D47*%
X93473800Y-109067600D02*
X93473800Y-109767953D01*
X93473800Y-109067600D02*
X93473800Y-108367247D01*
X95173800Y-110567600D02*
X94273447Y-110567600D01*
X95173800Y-110567600D02*
X96074153Y-110567600D01*
X95173800Y-107567600D02*
X94273447Y-107567600D01*
X95173800Y-107567600D02*
X96074153Y-107567600D01*
X96873800Y-109067600D02*
X96873800Y-109767953D01*
X96873800Y-109067600D02*
X96873800Y-108367247D01*
X93473800Y-109767953D02*
G75*
G02*
X93429866Y-109924255I-299999J-1D01*
G01*
X94117145Y-110611534D02*
G75*
G02*
X93429866Y-109924255I-260503J426776D01*
G01*
X93429866Y-108210945D02*
G75*
G02*
X93473800Y-108367247I-256065J-156301D01*
G01*
X93429866Y-108210945D02*
G75*
G02*
X94117145Y-107523666I426776J260503D01*
G01*
X94273447Y-107567600D02*
G75*
G02*
X94117145Y-107523666I-1J299999D01*
G01*
X94117145Y-110611534D02*
G75*
G02*
X94273447Y-110567600I156301J-256065D01*
G01*
X96230455Y-107523666D02*
G75*
G02*
X96074153Y-107567602I-156305J256066D01*
G01*
X96074153Y-110567600D02*
G75*
G02*
X96230454Y-110611535I-3J-300000D01*
G01*
X96917734Y-109924255D02*
G75*
G02*
X96230455Y-110611534I-426774J-260505D01*
G01*
X96917734Y-109924255D02*
G75*
G02*
X96873798Y-109767953I256066J156305D01*
G01*
X96230455Y-107523666D02*
G75*
G02*
X96917734Y-108210945I260503J-426776D01*
G01*
X96873800Y-108367247D02*
G75*
G02*
X96917713Y-108210932I300000J47D01*
G01*
%TO.C,D46*%
X74474600Y-118592600D02*
X74474600Y-119292953D01*
X74474600Y-118592600D02*
X74474600Y-117892247D01*
X76174600Y-120092600D02*
X75274247Y-120092600D01*
X76174600Y-120092600D02*
X77074953Y-120092600D01*
X76174600Y-117092600D02*
X75274247Y-117092600D01*
X76174600Y-117092600D02*
X77074953Y-117092600D01*
X77874600Y-118592600D02*
X77874600Y-119292953D01*
X77874600Y-118592600D02*
X77874600Y-117892247D01*
X74474600Y-119292953D02*
G75*
G02*
X74430666Y-119449255I-299999J-1D01*
G01*
X75117945Y-120136534D02*
G75*
G02*
X74430666Y-119449255I-260503J426776D01*
G01*
X74430666Y-117735945D02*
G75*
G02*
X74474600Y-117892247I-256065J-156301D01*
G01*
X74430666Y-117735945D02*
G75*
G02*
X75117945Y-117048666I426776J260503D01*
G01*
X75274247Y-117092600D02*
G75*
G02*
X75117945Y-117048666I-1J299999D01*
G01*
X75117945Y-120136534D02*
G75*
G02*
X75274247Y-120092600I156301J-256065D01*
G01*
X77231255Y-117048666D02*
G75*
G02*
X77074953Y-117092602I-156305J256066D01*
G01*
X77074953Y-120092600D02*
G75*
G02*
X77231254Y-120136535I-3J-300000D01*
G01*
X77918534Y-119449255D02*
G75*
G02*
X77231255Y-120136534I-426774J-260505D01*
G01*
X77918534Y-119449255D02*
G75*
G02*
X77874598Y-119292953I256066J156305D01*
G01*
X77231255Y-117048666D02*
G75*
G02*
X77918534Y-117735945I260503J-426776D01*
G01*
X77874600Y-117892247D02*
G75*
G02*
X77918513Y-117735932I300000J47D01*
G01*
%TO.C,D45*%
X46001200Y-118770400D02*
X46001200Y-119470753D01*
X46001200Y-118770400D02*
X46001200Y-118070047D01*
X47701200Y-120270400D02*
X46800847Y-120270400D01*
X47701200Y-120270400D02*
X48601553Y-120270400D01*
X47701200Y-117270400D02*
X46800847Y-117270400D01*
X47701200Y-117270400D02*
X48601553Y-117270400D01*
X49401200Y-118770400D02*
X49401200Y-119470753D01*
X49401200Y-118770400D02*
X49401200Y-118070047D01*
X46001200Y-119470753D02*
G75*
G02*
X45957266Y-119627055I-299999J-1D01*
G01*
X46644545Y-120314334D02*
G75*
G02*
X45957266Y-119627055I-260503J426776D01*
G01*
X45957266Y-117913745D02*
G75*
G02*
X46001200Y-118070047I-256065J-156301D01*
G01*
X45957266Y-117913745D02*
G75*
G02*
X46644545Y-117226466I426776J260503D01*
G01*
X46800847Y-117270400D02*
G75*
G02*
X46644545Y-117226466I-1J299999D01*
G01*
X46644545Y-120314334D02*
G75*
G02*
X46800847Y-120270400I156301J-256065D01*
G01*
X48757855Y-117226466D02*
G75*
G02*
X48601553Y-117270402I-156305J256066D01*
G01*
X48601553Y-120270400D02*
G75*
G02*
X48757854Y-120314335I-3J-300000D01*
G01*
X49445134Y-119627055D02*
G75*
G02*
X48757855Y-120314334I-426774J-260505D01*
G01*
X49445134Y-119627055D02*
G75*
G02*
X49401198Y-119470753I256066J156305D01*
G01*
X48757855Y-117226466D02*
G75*
G02*
X49445134Y-117913745I260503J-426776D01*
G01*
X49401200Y-118070047D02*
G75*
G02*
X49445113Y-117913732I300000J47D01*
G01*
%TO.C,D44*%
X74627000Y-99999800D02*
X74627000Y-100700153D01*
X74627000Y-99999800D02*
X74627000Y-99299447D01*
X76327000Y-101499800D02*
X75426647Y-101499800D01*
X76327000Y-101499800D02*
X77227353Y-101499800D01*
X76327000Y-98499800D02*
X75426647Y-98499800D01*
X76327000Y-98499800D02*
X77227353Y-98499800D01*
X78027000Y-99999800D02*
X78027000Y-100700153D01*
X78027000Y-99999800D02*
X78027000Y-99299447D01*
X74627000Y-100700153D02*
G75*
G02*
X74583066Y-100856455I-299999J-1D01*
G01*
X75270345Y-101543734D02*
G75*
G02*
X74583066Y-100856455I-260503J426776D01*
G01*
X74583066Y-99143145D02*
G75*
G02*
X74627000Y-99299447I-256065J-156301D01*
G01*
X74583066Y-99143145D02*
G75*
G02*
X75270345Y-98455866I426776J260503D01*
G01*
X75426647Y-98499800D02*
G75*
G02*
X75270345Y-98455866I-1J299999D01*
G01*
X75270345Y-101543734D02*
G75*
G02*
X75426647Y-101499800I156301J-256065D01*
G01*
X77383655Y-98455866D02*
G75*
G02*
X77227353Y-98499802I-156305J256066D01*
G01*
X77227353Y-101499800D02*
G75*
G02*
X77383654Y-101543735I-3J-300000D01*
G01*
X78070934Y-100856455D02*
G75*
G02*
X77383655Y-101543734I-426774J-260505D01*
G01*
X78070934Y-100856455D02*
G75*
G02*
X78026998Y-100700153I256066J156305D01*
G01*
X77383655Y-98455866D02*
G75*
G02*
X78070934Y-99143145I260503J-426776D01*
G01*
X78027000Y-99299447D02*
G75*
G02*
X78070913Y-99143132I300000J47D01*
G01*
%TO.C,D43*%
X55678600Y-99669600D02*
X55678600Y-100369953D01*
X55678600Y-99669600D02*
X55678600Y-98969247D01*
X57378600Y-101169600D02*
X56478247Y-101169600D01*
X57378600Y-101169600D02*
X58278953Y-101169600D01*
X57378600Y-98169600D02*
X56478247Y-98169600D01*
X57378600Y-98169600D02*
X58278953Y-98169600D01*
X59078600Y-99669600D02*
X59078600Y-100369953D01*
X59078600Y-99669600D02*
X59078600Y-98969247D01*
X55678600Y-100369953D02*
G75*
G02*
X55634666Y-100526255I-299999J-1D01*
G01*
X56321945Y-101213534D02*
G75*
G02*
X55634666Y-100526255I-260503J426776D01*
G01*
X55634666Y-98812945D02*
G75*
G02*
X55678600Y-98969247I-256065J-156301D01*
G01*
X55634666Y-98812945D02*
G75*
G02*
X56321945Y-98125666I426776J260503D01*
G01*
X56478247Y-98169600D02*
G75*
G02*
X56321945Y-98125666I-1J299999D01*
G01*
X56321945Y-101213534D02*
G75*
G02*
X56478247Y-101169600I156301J-256065D01*
G01*
X58435255Y-98125666D02*
G75*
G02*
X58278953Y-98169602I-156305J256066D01*
G01*
X58278953Y-101169600D02*
G75*
G02*
X58435254Y-101213535I-3J-300000D01*
G01*
X59122534Y-100526255D02*
G75*
G02*
X58435255Y-101213534I-426774J-260505D01*
G01*
X59122534Y-100526255D02*
G75*
G02*
X59078598Y-100369953I256066J156305D01*
G01*
X58435255Y-98125666D02*
G75*
G02*
X59122534Y-98812945I260503J-426776D01*
G01*
X59078600Y-98969247D02*
G75*
G02*
X59122513Y-98812932I300000J47D01*
G01*
%TO.C,D42*%
X36425400Y-99593400D02*
X36425400Y-100293753D01*
X36425400Y-99593400D02*
X36425400Y-98893047D01*
X38125400Y-101093400D02*
X37225047Y-101093400D01*
X38125400Y-101093400D02*
X39025753Y-101093400D01*
X38125400Y-98093400D02*
X37225047Y-98093400D01*
X38125400Y-98093400D02*
X39025753Y-98093400D01*
X39825400Y-99593400D02*
X39825400Y-100293753D01*
X39825400Y-99593400D02*
X39825400Y-98893047D01*
X36425400Y-100293753D02*
G75*
G02*
X36381466Y-100450055I-299999J-1D01*
G01*
X37068745Y-101137334D02*
G75*
G02*
X36381466Y-100450055I-260503J426776D01*
G01*
X36381466Y-98736745D02*
G75*
G02*
X36425400Y-98893047I-256065J-156301D01*
G01*
X36381466Y-98736745D02*
G75*
G02*
X37068745Y-98049466I426776J260503D01*
G01*
X37225047Y-98093400D02*
G75*
G02*
X37068745Y-98049466I-1J299999D01*
G01*
X37068745Y-101137334D02*
G75*
G02*
X37225047Y-101093400I156301J-256065D01*
G01*
X39182055Y-98049466D02*
G75*
G02*
X39025753Y-98093402I-156305J256066D01*
G01*
X39025753Y-101093400D02*
G75*
G02*
X39182054Y-101137335I-3J-300000D01*
G01*
X39869334Y-100450055D02*
G75*
G02*
X39182055Y-101137334I-426774J-260505D01*
G01*
X39869334Y-100450055D02*
G75*
G02*
X39825398Y-100293753I256066J156305D01*
G01*
X39182055Y-98049466D02*
G75*
G02*
X39869334Y-98736745I260503J-426776D01*
G01*
X39825400Y-98893047D02*
G75*
G02*
X39869313Y-98736732I300000J47D01*
G01*
%TO.C,D41*%
X93499200Y-70789800D02*
X93499200Y-71490153D01*
X93499200Y-70789800D02*
X93499200Y-70089447D01*
X95199200Y-72289800D02*
X94298847Y-72289800D01*
X95199200Y-72289800D02*
X96099553Y-72289800D01*
X95199200Y-69289800D02*
X94298847Y-69289800D01*
X95199200Y-69289800D02*
X96099553Y-69289800D01*
X96899200Y-70789800D02*
X96899200Y-71490153D01*
X96899200Y-70789800D02*
X96899200Y-70089447D01*
X93499200Y-71490153D02*
G75*
G02*
X93455266Y-71646455I-299999J-1D01*
G01*
X94142545Y-72333734D02*
G75*
G02*
X93455266Y-71646455I-260503J426776D01*
G01*
X93455266Y-69933145D02*
G75*
G02*
X93499200Y-70089447I-256065J-156301D01*
G01*
X93455266Y-69933145D02*
G75*
G02*
X94142545Y-69245866I426776J260503D01*
G01*
X94298847Y-69289800D02*
G75*
G02*
X94142545Y-69245866I-1J299999D01*
G01*
X94142545Y-72333734D02*
G75*
G02*
X94298847Y-72289800I156301J-256065D01*
G01*
X96255855Y-69245866D02*
G75*
G02*
X96099553Y-69289802I-156305J256066D01*
G01*
X96099553Y-72289800D02*
G75*
G02*
X96255854Y-72333735I-3J-300000D01*
G01*
X96943134Y-71646455D02*
G75*
G02*
X96255855Y-72333734I-426774J-260505D01*
G01*
X96943134Y-71646455D02*
G75*
G02*
X96899198Y-71490153I256066J156305D01*
G01*
X96255855Y-69245866D02*
G75*
G02*
X96943134Y-69933145I260503J-426776D01*
G01*
X96899200Y-70089447D02*
G75*
G02*
X96943113Y-69933132I300000J47D01*
G01*
%TO.C,D40*%
X74449200Y-80264000D02*
X74449200Y-80964353D01*
X74449200Y-80264000D02*
X74449200Y-79563647D01*
X76149200Y-81764000D02*
X75248847Y-81764000D01*
X76149200Y-81764000D02*
X77049553Y-81764000D01*
X76149200Y-78764000D02*
X75248847Y-78764000D01*
X76149200Y-78764000D02*
X77049553Y-78764000D01*
X77849200Y-80264000D02*
X77849200Y-80964353D01*
X77849200Y-80264000D02*
X77849200Y-79563647D01*
X74449200Y-80964353D02*
G75*
G02*
X74405266Y-81120655I-299999J-1D01*
G01*
X75092545Y-81807934D02*
G75*
G02*
X74405266Y-81120655I-260503J426776D01*
G01*
X74405266Y-79407345D02*
G75*
G02*
X74449200Y-79563647I-256065J-156301D01*
G01*
X74405266Y-79407345D02*
G75*
G02*
X75092545Y-78720066I426776J260503D01*
G01*
X75248847Y-78764000D02*
G75*
G02*
X75092545Y-78720066I-1J299999D01*
G01*
X75092545Y-81807934D02*
G75*
G02*
X75248847Y-81764000I156301J-256065D01*
G01*
X77205855Y-78720066D02*
G75*
G02*
X77049553Y-78764002I-156305J256066D01*
G01*
X77049553Y-81764000D02*
G75*
G02*
X77205854Y-81807935I-3J-300000D01*
G01*
X77893134Y-81120655D02*
G75*
G02*
X77205855Y-81807934I-426774J-260505D01*
G01*
X77893134Y-81120655D02*
G75*
G02*
X77849198Y-80964353I256066J156305D01*
G01*
X77205855Y-78720066D02*
G75*
G02*
X77893134Y-79407345I260503J-426776D01*
G01*
X77849200Y-79563647D02*
G75*
G02*
X77893113Y-79407332I300000J47D01*
G01*
%TO.C,D39*%
X55569800Y-80848200D02*
X55569800Y-81548553D01*
X55569800Y-80848200D02*
X55569800Y-80147847D01*
X57269800Y-82348200D02*
X56369447Y-82348200D01*
X57269800Y-82348200D02*
X58170153Y-82348200D01*
X57269800Y-79348200D02*
X56369447Y-79348200D01*
X57269800Y-79348200D02*
X58170153Y-79348200D01*
X58969800Y-80848200D02*
X58969800Y-81548553D01*
X58969800Y-80848200D02*
X58969800Y-80147847D01*
X55569800Y-81548553D02*
G75*
G02*
X55525866Y-81704855I-299999J-1D01*
G01*
X56213145Y-82392134D02*
G75*
G02*
X55525866Y-81704855I-260503J426776D01*
G01*
X55525866Y-79991545D02*
G75*
G02*
X55569800Y-80147847I-256065J-156301D01*
G01*
X55525866Y-79991545D02*
G75*
G02*
X56213145Y-79304266I426776J260503D01*
G01*
X56369447Y-79348200D02*
G75*
G02*
X56213145Y-79304266I-1J299999D01*
G01*
X56213145Y-82392134D02*
G75*
G02*
X56369447Y-82348200I156301J-256065D01*
G01*
X58326455Y-79304266D02*
G75*
G02*
X58170153Y-79348202I-156305J256066D01*
G01*
X58170153Y-82348200D02*
G75*
G02*
X58326454Y-82392135I-3J-300000D01*
G01*
X59013734Y-81704855D02*
G75*
G02*
X58326455Y-82392134I-426774J-260505D01*
G01*
X59013734Y-81704855D02*
G75*
G02*
X58969798Y-81548553I256066J156305D01*
G01*
X58326455Y-79304266D02*
G75*
G02*
X59013734Y-79991545I260503J-426776D01*
G01*
X58969800Y-80147847D02*
G75*
G02*
X59013713Y-79991532I300000J47D01*
G01*
%TO.C,D38*%
X36425400Y-80822800D02*
X36425400Y-81523153D01*
X36425400Y-80822800D02*
X36425400Y-80122447D01*
X38125400Y-82322800D02*
X37225047Y-82322800D01*
X38125400Y-82322800D02*
X39025753Y-82322800D01*
X38125400Y-79322800D02*
X37225047Y-79322800D01*
X38125400Y-79322800D02*
X39025753Y-79322800D01*
X39825400Y-80822800D02*
X39825400Y-81523153D01*
X39825400Y-80822800D02*
X39825400Y-80122447D01*
X36425400Y-81523153D02*
G75*
G02*
X36381466Y-81679455I-299999J-1D01*
G01*
X37068745Y-82366734D02*
G75*
G02*
X36381466Y-81679455I-260503J426776D01*
G01*
X36381466Y-79966145D02*
G75*
G02*
X36425400Y-80122447I-256065J-156301D01*
G01*
X36381466Y-79966145D02*
G75*
G02*
X37068745Y-79278866I426776J260503D01*
G01*
X37225047Y-79322800D02*
G75*
G02*
X37068745Y-79278866I-1J299999D01*
G01*
X37068745Y-82366734D02*
G75*
G02*
X37225047Y-82322800I156301J-256065D01*
G01*
X39182055Y-79278866D02*
G75*
G02*
X39025753Y-79322802I-156305J256066D01*
G01*
X39025753Y-82322800D02*
G75*
G02*
X39182054Y-82366735I-3J-300000D01*
G01*
X39869334Y-81679455D02*
G75*
G02*
X39182055Y-82366734I-426774J-260505D01*
G01*
X39869334Y-81679455D02*
G75*
G02*
X39825398Y-81523153I256066J156305D01*
G01*
X39182055Y-79278866D02*
G75*
G02*
X39869334Y-79966145I260503J-426776D01*
G01*
X39825400Y-80122447D02*
G75*
G02*
X39869313Y-79966132I300000J47D01*
G01*
%TO.C,D37*%
X74677800Y-61925200D02*
X74677800Y-62625553D01*
X74677800Y-61925200D02*
X74677800Y-61224847D01*
X76377800Y-63425200D02*
X75477447Y-63425200D01*
X76377800Y-63425200D02*
X77278153Y-63425200D01*
X76377800Y-60425200D02*
X75477447Y-60425200D01*
X76377800Y-60425200D02*
X77278153Y-60425200D01*
X78077800Y-61925200D02*
X78077800Y-62625553D01*
X78077800Y-61925200D02*
X78077800Y-61224847D01*
X74677800Y-62625553D02*
G75*
G02*
X74633866Y-62781855I-299999J-1D01*
G01*
X75321145Y-63469134D02*
G75*
G02*
X74633866Y-62781855I-260503J426776D01*
G01*
X74633866Y-61068545D02*
G75*
G02*
X74677800Y-61224847I-256065J-156301D01*
G01*
X74633866Y-61068545D02*
G75*
G02*
X75321145Y-60381266I426776J260503D01*
G01*
X75477447Y-60425200D02*
G75*
G02*
X75321145Y-60381266I-1J299999D01*
G01*
X75321145Y-63469134D02*
G75*
G02*
X75477447Y-63425200I156301J-256065D01*
G01*
X77434455Y-60381266D02*
G75*
G02*
X77278153Y-60425202I-156305J256066D01*
G01*
X77278153Y-63425200D02*
G75*
G02*
X77434454Y-63469135I-3J-300000D01*
G01*
X78121734Y-62781855D02*
G75*
G02*
X77434455Y-63469134I-426774J-260505D01*
G01*
X78121734Y-62781855D02*
G75*
G02*
X78077798Y-62625553I256066J156305D01*
G01*
X77434455Y-60381266D02*
G75*
G02*
X78121734Y-61068545I260503J-426776D01*
G01*
X78077800Y-61224847D02*
G75*
G02*
X78121713Y-61068532I300000J47D01*
G01*
%TO.C,D36*%
X55272200Y-61772800D02*
X55272200Y-62473153D01*
X55272200Y-61772800D02*
X55272200Y-61072447D01*
X56972200Y-63272800D02*
X56071847Y-63272800D01*
X56972200Y-63272800D02*
X57872553Y-63272800D01*
X56972200Y-60272800D02*
X56071847Y-60272800D01*
X56972200Y-60272800D02*
X57872553Y-60272800D01*
X58672200Y-61772800D02*
X58672200Y-62473153D01*
X58672200Y-61772800D02*
X58672200Y-61072447D01*
X55272200Y-62473153D02*
G75*
G02*
X55228266Y-62629455I-299999J-1D01*
G01*
X55915545Y-63316734D02*
G75*
G02*
X55228266Y-62629455I-260503J426776D01*
G01*
X55228266Y-60916145D02*
G75*
G02*
X55272200Y-61072447I-256065J-156301D01*
G01*
X55228266Y-60916145D02*
G75*
G02*
X55915545Y-60228866I426776J260503D01*
G01*
X56071847Y-60272800D02*
G75*
G02*
X55915545Y-60228866I-1J299999D01*
G01*
X55915545Y-63316734D02*
G75*
G02*
X56071847Y-63272800I156301J-256065D01*
G01*
X58028855Y-60228866D02*
G75*
G02*
X57872553Y-60272802I-156305J256066D01*
G01*
X57872553Y-63272800D02*
G75*
G02*
X58028854Y-63316735I-3J-300000D01*
G01*
X58716134Y-62629455D02*
G75*
G02*
X58028855Y-63316734I-426774J-260505D01*
G01*
X58716134Y-62629455D02*
G75*
G02*
X58672198Y-62473153I256066J156305D01*
G01*
X58028855Y-60228866D02*
G75*
G02*
X58716134Y-60916145I260503J-426776D01*
G01*
X58672200Y-61072447D02*
G75*
G02*
X58716113Y-60916132I300000J47D01*
G01*
%TO.C,D35*%
X36222200Y-61722000D02*
X36222200Y-62422353D01*
X36222200Y-61722000D02*
X36222200Y-61021647D01*
X37922200Y-63222000D02*
X37021847Y-63222000D01*
X37922200Y-63222000D02*
X38822553Y-63222000D01*
X37922200Y-60222000D02*
X37021847Y-60222000D01*
X37922200Y-60222000D02*
X38822553Y-60222000D01*
X39622200Y-61722000D02*
X39622200Y-62422353D01*
X39622200Y-61722000D02*
X39622200Y-61021647D01*
X36222200Y-62422353D02*
G75*
G02*
X36178266Y-62578655I-299999J-1D01*
G01*
X36865545Y-63265934D02*
G75*
G02*
X36178266Y-62578655I-260503J426776D01*
G01*
X36178266Y-60865345D02*
G75*
G02*
X36222200Y-61021647I-256065J-156301D01*
G01*
X36178266Y-60865345D02*
G75*
G02*
X36865545Y-60178066I426776J260503D01*
G01*
X37021847Y-60222000D02*
G75*
G02*
X36865545Y-60178066I-1J299999D01*
G01*
X36865545Y-63265934D02*
G75*
G02*
X37021847Y-63222000I156301J-256065D01*
G01*
X38978855Y-60178066D02*
G75*
G02*
X38822553Y-60222002I-156305J256066D01*
G01*
X38822553Y-63222000D02*
G75*
G02*
X38978854Y-63265935I-3J-300000D01*
G01*
X39666134Y-62578655D02*
G75*
G02*
X38978855Y-63265934I-426774J-260505D01*
G01*
X39666134Y-62578655D02*
G75*
G02*
X39622198Y-62422353I256066J156305D01*
G01*
X38978855Y-60178066D02*
G75*
G02*
X39666134Y-60865345I260503J-426776D01*
G01*
X39622200Y-61021647D02*
G75*
G02*
X39666113Y-60865332I300000J47D01*
G01*
%TO.C,D34*%
X93626200Y-42748200D02*
X93626200Y-43448553D01*
X93626200Y-42748200D02*
X93626200Y-42047847D01*
X95326200Y-44248200D02*
X94425847Y-44248200D01*
X95326200Y-44248200D02*
X96226553Y-44248200D01*
X95326200Y-41248200D02*
X94425847Y-41248200D01*
X95326200Y-41248200D02*
X96226553Y-41248200D01*
X97026200Y-42748200D02*
X97026200Y-43448553D01*
X97026200Y-42748200D02*
X97026200Y-42047847D01*
X93626200Y-43448553D02*
G75*
G02*
X93582266Y-43604855I-299999J-1D01*
G01*
X94269545Y-44292134D02*
G75*
G02*
X93582266Y-43604855I-260503J426776D01*
G01*
X93582266Y-41891545D02*
G75*
G02*
X93626200Y-42047847I-256065J-156301D01*
G01*
X93582266Y-41891545D02*
G75*
G02*
X94269545Y-41204266I426776J260503D01*
G01*
X94425847Y-41248200D02*
G75*
G02*
X94269545Y-41204266I-1J299999D01*
G01*
X94269545Y-44292134D02*
G75*
G02*
X94425847Y-44248200I156301J-256065D01*
G01*
X96382855Y-41204266D02*
G75*
G02*
X96226553Y-41248202I-156305J256066D01*
G01*
X96226553Y-44248200D02*
G75*
G02*
X96382854Y-44292135I-3J-300000D01*
G01*
X97070134Y-43604855D02*
G75*
G02*
X96382855Y-44292134I-426774J-260505D01*
G01*
X97070134Y-43604855D02*
G75*
G02*
X97026198Y-43448553I256066J156305D01*
G01*
X96382855Y-41204266D02*
G75*
G02*
X97070134Y-41891545I260503J-426776D01*
G01*
X97026200Y-42047847D02*
G75*
G02*
X97070113Y-41891532I300000J47D01*
G01*
%TO.C,D33*%
X74728600Y-42621200D02*
X74728600Y-43321553D01*
X74728600Y-42621200D02*
X74728600Y-41920847D01*
X76428600Y-44121200D02*
X75528247Y-44121200D01*
X76428600Y-44121200D02*
X77328953Y-44121200D01*
X76428600Y-41121200D02*
X75528247Y-41121200D01*
X76428600Y-41121200D02*
X77328953Y-41121200D01*
X78128600Y-42621200D02*
X78128600Y-43321553D01*
X78128600Y-42621200D02*
X78128600Y-41920847D01*
X74728600Y-43321553D02*
G75*
G02*
X74684666Y-43477855I-299999J-1D01*
G01*
X75371945Y-44165134D02*
G75*
G02*
X74684666Y-43477855I-260503J426776D01*
G01*
X74684666Y-41764545D02*
G75*
G02*
X74728600Y-41920847I-256065J-156301D01*
G01*
X74684666Y-41764545D02*
G75*
G02*
X75371945Y-41077266I426776J260503D01*
G01*
X75528247Y-41121200D02*
G75*
G02*
X75371945Y-41077266I-1J299999D01*
G01*
X75371945Y-44165134D02*
G75*
G02*
X75528247Y-44121200I156301J-256065D01*
G01*
X77485255Y-41077266D02*
G75*
G02*
X77328953Y-41121202I-156305J256066D01*
G01*
X77328953Y-44121200D02*
G75*
G02*
X77485254Y-44165135I-3J-300000D01*
G01*
X78172534Y-43477855D02*
G75*
G02*
X77485255Y-44165134I-426774J-260505D01*
G01*
X78172534Y-43477855D02*
G75*
G02*
X78128598Y-43321553I256066J156305D01*
G01*
X77485255Y-41077266D02*
G75*
G02*
X78172534Y-41764545I260503J-426776D01*
G01*
X78128600Y-41920847D02*
G75*
G02*
X78172513Y-41764532I300000J47D01*
G01*
%TO.C,D32*%
X55500800Y-42595800D02*
X55500800Y-43296153D01*
X55500800Y-42595800D02*
X55500800Y-41895447D01*
X57200800Y-44095800D02*
X56300447Y-44095800D01*
X57200800Y-44095800D02*
X58101153Y-44095800D01*
X57200800Y-41095800D02*
X56300447Y-41095800D01*
X57200800Y-41095800D02*
X58101153Y-41095800D01*
X58900800Y-42595800D02*
X58900800Y-43296153D01*
X58900800Y-42595800D02*
X58900800Y-41895447D01*
X55500800Y-43296153D02*
G75*
G02*
X55456866Y-43452455I-299999J-1D01*
G01*
X56144145Y-44139734D02*
G75*
G02*
X55456866Y-43452455I-260503J426776D01*
G01*
X55456866Y-41739145D02*
G75*
G02*
X55500800Y-41895447I-256065J-156301D01*
G01*
X55456866Y-41739145D02*
G75*
G02*
X56144145Y-41051866I426776J260503D01*
G01*
X56300447Y-41095800D02*
G75*
G02*
X56144145Y-41051866I-1J299999D01*
G01*
X56144145Y-44139734D02*
G75*
G02*
X56300447Y-44095800I156301J-256065D01*
G01*
X58257455Y-41051866D02*
G75*
G02*
X58101153Y-41095802I-156305J256066D01*
G01*
X58101153Y-44095800D02*
G75*
G02*
X58257454Y-44139735I-3J-300000D01*
G01*
X58944734Y-43452455D02*
G75*
G02*
X58257455Y-44139734I-426774J-260505D01*
G01*
X58944734Y-43452455D02*
G75*
G02*
X58900798Y-43296153I256066J156305D01*
G01*
X58257455Y-41051866D02*
G75*
G02*
X58944734Y-41739145I260503J-426776D01*
G01*
X58900800Y-41895447D02*
G75*
G02*
X58944713Y-41739132I300000J47D01*
G01*
%TO.C,D31*%
X36323800Y-42748200D02*
X36323800Y-43448553D01*
X36323800Y-42748200D02*
X36323800Y-42047847D01*
X38023800Y-44248200D02*
X37123447Y-44248200D01*
X38023800Y-44248200D02*
X38924153Y-44248200D01*
X38023800Y-41248200D02*
X37123447Y-41248200D01*
X38023800Y-41248200D02*
X38924153Y-41248200D01*
X39723800Y-42748200D02*
X39723800Y-43448553D01*
X39723800Y-42748200D02*
X39723800Y-42047847D01*
X36323800Y-43448553D02*
G75*
G02*
X36279866Y-43604855I-299999J-1D01*
G01*
X36967145Y-44292134D02*
G75*
G02*
X36279866Y-43604855I-260503J426776D01*
G01*
X36279866Y-41891545D02*
G75*
G02*
X36323800Y-42047847I-256065J-156301D01*
G01*
X36279866Y-41891545D02*
G75*
G02*
X36967145Y-41204266I426776J260503D01*
G01*
X37123447Y-41248200D02*
G75*
G02*
X36967145Y-41204266I-1J299999D01*
G01*
X36967145Y-44292134D02*
G75*
G02*
X37123447Y-44248200I156301J-256065D01*
G01*
X39080455Y-41204266D02*
G75*
G02*
X38924153Y-41248202I-156305J256066D01*
G01*
X38924153Y-44248200D02*
G75*
G02*
X39080454Y-44292135I-3J-300000D01*
G01*
X39767734Y-43604855D02*
G75*
G02*
X39080455Y-44292134I-426774J-260505D01*
G01*
X39767734Y-43604855D02*
G75*
G02*
X39723798Y-43448553I256066J156305D01*
G01*
X39080455Y-41204266D02*
G75*
G02*
X39767734Y-41891545I260503J-426776D01*
G01*
X39723800Y-42047847D02*
G75*
G02*
X39767713Y-41891532I300000J47D01*
G01*
%TD*%
M02*
