%TF.GenerationSoftware,KiCad,Pcbnew,10.0.1*%
%TF.CreationDate,2026-06-17T14:42:31-07:00*%
%TF.ProjectId,MECHANICAL NUMPAD PCB WITH RP2040,4d454348-414e-4494-9341-4c204e554d50,rev?*%
%TF.SameCoordinates,Original*%
%TF.FileFunction,Legend,Bot*%
%TF.FilePolarity,Positive*%
%FSLAX46Y46*%
G04 Gerber Fmt 4.6, Leading zero omitted, Abs format (unit mm)*
G04 Created by KiCad (PCBNEW 10.0.1) date 2026-06-17 14:42:31*
%MOMM*%
%LPD*%
G01*
G04 APERTURE LIST*
%ADD10C,0.150000*%
%ADD11C,0.100000*%
%ADD12C,0.120000*%
%ADD13C,0.152400*%
%ADD14C,0.203200*%
%ADD15C,0.200000*%
G04 APERTURE END LIST*
D10*
X65174019Y-78985714D02*
X64174019Y-78985714D01*
X64174019Y-78985714D02*
X64174019Y-79223809D01*
X64174019Y-79223809D02*
X64221638Y-79366666D01*
X64221638Y-79366666D02*
X64316876Y-79461904D01*
X64316876Y-79461904D02*
X64412114Y-79509523D01*
X64412114Y-79509523D02*
X64602590Y-79557142D01*
X64602590Y-79557142D02*
X64745447Y-79557142D01*
X64745447Y-79557142D02*
X64935923Y-79509523D01*
X64935923Y-79509523D02*
X65031161Y-79461904D01*
X65031161Y-79461904D02*
X65126400Y-79366666D01*
X65126400Y-79366666D02*
X65174019Y-79223809D01*
X65174019Y-79223809D02*
X65174019Y-78985714D01*
X65174019Y-80509523D02*
X65174019Y-79938095D01*
X65174019Y-80223809D02*
X64174019Y-80223809D01*
X64174019Y-80223809D02*
X64316876Y-80128571D01*
X64316876Y-80128571D02*
X64412114Y-80033333D01*
X64412114Y-80033333D02*
X64459733Y-79938095D01*
X64174019Y-81128571D02*
X64174019Y-81223809D01*
X64174019Y-81223809D02*
X64221638Y-81319047D01*
X64221638Y-81319047D02*
X64269257Y-81366666D01*
X64269257Y-81366666D02*
X64364495Y-81414285D01*
X64364495Y-81414285D02*
X64554971Y-81461904D01*
X64554971Y-81461904D02*
X64793066Y-81461904D01*
X64793066Y-81461904D02*
X64983542Y-81414285D01*
X64983542Y-81414285D02*
X65078780Y-81366666D01*
X65078780Y-81366666D02*
X65126400Y-81319047D01*
X65126400Y-81319047D02*
X65174019Y-81223809D01*
X65174019Y-81223809D02*
X65174019Y-81128571D01*
X65174019Y-81128571D02*
X65126400Y-81033333D01*
X65126400Y-81033333D02*
X65078780Y-80985714D01*
X65078780Y-80985714D02*
X64983542Y-80938095D01*
X64983542Y-80938095D02*
X64793066Y-80890476D01*
X64793066Y-80890476D02*
X64554971Y-80890476D01*
X64554971Y-80890476D02*
X64364495Y-80938095D01*
X64364495Y-80938095D02*
X64269257Y-80985714D01*
X64269257Y-80985714D02*
X64221638Y-81033333D01*
X64221638Y-81033333D02*
X64174019Y-81128571D01*
X97129504Y-51359119D02*
X97129504Y-52168642D01*
X97129504Y-52168642D02*
X97081885Y-52263880D01*
X97081885Y-52263880D02*
X97034266Y-52311500D01*
X97034266Y-52311500D02*
X96939028Y-52359119D01*
X96939028Y-52359119D02*
X96748552Y-52359119D01*
X96748552Y-52359119D02*
X96653314Y-52311500D01*
X96653314Y-52311500D02*
X96605695Y-52263880D01*
X96605695Y-52263880D02*
X96558076Y-52168642D01*
X96558076Y-52168642D02*
X96558076Y-51359119D01*
X95558076Y-52359119D02*
X96129504Y-52359119D01*
X95843790Y-52359119D02*
X95843790Y-51359119D01*
X95843790Y-51359119D02*
X95939028Y-51501976D01*
X95939028Y-51501976D02*
X96034266Y-51597214D01*
X96034266Y-51597214D02*
X96129504Y-51644833D01*
X97112057Y-49443819D02*
X97445390Y-48967628D01*
X97683485Y-49443819D02*
X97683485Y-48443819D01*
X97683485Y-48443819D02*
X97302533Y-48443819D01*
X97302533Y-48443819D02*
X97207295Y-48491438D01*
X97207295Y-48491438D02*
X97159676Y-48539057D01*
X97159676Y-48539057D02*
X97112057Y-48634295D01*
X97112057Y-48634295D02*
X97112057Y-48777152D01*
X97112057Y-48777152D02*
X97159676Y-48872390D01*
X97159676Y-48872390D02*
X97207295Y-48920009D01*
X97207295Y-48920009D02*
X97302533Y-48967628D01*
X97302533Y-48967628D02*
X97683485Y-48967628D01*
X96159676Y-49443819D02*
X96731104Y-49443819D01*
X96445390Y-49443819D02*
X96445390Y-48443819D01*
X96445390Y-48443819D02*
X96540628Y-48586676D01*
X96540628Y-48586676D02*
X96635866Y-48681914D01*
X96635866Y-48681914D02*
X96731104Y-48729533D01*
X95826342Y-48443819D02*
X95207295Y-48443819D01*
X95207295Y-48443819D02*
X95540628Y-48824771D01*
X95540628Y-48824771D02*
X95397771Y-48824771D01*
X95397771Y-48824771D02*
X95302533Y-48872390D01*
X95302533Y-48872390D02*
X95254914Y-48920009D01*
X95254914Y-48920009D02*
X95207295Y-49015247D01*
X95207295Y-49015247D02*
X95207295Y-49253342D01*
X95207295Y-49253342D02*
X95254914Y-49348580D01*
X95254914Y-49348580D02*
X95302533Y-49396200D01*
X95302533Y-49396200D02*
X95397771Y-49443819D01*
X95397771Y-49443819D02*
X95683485Y-49443819D01*
X95683485Y-49443819D02*
X95778723Y-49396200D01*
X95778723Y-49396200D02*
X95826342Y-49348580D01*
X41556219Y-25042114D02*
X40556219Y-25042114D01*
X40556219Y-25042114D02*
X40556219Y-25280209D01*
X40556219Y-25280209D02*
X40603838Y-25423066D01*
X40603838Y-25423066D02*
X40699076Y-25518304D01*
X40699076Y-25518304D02*
X40794314Y-25565923D01*
X40794314Y-25565923D02*
X40984790Y-25613542D01*
X40984790Y-25613542D02*
X41127647Y-25613542D01*
X41127647Y-25613542D02*
X41318123Y-25565923D01*
X41318123Y-25565923D02*
X41413361Y-25518304D01*
X41413361Y-25518304D02*
X41508600Y-25423066D01*
X41508600Y-25423066D02*
X41556219Y-25280209D01*
X41556219Y-25280209D02*
X41556219Y-25042114D01*
X40556219Y-26518304D02*
X40556219Y-26042114D01*
X40556219Y-26042114D02*
X41032409Y-25994495D01*
X41032409Y-25994495D02*
X40984790Y-26042114D01*
X40984790Y-26042114D02*
X40937171Y-26137352D01*
X40937171Y-26137352D02*
X40937171Y-26375447D01*
X40937171Y-26375447D02*
X40984790Y-26470685D01*
X40984790Y-26470685D02*
X41032409Y-26518304D01*
X41032409Y-26518304D02*
X41127647Y-26565923D01*
X41127647Y-26565923D02*
X41365742Y-26565923D01*
X41365742Y-26565923D02*
X41460980Y-26518304D01*
X41460980Y-26518304D02*
X41508600Y-26470685D01*
X41508600Y-26470685D02*
X41556219Y-26375447D01*
X41556219Y-26375447D02*
X41556219Y-26137352D01*
X41556219Y-26137352D02*
X41508600Y-26042114D01*
X41508600Y-26042114D02*
X41460980Y-25994495D01*
X40556219Y-27184971D02*
X40556219Y-27280209D01*
X40556219Y-27280209D02*
X40603838Y-27375447D01*
X40603838Y-27375447D02*
X40651457Y-27423066D01*
X40651457Y-27423066D02*
X40746695Y-27470685D01*
X40746695Y-27470685D02*
X40937171Y-27518304D01*
X40937171Y-27518304D02*
X41175266Y-27518304D01*
X41175266Y-27518304D02*
X41365742Y-27470685D01*
X41365742Y-27470685D02*
X41460980Y-27423066D01*
X41460980Y-27423066D02*
X41508600Y-27375447D01*
X41508600Y-27375447D02*
X41556219Y-27280209D01*
X41556219Y-27280209D02*
X41556219Y-27184971D01*
X41556219Y-27184971D02*
X41508600Y-27089733D01*
X41508600Y-27089733D02*
X41460980Y-27042114D01*
X41460980Y-27042114D02*
X41365742Y-26994495D01*
X41365742Y-26994495D02*
X41175266Y-26946876D01*
X41175266Y-26946876D02*
X40937171Y-26946876D01*
X40937171Y-26946876D02*
X40746695Y-26994495D01*
X40746695Y-26994495D02*
X40651457Y-27042114D01*
X40651457Y-27042114D02*
X40603838Y-27089733D01*
X40603838Y-27089733D02*
X40556219Y-27184971D01*
X36183419Y-25074714D02*
X35183419Y-25074714D01*
X35183419Y-25074714D02*
X35183419Y-25312809D01*
X35183419Y-25312809D02*
X35231038Y-25455666D01*
X35231038Y-25455666D02*
X35326276Y-25550904D01*
X35326276Y-25550904D02*
X35421514Y-25598523D01*
X35421514Y-25598523D02*
X35611990Y-25646142D01*
X35611990Y-25646142D02*
X35754847Y-25646142D01*
X35754847Y-25646142D02*
X35945323Y-25598523D01*
X35945323Y-25598523D02*
X36040561Y-25550904D01*
X36040561Y-25550904D02*
X36135800Y-25455666D01*
X36135800Y-25455666D02*
X36183419Y-25312809D01*
X36183419Y-25312809D02*
X36183419Y-25074714D01*
X35516752Y-26503285D02*
X36183419Y-26503285D01*
X35135800Y-26265190D02*
X35850085Y-26027095D01*
X35850085Y-26027095D02*
X35850085Y-26646142D01*
X36183419Y-27074714D02*
X36183419Y-27265190D01*
X36183419Y-27265190D02*
X36135800Y-27360428D01*
X36135800Y-27360428D02*
X36088180Y-27408047D01*
X36088180Y-27408047D02*
X35945323Y-27503285D01*
X35945323Y-27503285D02*
X35754847Y-27550904D01*
X35754847Y-27550904D02*
X35373895Y-27550904D01*
X35373895Y-27550904D02*
X35278657Y-27503285D01*
X35278657Y-27503285D02*
X35231038Y-27455666D01*
X35231038Y-27455666D02*
X35183419Y-27360428D01*
X35183419Y-27360428D02*
X35183419Y-27169952D01*
X35183419Y-27169952D02*
X35231038Y-27074714D01*
X35231038Y-27074714D02*
X35278657Y-27027095D01*
X35278657Y-27027095D02*
X35373895Y-26979476D01*
X35373895Y-26979476D02*
X35611990Y-26979476D01*
X35611990Y-26979476D02*
X35707228Y-27027095D01*
X35707228Y-27027095D02*
X35754847Y-27074714D01*
X35754847Y-27074714D02*
X35802466Y-27169952D01*
X35802466Y-27169952D02*
X35802466Y-27360428D01*
X35802466Y-27360428D02*
X35754847Y-27455666D01*
X35754847Y-27455666D02*
X35707228Y-27503285D01*
X35707228Y-27503285D02*
X35611990Y-27550904D01*
X30671619Y-25074714D02*
X29671619Y-25074714D01*
X29671619Y-25074714D02*
X29671619Y-25312809D01*
X29671619Y-25312809D02*
X29719238Y-25455666D01*
X29719238Y-25455666D02*
X29814476Y-25550904D01*
X29814476Y-25550904D02*
X29909714Y-25598523D01*
X29909714Y-25598523D02*
X30100190Y-25646142D01*
X30100190Y-25646142D02*
X30243047Y-25646142D01*
X30243047Y-25646142D02*
X30433523Y-25598523D01*
X30433523Y-25598523D02*
X30528761Y-25550904D01*
X30528761Y-25550904D02*
X30624000Y-25455666D01*
X30624000Y-25455666D02*
X30671619Y-25312809D01*
X30671619Y-25312809D02*
X30671619Y-25074714D01*
X30004952Y-26503285D02*
X30671619Y-26503285D01*
X29624000Y-26265190D02*
X30338285Y-26027095D01*
X30338285Y-26027095D02*
X30338285Y-26646142D01*
X30100190Y-27169952D02*
X30052571Y-27074714D01*
X30052571Y-27074714D02*
X30004952Y-27027095D01*
X30004952Y-27027095D02*
X29909714Y-26979476D01*
X29909714Y-26979476D02*
X29862095Y-26979476D01*
X29862095Y-26979476D02*
X29766857Y-27027095D01*
X29766857Y-27027095D02*
X29719238Y-27074714D01*
X29719238Y-27074714D02*
X29671619Y-27169952D01*
X29671619Y-27169952D02*
X29671619Y-27360428D01*
X29671619Y-27360428D02*
X29719238Y-27455666D01*
X29719238Y-27455666D02*
X29766857Y-27503285D01*
X29766857Y-27503285D02*
X29862095Y-27550904D01*
X29862095Y-27550904D02*
X29909714Y-27550904D01*
X29909714Y-27550904D02*
X30004952Y-27503285D01*
X30004952Y-27503285D02*
X30052571Y-27455666D01*
X30052571Y-27455666D02*
X30100190Y-27360428D01*
X30100190Y-27360428D02*
X30100190Y-27169952D01*
X30100190Y-27169952D02*
X30147809Y-27074714D01*
X30147809Y-27074714D02*
X30195428Y-27027095D01*
X30195428Y-27027095D02*
X30290666Y-26979476D01*
X30290666Y-26979476D02*
X30481142Y-26979476D01*
X30481142Y-26979476D02*
X30576380Y-27027095D01*
X30576380Y-27027095D02*
X30624000Y-27074714D01*
X30624000Y-27074714D02*
X30671619Y-27169952D01*
X30671619Y-27169952D02*
X30671619Y-27360428D01*
X30671619Y-27360428D02*
X30624000Y-27455666D01*
X30624000Y-27455666D02*
X30576380Y-27503285D01*
X30576380Y-27503285D02*
X30481142Y-27550904D01*
X30481142Y-27550904D02*
X30290666Y-27550904D01*
X30290666Y-27550904D02*
X30195428Y-27503285D01*
X30195428Y-27503285D02*
X30147809Y-27455666D01*
X30147809Y-27455666D02*
X30100190Y-27360428D01*
X88676314Y-107876180D02*
X88676314Y-108876180D01*
X88676314Y-108876180D02*
X88914409Y-108876180D01*
X88914409Y-108876180D02*
X89057266Y-108828561D01*
X89057266Y-108828561D02*
X89152504Y-108733323D01*
X89152504Y-108733323D02*
X89200123Y-108638085D01*
X89200123Y-108638085D02*
X89247742Y-108447609D01*
X89247742Y-108447609D02*
X89247742Y-108304752D01*
X89247742Y-108304752D02*
X89200123Y-108114276D01*
X89200123Y-108114276D02*
X89152504Y-108019038D01*
X89152504Y-108019038D02*
X89057266Y-107923800D01*
X89057266Y-107923800D02*
X88914409Y-107876180D01*
X88914409Y-107876180D02*
X88676314Y-107876180D01*
X90104885Y-108542847D02*
X90104885Y-107876180D01*
X89866790Y-108923800D02*
X89628695Y-108209514D01*
X89628695Y-108209514D02*
X90247742Y-108209514D01*
X90533457Y-108876180D02*
X91200123Y-108876180D01*
X91200123Y-108876180D02*
X90771552Y-107876180D01*
X69727914Y-118213980D02*
X69727914Y-119213980D01*
X69727914Y-119213980D02*
X69966009Y-119213980D01*
X69966009Y-119213980D02*
X70108866Y-119166361D01*
X70108866Y-119166361D02*
X70204104Y-119071123D01*
X70204104Y-119071123D02*
X70251723Y-118975885D01*
X70251723Y-118975885D02*
X70299342Y-118785409D01*
X70299342Y-118785409D02*
X70299342Y-118642552D01*
X70299342Y-118642552D02*
X70251723Y-118452076D01*
X70251723Y-118452076D02*
X70204104Y-118356838D01*
X70204104Y-118356838D02*
X70108866Y-118261600D01*
X70108866Y-118261600D02*
X69966009Y-118213980D01*
X69966009Y-118213980D02*
X69727914Y-118213980D01*
X71156485Y-118880647D02*
X71156485Y-118213980D01*
X70918390Y-119261600D02*
X70680295Y-118547314D01*
X70680295Y-118547314D02*
X71299342Y-118547314D01*
X72108866Y-119213980D02*
X71918390Y-119213980D01*
X71918390Y-119213980D02*
X71823152Y-119166361D01*
X71823152Y-119166361D02*
X71775533Y-119118742D01*
X71775533Y-119118742D02*
X71680295Y-118975885D01*
X71680295Y-118975885D02*
X71632676Y-118785409D01*
X71632676Y-118785409D02*
X71632676Y-118404457D01*
X71632676Y-118404457D02*
X71680295Y-118309219D01*
X71680295Y-118309219D02*
X71727914Y-118261600D01*
X71727914Y-118261600D02*
X71823152Y-118213980D01*
X71823152Y-118213980D02*
X72013628Y-118213980D01*
X72013628Y-118213980D02*
X72108866Y-118261600D01*
X72108866Y-118261600D02*
X72156485Y-118309219D01*
X72156485Y-118309219D02*
X72204104Y-118404457D01*
X72204104Y-118404457D02*
X72204104Y-118642552D01*
X72204104Y-118642552D02*
X72156485Y-118737790D01*
X72156485Y-118737790D02*
X72108866Y-118785409D01*
X72108866Y-118785409D02*
X72013628Y-118833028D01*
X72013628Y-118833028D02*
X71823152Y-118833028D01*
X71823152Y-118833028D02*
X71727914Y-118785409D01*
X71727914Y-118785409D02*
X71680295Y-118737790D01*
X71680295Y-118737790D02*
X71632676Y-118642552D01*
X41000514Y-118239380D02*
X41000514Y-119239380D01*
X41000514Y-119239380D02*
X41238609Y-119239380D01*
X41238609Y-119239380D02*
X41381466Y-119191761D01*
X41381466Y-119191761D02*
X41476704Y-119096523D01*
X41476704Y-119096523D02*
X41524323Y-119001285D01*
X41524323Y-119001285D02*
X41571942Y-118810809D01*
X41571942Y-118810809D02*
X41571942Y-118667952D01*
X41571942Y-118667952D02*
X41524323Y-118477476D01*
X41524323Y-118477476D02*
X41476704Y-118382238D01*
X41476704Y-118382238D02*
X41381466Y-118287000D01*
X41381466Y-118287000D02*
X41238609Y-118239380D01*
X41238609Y-118239380D02*
X41000514Y-118239380D01*
X42429085Y-118906047D02*
X42429085Y-118239380D01*
X42190990Y-119287000D02*
X41952895Y-118572714D01*
X41952895Y-118572714D02*
X42571942Y-118572714D01*
X43429085Y-119239380D02*
X42952895Y-119239380D01*
X42952895Y-119239380D02*
X42905276Y-118763190D01*
X42905276Y-118763190D02*
X42952895Y-118810809D01*
X42952895Y-118810809D02*
X43048133Y-118858428D01*
X43048133Y-118858428D02*
X43286228Y-118858428D01*
X43286228Y-118858428D02*
X43381466Y-118810809D01*
X43381466Y-118810809D02*
X43429085Y-118763190D01*
X43429085Y-118763190D02*
X43476704Y-118667952D01*
X43476704Y-118667952D02*
X43476704Y-118429857D01*
X43476704Y-118429857D02*
X43429085Y-118334619D01*
X43429085Y-118334619D02*
X43381466Y-118287000D01*
X43381466Y-118287000D02*
X43286228Y-118239380D01*
X43286228Y-118239380D02*
X43048133Y-118239380D01*
X43048133Y-118239380D02*
X42952895Y-118287000D01*
X42952895Y-118287000D02*
X42905276Y-118334619D01*
X69778714Y-99417980D02*
X69778714Y-100417980D01*
X69778714Y-100417980D02*
X70016809Y-100417980D01*
X70016809Y-100417980D02*
X70159666Y-100370361D01*
X70159666Y-100370361D02*
X70254904Y-100275123D01*
X70254904Y-100275123D02*
X70302523Y-100179885D01*
X70302523Y-100179885D02*
X70350142Y-99989409D01*
X70350142Y-99989409D02*
X70350142Y-99846552D01*
X70350142Y-99846552D02*
X70302523Y-99656076D01*
X70302523Y-99656076D02*
X70254904Y-99560838D01*
X70254904Y-99560838D02*
X70159666Y-99465600D01*
X70159666Y-99465600D02*
X70016809Y-99417980D01*
X70016809Y-99417980D02*
X69778714Y-99417980D01*
X71207285Y-100084647D02*
X71207285Y-99417980D01*
X70969190Y-100465600D02*
X70731095Y-99751314D01*
X70731095Y-99751314D02*
X71350142Y-99751314D01*
X72159666Y-100084647D02*
X72159666Y-99417980D01*
X71921571Y-100465600D02*
X71683476Y-99751314D01*
X71683476Y-99751314D02*
X72302523Y-99751314D01*
X50830314Y-98986180D02*
X50830314Y-99986180D01*
X50830314Y-99986180D02*
X51068409Y-99986180D01*
X51068409Y-99986180D02*
X51211266Y-99938561D01*
X51211266Y-99938561D02*
X51306504Y-99843323D01*
X51306504Y-99843323D02*
X51354123Y-99748085D01*
X51354123Y-99748085D02*
X51401742Y-99557609D01*
X51401742Y-99557609D02*
X51401742Y-99414752D01*
X51401742Y-99414752D02*
X51354123Y-99224276D01*
X51354123Y-99224276D02*
X51306504Y-99129038D01*
X51306504Y-99129038D02*
X51211266Y-99033800D01*
X51211266Y-99033800D02*
X51068409Y-98986180D01*
X51068409Y-98986180D02*
X50830314Y-98986180D01*
X52258885Y-99652847D02*
X52258885Y-98986180D01*
X52020790Y-100033800D02*
X51782695Y-99319514D01*
X51782695Y-99319514D02*
X52401742Y-99319514D01*
X52687457Y-99986180D02*
X53306504Y-99986180D01*
X53306504Y-99986180D02*
X52973171Y-99605228D01*
X52973171Y-99605228D02*
X53116028Y-99605228D01*
X53116028Y-99605228D02*
X53211266Y-99557609D01*
X53211266Y-99557609D02*
X53258885Y-99509990D01*
X53258885Y-99509990D02*
X53306504Y-99414752D01*
X53306504Y-99414752D02*
X53306504Y-99176657D01*
X53306504Y-99176657D02*
X53258885Y-99081419D01*
X53258885Y-99081419D02*
X53211266Y-99033800D01*
X53211266Y-99033800D02*
X53116028Y-98986180D01*
X53116028Y-98986180D02*
X52830314Y-98986180D01*
X52830314Y-98986180D02*
X52735076Y-99033800D01*
X52735076Y-99033800D02*
X52687457Y-99081419D01*
X31653314Y-99214780D02*
X31653314Y-100214780D01*
X31653314Y-100214780D02*
X31891409Y-100214780D01*
X31891409Y-100214780D02*
X32034266Y-100167161D01*
X32034266Y-100167161D02*
X32129504Y-100071923D01*
X32129504Y-100071923D02*
X32177123Y-99976685D01*
X32177123Y-99976685D02*
X32224742Y-99786209D01*
X32224742Y-99786209D02*
X32224742Y-99643352D01*
X32224742Y-99643352D02*
X32177123Y-99452876D01*
X32177123Y-99452876D02*
X32129504Y-99357638D01*
X32129504Y-99357638D02*
X32034266Y-99262400D01*
X32034266Y-99262400D02*
X31891409Y-99214780D01*
X31891409Y-99214780D02*
X31653314Y-99214780D01*
X33081885Y-99881447D02*
X33081885Y-99214780D01*
X32843790Y-100262400D02*
X32605695Y-99548114D01*
X32605695Y-99548114D02*
X33224742Y-99548114D01*
X33558076Y-100119542D02*
X33605695Y-100167161D01*
X33605695Y-100167161D02*
X33700933Y-100214780D01*
X33700933Y-100214780D02*
X33939028Y-100214780D01*
X33939028Y-100214780D02*
X34034266Y-100167161D01*
X34034266Y-100167161D02*
X34081885Y-100119542D01*
X34081885Y-100119542D02*
X34129504Y-100024304D01*
X34129504Y-100024304D02*
X34129504Y-99929066D01*
X34129504Y-99929066D02*
X34081885Y-99786209D01*
X34081885Y-99786209D02*
X33510457Y-99214780D01*
X33510457Y-99214780D02*
X34129504Y-99214780D01*
X90860714Y-67591780D02*
X90860714Y-68591780D01*
X90860714Y-68591780D02*
X91098809Y-68591780D01*
X91098809Y-68591780D02*
X91241666Y-68544161D01*
X91241666Y-68544161D02*
X91336904Y-68448923D01*
X91336904Y-68448923D02*
X91384523Y-68353685D01*
X91384523Y-68353685D02*
X91432142Y-68163209D01*
X91432142Y-68163209D02*
X91432142Y-68020352D01*
X91432142Y-68020352D02*
X91384523Y-67829876D01*
X91384523Y-67829876D02*
X91336904Y-67734638D01*
X91336904Y-67734638D02*
X91241666Y-67639400D01*
X91241666Y-67639400D02*
X91098809Y-67591780D01*
X91098809Y-67591780D02*
X90860714Y-67591780D01*
X92289285Y-68258447D02*
X92289285Y-67591780D01*
X92051190Y-68639400D02*
X91813095Y-67925114D01*
X91813095Y-67925114D02*
X92432142Y-67925114D01*
X93336904Y-67591780D02*
X92765476Y-67591780D01*
X93051190Y-67591780D02*
X93051190Y-68591780D01*
X93051190Y-68591780D02*
X92955952Y-68448923D01*
X92955952Y-68448923D02*
X92860714Y-68353685D01*
X92860714Y-68353685D02*
X92765476Y-68306066D01*
X69753314Y-79783780D02*
X69753314Y-80783780D01*
X69753314Y-80783780D02*
X69991409Y-80783780D01*
X69991409Y-80783780D02*
X70134266Y-80736161D01*
X70134266Y-80736161D02*
X70229504Y-80640923D01*
X70229504Y-80640923D02*
X70277123Y-80545685D01*
X70277123Y-80545685D02*
X70324742Y-80355209D01*
X70324742Y-80355209D02*
X70324742Y-80212352D01*
X70324742Y-80212352D02*
X70277123Y-80021876D01*
X70277123Y-80021876D02*
X70229504Y-79926638D01*
X70229504Y-79926638D02*
X70134266Y-79831400D01*
X70134266Y-79831400D02*
X69991409Y-79783780D01*
X69991409Y-79783780D02*
X69753314Y-79783780D01*
X71181885Y-80450447D02*
X71181885Y-79783780D01*
X70943790Y-80831400D02*
X70705695Y-80117114D01*
X70705695Y-80117114D02*
X71324742Y-80117114D01*
X71896171Y-80783780D02*
X71991409Y-80783780D01*
X71991409Y-80783780D02*
X72086647Y-80736161D01*
X72086647Y-80736161D02*
X72134266Y-80688542D01*
X72134266Y-80688542D02*
X72181885Y-80593304D01*
X72181885Y-80593304D02*
X72229504Y-80402828D01*
X72229504Y-80402828D02*
X72229504Y-80164733D01*
X72229504Y-80164733D02*
X72181885Y-79974257D01*
X72181885Y-79974257D02*
X72134266Y-79879019D01*
X72134266Y-79879019D02*
X72086647Y-79831400D01*
X72086647Y-79831400D02*
X71991409Y-79783780D01*
X71991409Y-79783780D02*
X71896171Y-79783780D01*
X71896171Y-79783780D02*
X71800933Y-79831400D01*
X71800933Y-79831400D02*
X71753314Y-79879019D01*
X71753314Y-79879019D02*
X71705695Y-79974257D01*
X71705695Y-79974257D02*
X71658076Y-80164733D01*
X71658076Y-80164733D02*
X71658076Y-80402828D01*
X71658076Y-80402828D02*
X71705695Y-80593304D01*
X71705695Y-80593304D02*
X71753314Y-80688542D01*
X71753314Y-80688542D02*
X71800933Y-80736161D01*
X71800933Y-80736161D02*
X71896171Y-80783780D01*
X50576314Y-80215580D02*
X50576314Y-81215580D01*
X50576314Y-81215580D02*
X50814409Y-81215580D01*
X50814409Y-81215580D02*
X50957266Y-81167961D01*
X50957266Y-81167961D02*
X51052504Y-81072723D01*
X51052504Y-81072723D02*
X51100123Y-80977485D01*
X51100123Y-80977485D02*
X51147742Y-80787009D01*
X51147742Y-80787009D02*
X51147742Y-80644152D01*
X51147742Y-80644152D02*
X51100123Y-80453676D01*
X51100123Y-80453676D02*
X51052504Y-80358438D01*
X51052504Y-80358438D02*
X50957266Y-80263200D01*
X50957266Y-80263200D02*
X50814409Y-80215580D01*
X50814409Y-80215580D02*
X50576314Y-80215580D01*
X51481076Y-81215580D02*
X52100123Y-81215580D01*
X52100123Y-81215580D02*
X51766790Y-80834628D01*
X51766790Y-80834628D02*
X51909647Y-80834628D01*
X51909647Y-80834628D02*
X52004885Y-80787009D01*
X52004885Y-80787009D02*
X52052504Y-80739390D01*
X52052504Y-80739390D02*
X52100123Y-80644152D01*
X52100123Y-80644152D02*
X52100123Y-80406057D01*
X52100123Y-80406057D02*
X52052504Y-80310819D01*
X52052504Y-80310819D02*
X52004885Y-80263200D01*
X52004885Y-80263200D02*
X51909647Y-80215580D01*
X51909647Y-80215580D02*
X51623933Y-80215580D01*
X51623933Y-80215580D02*
X51528695Y-80263200D01*
X51528695Y-80263200D02*
X51481076Y-80310819D01*
X52576314Y-80215580D02*
X52766790Y-80215580D01*
X52766790Y-80215580D02*
X52862028Y-80263200D01*
X52862028Y-80263200D02*
X52909647Y-80310819D01*
X52909647Y-80310819D02*
X53004885Y-80453676D01*
X53004885Y-80453676D02*
X53052504Y-80644152D01*
X53052504Y-80644152D02*
X53052504Y-81025104D01*
X53052504Y-81025104D02*
X53004885Y-81120342D01*
X53004885Y-81120342D02*
X52957266Y-81167961D01*
X52957266Y-81167961D02*
X52862028Y-81215580D01*
X52862028Y-81215580D02*
X52671552Y-81215580D01*
X52671552Y-81215580D02*
X52576314Y-81167961D01*
X52576314Y-81167961D02*
X52528695Y-81120342D01*
X52528695Y-81120342D02*
X52481076Y-81025104D01*
X52481076Y-81025104D02*
X52481076Y-80787009D01*
X52481076Y-80787009D02*
X52528695Y-80691771D01*
X52528695Y-80691771D02*
X52576314Y-80644152D01*
X52576314Y-80644152D02*
X52671552Y-80596533D01*
X52671552Y-80596533D02*
X52862028Y-80596533D01*
X52862028Y-80596533D02*
X52957266Y-80644152D01*
X52957266Y-80644152D02*
X53004885Y-80691771D01*
X53004885Y-80691771D02*
X53052504Y-80787009D01*
X31704114Y-80418780D02*
X31704114Y-81418780D01*
X31704114Y-81418780D02*
X31942209Y-81418780D01*
X31942209Y-81418780D02*
X32085066Y-81371161D01*
X32085066Y-81371161D02*
X32180304Y-81275923D01*
X32180304Y-81275923D02*
X32227923Y-81180685D01*
X32227923Y-81180685D02*
X32275542Y-80990209D01*
X32275542Y-80990209D02*
X32275542Y-80847352D01*
X32275542Y-80847352D02*
X32227923Y-80656876D01*
X32227923Y-80656876D02*
X32180304Y-80561638D01*
X32180304Y-80561638D02*
X32085066Y-80466400D01*
X32085066Y-80466400D02*
X31942209Y-80418780D01*
X31942209Y-80418780D02*
X31704114Y-80418780D01*
X32608876Y-81418780D02*
X33227923Y-81418780D01*
X33227923Y-81418780D02*
X32894590Y-81037828D01*
X32894590Y-81037828D02*
X33037447Y-81037828D01*
X33037447Y-81037828D02*
X33132685Y-80990209D01*
X33132685Y-80990209D02*
X33180304Y-80942590D01*
X33180304Y-80942590D02*
X33227923Y-80847352D01*
X33227923Y-80847352D02*
X33227923Y-80609257D01*
X33227923Y-80609257D02*
X33180304Y-80514019D01*
X33180304Y-80514019D02*
X33132685Y-80466400D01*
X33132685Y-80466400D02*
X33037447Y-80418780D01*
X33037447Y-80418780D02*
X32751733Y-80418780D01*
X32751733Y-80418780D02*
X32656495Y-80466400D01*
X32656495Y-80466400D02*
X32608876Y-80514019D01*
X33799352Y-80990209D02*
X33704114Y-81037828D01*
X33704114Y-81037828D02*
X33656495Y-81085447D01*
X33656495Y-81085447D02*
X33608876Y-81180685D01*
X33608876Y-81180685D02*
X33608876Y-81228304D01*
X33608876Y-81228304D02*
X33656495Y-81323542D01*
X33656495Y-81323542D02*
X33704114Y-81371161D01*
X33704114Y-81371161D02*
X33799352Y-81418780D01*
X33799352Y-81418780D02*
X33989828Y-81418780D01*
X33989828Y-81418780D02*
X34085066Y-81371161D01*
X34085066Y-81371161D02*
X34132685Y-81323542D01*
X34132685Y-81323542D02*
X34180304Y-81228304D01*
X34180304Y-81228304D02*
X34180304Y-81180685D01*
X34180304Y-81180685D02*
X34132685Y-81085447D01*
X34132685Y-81085447D02*
X34085066Y-81037828D01*
X34085066Y-81037828D02*
X33989828Y-80990209D01*
X33989828Y-80990209D02*
X33799352Y-80990209D01*
X33799352Y-80990209D02*
X33704114Y-80942590D01*
X33704114Y-80942590D02*
X33656495Y-80894971D01*
X33656495Y-80894971D02*
X33608876Y-80799733D01*
X33608876Y-80799733D02*
X33608876Y-80609257D01*
X33608876Y-80609257D02*
X33656495Y-80514019D01*
X33656495Y-80514019D02*
X33704114Y-80466400D01*
X33704114Y-80466400D02*
X33799352Y-80418780D01*
X33799352Y-80418780D02*
X33989828Y-80418780D01*
X33989828Y-80418780D02*
X34085066Y-80466400D01*
X34085066Y-80466400D02*
X34132685Y-80514019D01*
X34132685Y-80514019D02*
X34180304Y-80609257D01*
X34180304Y-80609257D02*
X34180304Y-80799733D01*
X34180304Y-80799733D02*
X34132685Y-80894971D01*
X34132685Y-80894971D02*
X34085066Y-80942590D01*
X34085066Y-80942590D02*
X33989828Y-80990209D01*
X69905714Y-61241780D02*
X69905714Y-62241780D01*
X69905714Y-62241780D02*
X70143809Y-62241780D01*
X70143809Y-62241780D02*
X70286666Y-62194161D01*
X70286666Y-62194161D02*
X70381904Y-62098923D01*
X70381904Y-62098923D02*
X70429523Y-62003685D01*
X70429523Y-62003685D02*
X70477142Y-61813209D01*
X70477142Y-61813209D02*
X70477142Y-61670352D01*
X70477142Y-61670352D02*
X70429523Y-61479876D01*
X70429523Y-61479876D02*
X70381904Y-61384638D01*
X70381904Y-61384638D02*
X70286666Y-61289400D01*
X70286666Y-61289400D02*
X70143809Y-61241780D01*
X70143809Y-61241780D02*
X69905714Y-61241780D01*
X70810476Y-62241780D02*
X71429523Y-62241780D01*
X71429523Y-62241780D02*
X71096190Y-61860828D01*
X71096190Y-61860828D02*
X71239047Y-61860828D01*
X71239047Y-61860828D02*
X71334285Y-61813209D01*
X71334285Y-61813209D02*
X71381904Y-61765590D01*
X71381904Y-61765590D02*
X71429523Y-61670352D01*
X71429523Y-61670352D02*
X71429523Y-61432257D01*
X71429523Y-61432257D02*
X71381904Y-61337019D01*
X71381904Y-61337019D02*
X71334285Y-61289400D01*
X71334285Y-61289400D02*
X71239047Y-61241780D01*
X71239047Y-61241780D02*
X70953333Y-61241780D01*
X70953333Y-61241780D02*
X70858095Y-61289400D01*
X70858095Y-61289400D02*
X70810476Y-61337019D01*
X71762857Y-62241780D02*
X72429523Y-62241780D01*
X72429523Y-62241780D02*
X72000952Y-61241780D01*
X50576314Y-61190980D02*
X50576314Y-62190980D01*
X50576314Y-62190980D02*
X50814409Y-62190980D01*
X50814409Y-62190980D02*
X50957266Y-62143361D01*
X50957266Y-62143361D02*
X51052504Y-62048123D01*
X51052504Y-62048123D02*
X51100123Y-61952885D01*
X51100123Y-61952885D02*
X51147742Y-61762409D01*
X51147742Y-61762409D02*
X51147742Y-61619552D01*
X51147742Y-61619552D02*
X51100123Y-61429076D01*
X51100123Y-61429076D02*
X51052504Y-61333838D01*
X51052504Y-61333838D02*
X50957266Y-61238600D01*
X50957266Y-61238600D02*
X50814409Y-61190980D01*
X50814409Y-61190980D02*
X50576314Y-61190980D01*
X51481076Y-62190980D02*
X52100123Y-62190980D01*
X52100123Y-62190980D02*
X51766790Y-61810028D01*
X51766790Y-61810028D02*
X51909647Y-61810028D01*
X51909647Y-61810028D02*
X52004885Y-61762409D01*
X52004885Y-61762409D02*
X52052504Y-61714790D01*
X52052504Y-61714790D02*
X52100123Y-61619552D01*
X52100123Y-61619552D02*
X52100123Y-61381457D01*
X52100123Y-61381457D02*
X52052504Y-61286219D01*
X52052504Y-61286219D02*
X52004885Y-61238600D01*
X52004885Y-61238600D02*
X51909647Y-61190980D01*
X51909647Y-61190980D02*
X51623933Y-61190980D01*
X51623933Y-61190980D02*
X51528695Y-61238600D01*
X51528695Y-61238600D02*
X51481076Y-61286219D01*
X52957266Y-62190980D02*
X52766790Y-62190980D01*
X52766790Y-62190980D02*
X52671552Y-62143361D01*
X52671552Y-62143361D02*
X52623933Y-62095742D01*
X52623933Y-62095742D02*
X52528695Y-61952885D01*
X52528695Y-61952885D02*
X52481076Y-61762409D01*
X52481076Y-61762409D02*
X52481076Y-61381457D01*
X52481076Y-61381457D02*
X52528695Y-61286219D01*
X52528695Y-61286219D02*
X52576314Y-61238600D01*
X52576314Y-61238600D02*
X52671552Y-61190980D01*
X52671552Y-61190980D02*
X52862028Y-61190980D01*
X52862028Y-61190980D02*
X52957266Y-61238600D01*
X52957266Y-61238600D02*
X53004885Y-61286219D01*
X53004885Y-61286219D02*
X53052504Y-61381457D01*
X53052504Y-61381457D02*
X53052504Y-61619552D01*
X53052504Y-61619552D02*
X53004885Y-61714790D01*
X53004885Y-61714790D02*
X52957266Y-61762409D01*
X52957266Y-61762409D02*
X52862028Y-61810028D01*
X52862028Y-61810028D02*
X52671552Y-61810028D01*
X52671552Y-61810028D02*
X52576314Y-61762409D01*
X52576314Y-61762409D02*
X52528695Y-61714790D01*
X52528695Y-61714790D02*
X52481076Y-61619552D01*
X31551714Y-61241780D02*
X31551714Y-62241780D01*
X31551714Y-62241780D02*
X31789809Y-62241780D01*
X31789809Y-62241780D02*
X31932666Y-62194161D01*
X31932666Y-62194161D02*
X32027904Y-62098923D01*
X32027904Y-62098923D02*
X32075523Y-62003685D01*
X32075523Y-62003685D02*
X32123142Y-61813209D01*
X32123142Y-61813209D02*
X32123142Y-61670352D01*
X32123142Y-61670352D02*
X32075523Y-61479876D01*
X32075523Y-61479876D02*
X32027904Y-61384638D01*
X32027904Y-61384638D02*
X31932666Y-61289400D01*
X31932666Y-61289400D02*
X31789809Y-61241780D01*
X31789809Y-61241780D02*
X31551714Y-61241780D01*
X32456476Y-62241780D02*
X33075523Y-62241780D01*
X33075523Y-62241780D02*
X32742190Y-61860828D01*
X32742190Y-61860828D02*
X32885047Y-61860828D01*
X32885047Y-61860828D02*
X32980285Y-61813209D01*
X32980285Y-61813209D02*
X33027904Y-61765590D01*
X33027904Y-61765590D02*
X33075523Y-61670352D01*
X33075523Y-61670352D02*
X33075523Y-61432257D01*
X33075523Y-61432257D02*
X33027904Y-61337019D01*
X33027904Y-61337019D02*
X32980285Y-61289400D01*
X32980285Y-61289400D02*
X32885047Y-61241780D01*
X32885047Y-61241780D02*
X32599333Y-61241780D01*
X32599333Y-61241780D02*
X32504095Y-61289400D01*
X32504095Y-61289400D02*
X32456476Y-61337019D01*
X33980285Y-62241780D02*
X33504095Y-62241780D01*
X33504095Y-62241780D02*
X33456476Y-61765590D01*
X33456476Y-61765590D02*
X33504095Y-61813209D01*
X33504095Y-61813209D02*
X33599333Y-61860828D01*
X33599333Y-61860828D02*
X33837428Y-61860828D01*
X33837428Y-61860828D02*
X33932666Y-61813209D01*
X33932666Y-61813209D02*
X33980285Y-61765590D01*
X33980285Y-61765590D02*
X34027904Y-61670352D01*
X34027904Y-61670352D02*
X34027904Y-61432257D01*
X34027904Y-61432257D02*
X33980285Y-61337019D01*
X33980285Y-61337019D02*
X33932666Y-61289400D01*
X33932666Y-61289400D02*
X33837428Y-61241780D01*
X33837428Y-61241780D02*
X33599333Y-61241780D01*
X33599333Y-61241780D02*
X33504095Y-61289400D01*
X33504095Y-61289400D02*
X33456476Y-61337019D01*
X88676314Y-42191780D02*
X88676314Y-43191780D01*
X88676314Y-43191780D02*
X88914409Y-43191780D01*
X88914409Y-43191780D02*
X89057266Y-43144161D01*
X89057266Y-43144161D02*
X89152504Y-43048923D01*
X89152504Y-43048923D02*
X89200123Y-42953685D01*
X89200123Y-42953685D02*
X89247742Y-42763209D01*
X89247742Y-42763209D02*
X89247742Y-42620352D01*
X89247742Y-42620352D02*
X89200123Y-42429876D01*
X89200123Y-42429876D02*
X89152504Y-42334638D01*
X89152504Y-42334638D02*
X89057266Y-42239400D01*
X89057266Y-42239400D02*
X88914409Y-42191780D01*
X88914409Y-42191780D02*
X88676314Y-42191780D01*
X89581076Y-43191780D02*
X90200123Y-43191780D01*
X90200123Y-43191780D02*
X89866790Y-42810828D01*
X89866790Y-42810828D02*
X90009647Y-42810828D01*
X90009647Y-42810828D02*
X90104885Y-42763209D01*
X90104885Y-42763209D02*
X90152504Y-42715590D01*
X90152504Y-42715590D02*
X90200123Y-42620352D01*
X90200123Y-42620352D02*
X90200123Y-42382257D01*
X90200123Y-42382257D02*
X90152504Y-42287019D01*
X90152504Y-42287019D02*
X90104885Y-42239400D01*
X90104885Y-42239400D02*
X90009647Y-42191780D01*
X90009647Y-42191780D02*
X89723933Y-42191780D01*
X89723933Y-42191780D02*
X89628695Y-42239400D01*
X89628695Y-42239400D02*
X89581076Y-42287019D01*
X91057266Y-42858447D02*
X91057266Y-42191780D01*
X90819171Y-43239400D02*
X90581076Y-42525114D01*
X90581076Y-42525114D02*
X91200123Y-42525114D01*
X69702514Y-41709180D02*
X69702514Y-42709180D01*
X69702514Y-42709180D02*
X69940609Y-42709180D01*
X69940609Y-42709180D02*
X70083466Y-42661561D01*
X70083466Y-42661561D02*
X70178704Y-42566323D01*
X70178704Y-42566323D02*
X70226323Y-42471085D01*
X70226323Y-42471085D02*
X70273942Y-42280609D01*
X70273942Y-42280609D02*
X70273942Y-42137752D01*
X70273942Y-42137752D02*
X70226323Y-41947276D01*
X70226323Y-41947276D02*
X70178704Y-41852038D01*
X70178704Y-41852038D02*
X70083466Y-41756800D01*
X70083466Y-41756800D02*
X69940609Y-41709180D01*
X69940609Y-41709180D02*
X69702514Y-41709180D01*
X70607276Y-42709180D02*
X71226323Y-42709180D01*
X71226323Y-42709180D02*
X70892990Y-42328228D01*
X70892990Y-42328228D02*
X71035847Y-42328228D01*
X71035847Y-42328228D02*
X71131085Y-42280609D01*
X71131085Y-42280609D02*
X71178704Y-42232990D01*
X71178704Y-42232990D02*
X71226323Y-42137752D01*
X71226323Y-42137752D02*
X71226323Y-41899657D01*
X71226323Y-41899657D02*
X71178704Y-41804419D01*
X71178704Y-41804419D02*
X71131085Y-41756800D01*
X71131085Y-41756800D02*
X71035847Y-41709180D01*
X71035847Y-41709180D02*
X70750133Y-41709180D01*
X70750133Y-41709180D02*
X70654895Y-41756800D01*
X70654895Y-41756800D02*
X70607276Y-41804419D01*
X71559657Y-42709180D02*
X72178704Y-42709180D01*
X72178704Y-42709180D02*
X71845371Y-42328228D01*
X71845371Y-42328228D02*
X71988228Y-42328228D01*
X71988228Y-42328228D02*
X72083466Y-42280609D01*
X72083466Y-42280609D02*
X72131085Y-42232990D01*
X72131085Y-42232990D02*
X72178704Y-42137752D01*
X72178704Y-42137752D02*
X72178704Y-41899657D01*
X72178704Y-41899657D02*
X72131085Y-41804419D01*
X72131085Y-41804419D02*
X72083466Y-41756800D01*
X72083466Y-41756800D02*
X71988228Y-41709180D01*
X71988228Y-41709180D02*
X71702514Y-41709180D01*
X71702514Y-41709180D02*
X71607276Y-41756800D01*
X71607276Y-41756800D02*
X71559657Y-41804419D01*
X50677914Y-42166380D02*
X50677914Y-43166380D01*
X50677914Y-43166380D02*
X50916009Y-43166380D01*
X50916009Y-43166380D02*
X51058866Y-43118761D01*
X51058866Y-43118761D02*
X51154104Y-43023523D01*
X51154104Y-43023523D02*
X51201723Y-42928285D01*
X51201723Y-42928285D02*
X51249342Y-42737809D01*
X51249342Y-42737809D02*
X51249342Y-42594952D01*
X51249342Y-42594952D02*
X51201723Y-42404476D01*
X51201723Y-42404476D02*
X51154104Y-42309238D01*
X51154104Y-42309238D02*
X51058866Y-42214000D01*
X51058866Y-42214000D02*
X50916009Y-42166380D01*
X50916009Y-42166380D02*
X50677914Y-42166380D01*
X51582676Y-43166380D02*
X52201723Y-43166380D01*
X52201723Y-43166380D02*
X51868390Y-42785428D01*
X51868390Y-42785428D02*
X52011247Y-42785428D01*
X52011247Y-42785428D02*
X52106485Y-42737809D01*
X52106485Y-42737809D02*
X52154104Y-42690190D01*
X52154104Y-42690190D02*
X52201723Y-42594952D01*
X52201723Y-42594952D02*
X52201723Y-42356857D01*
X52201723Y-42356857D02*
X52154104Y-42261619D01*
X52154104Y-42261619D02*
X52106485Y-42214000D01*
X52106485Y-42214000D02*
X52011247Y-42166380D01*
X52011247Y-42166380D02*
X51725533Y-42166380D01*
X51725533Y-42166380D02*
X51630295Y-42214000D01*
X51630295Y-42214000D02*
X51582676Y-42261619D01*
X52582676Y-43071142D02*
X52630295Y-43118761D01*
X52630295Y-43118761D02*
X52725533Y-43166380D01*
X52725533Y-43166380D02*
X52963628Y-43166380D01*
X52963628Y-43166380D02*
X53058866Y-43118761D01*
X53058866Y-43118761D02*
X53106485Y-43071142D01*
X53106485Y-43071142D02*
X53154104Y-42975904D01*
X53154104Y-42975904D02*
X53154104Y-42880666D01*
X53154104Y-42880666D02*
X53106485Y-42737809D01*
X53106485Y-42737809D02*
X52535057Y-42166380D01*
X52535057Y-42166380D02*
X53154104Y-42166380D01*
X31678714Y-42318780D02*
X31678714Y-43318780D01*
X31678714Y-43318780D02*
X31916809Y-43318780D01*
X31916809Y-43318780D02*
X32059666Y-43271161D01*
X32059666Y-43271161D02*
X32154904Y-43175923D01*
X32154904Y-43175923D02*
X32202523Y-43080685D01*
X32202523Y-43080685D02*
X32250142Y-42890209D01*
X32250142Y-42890209D02*
X32250142Y-42747352D01*
X32250142Y-42747352D02*
X32202523Y-42556876D01*
X32202523Y-42556876D02*
X32154904Y-42461638D01*
X32154904Y-42461638D02*
X32059666Y-42366400D01*
X32059666Y-42366400D02*
X31916809Y-42318780D01*
X31916809Y-42318780D02*
X31678714Y-42318780D01*
X32583476Y-43318780D02*
X33202523Y-43318780D01*
X33202523Y-43318780D02*
X32869190Y-42937828D01*
X32869190Y-42937828D02*
X33012047Y-42937828D01*
X33012047Y-42937828D02*
X33107285Y-42890209D01*
X33107285Y-42890209D02*
X33154904Y-42842590D01*
X33154904Y-42842590D02*
X33202523Y-42747352D01*
X33202523Y-42747352D02*
X33202523Y-42509257D01*
X33202523Y-42509257D02*
X33154904Y-42414019D01*
X33154904Y-42414019D02*
X33107285Y-42366400D01*
X33107285Y-42366400D02*
X33012047Y-42318780D01*
X33012047Y-42318780D02*
X32726333Y-42318780D01*
X32726333Y-42318780D02*
X32631095Y-42366400D01*
X32631095Y-42366400D02*
X32583476Y-42414019D01*
X34154904Y-42318780D02*
X33583476Y-42318780D01*
X33869190Y-42318780D02*
X33869190Y-43318780D01*
X33869190Y-43318780D02*
X33773952Y-43175923D01*
X33773952Y-43175923D02*
X33678714Y-43080685D01*
X33678714Y-43080685D02*
X33583476Y-43033066D01*
X45666819Y-41361905D02*
X44666819Y-41361905D01*
X44666819Y-41361905D02*
X44666819Y-41600000D01*
X44666819Y-41600000D02*
X44714438Y-41742857D01*
X44714438Y-41742857D02*
X44809676Y-41838095D01*
X44809676Y-41838095D02*
X44904914Y-41885714D01*
X44904914Y-41885714D02*
X45095390Y-41933333D01*
X45095390Y-41933333D02*
X45238247Y-41933333D01*
X45238247Y-41933333D02*
X45428723Y-41885714D01*
X45428723Y-41885714D02*
X45523961Y-41838095D01*
X45523961Y-41838095D02*
X45619200Y-41742857D01*
X45619200Y-41742857D02*
X45666819Y-41600000D01*
X45666819Y-41600000D02*
X45666819Y-41361905D01*
X45666819Y-42885714D02*
X45666819Y-42314286D01*
X45666819Y-42600000D02*
X44666819Y-42600000D01*
X44666819Y-42600000D02*
X44809676Y-42504762D01*
X44809676Y-42504762D02*
X44904914Y-42409524D01*
X44904914Y-42409524D02*
X44952533Y-42314286D01*
X88564657Y-81555780D02*
X88612276Y-81603400D01*
X88612276Y-81603400D02*
X88755133Y-81651019D01*
X88755133Y-81651019D02*
X88850371Y-81651019D01*
X88850371Y-81651019D02*
X88993228Y-81603400D01*
X88993228Y-81603400D02*
X89088466Y-81508161D01*
X89088466Y-81508161D02*
X89136085Y-81412923D01*
X89136085Y-81412923D02*
X89183704Y-81222447D01*
X89183704Y-81222447D02*
X89183704Y-81079590D01*
X89183704Y-81079590D02*
X89136085Y-80889114D01*
X89136085Y-80889114D02*
X89088466Y-80793876D01*
X89088466Y-80793876D02*
X88993228Y-80698638D01*
X88993228Y-80698638D02*
X88850371Y-80651019D01*
X88850371Y-80651019D02*
X88755133Y-80651019D01*
X88755133Y-80651019D02*
X88612276Y-80698638D01*
X88612276Y-80698638D02*
X88564657Y-80746257D01*
X87612276Y-81651019D02*
X88183704Y-81651019D01*
X87897990Y-81651019D02*
X87897990Y-80651019D01*
X87897990Y-80651019D02*
X87993228Y-80793876D01*
X87993228Y-80793876D02*
X88088466Y-80889114D01*
X88088466Y-80889114D02*
X88183704Y-80936733D01*
X87278942Y-80651019D02*
X86612276Y-80651019D01*
X86612276Y-80651019D02*
X87040847Y-81651019D01*
X83868419Y-60411905D02*
X82868419Y-60411905D01*
X82868419Y-60411905D02*
X82868419Y-60650000D01*
X82868419Y-60650000D02*
X82916038Y-60792857D01*
X82916038Y-60792857D02*
X83011276Y-60888095D01*
X83011276Y-60888095D02*
X83106514Y-60935714D01*
X83106514Y-60935714D02*
X83296990Y-60983333D01*
X83296990Y-60983333D02*
X83439847Y-60983333D01*
X83439847Y-60983333D02*
X83630323Y-60935714D01*
X83630323Y-60935714D02*
X83725561Y-60888095D01*
X83725561Y-60888095D02*
X83820800Y-60792857D01*
X83820800Y-60792857D02*
X83868419Y-60650000D01*
X83868419Y-60650000D02*
X83868419Y-60411905D01*
X82868419Y-61316667D02*
X82868419Y-61983333D01*
X82868419Y-61983333D02*
X83868419Y-61554762D01*
X94296580Y-94880133D02*
X94344200Y-94832514D01*
X94344200Y-94832514D02*
X94391819Y-94689657D01*
X94391819Y-94689657D02*
X94391819Y-94594419D01*
X94391819Y-94594419D02*
X94344200Y-94451562D01*
X94344200Y-94451562D02*
X94248961Y-94356324D01*
X94248961Y-94356324D02*
X94153723Y-94308705D01*
X94153723Y-94308705D02*
X93963247Y-94261086D01*
X93963247Y-94261086D02*
X93820390Y-94261086D01*
X93820390Y-94261086D02*
X93629914Y-94308705D01*
X93629914Y-94308705D02*
X93534676Y-94356324D01*
X93534676Y-94356324D02*
X93439438Y-94451562D01*
X93439438Y-94451562D02*
X93391819Y-94594419D01*
X93391819Y-94594419D02*
X93391819Y-94689657D01*
X93391819Y-94689657D02*
X93439438Y-94832514D01*
X93439438Y-94832514D02*
X93487057Y-94880133D01*
X93391819Y-95213467D02*
X93391819Y-95880133D01*
X93391819Y-95880133D02*
X94391819Y-95451562D01*
X94618980Y-73499742D02*
X94666600Y-73452123D01*
X94666600Y-73452123D02*
X94714219Y-73309266D01*
X94714219Y-73309266D02*
X94714219Y-73214028D01*
X94714219Y-73214028D02*
X94666600Y-73071171D01*
X94666600Y-73071171D02*
X94571361Y-72975933D01*
X94571361Y-72975933D02*
X94476123Y-72928314D01*
X94476123Y-72928314D02*
X94285647Y-72880695D01*
X94285647Y-72880695D02*
X94142790Y-72880695D01*
X94142790Y-72880695D02*
X93952314Y-72928314D01*
X93952314Y-72928314D02*
X93857076Y-72975933D01*
X93857076Y-72975933D02*
X93761838Y-73071171D01*
X93761838Y-73071171D02*
X93714219Y-73214028D01*
X93714219Y-73214028D02*
X93714219Y-73309266D01*
X93714219Y-73309266D02*
X93761838Y-73452123D01*
X93761838Y-73452123D02*
X93809457Y-73499742D01*
X94714219Y-74452123D02*
X94714219Y-73880695D01*
X94714219Y-74166409D02*
X93714219Y-74166409D01*
X93714219Y-74166409D02*
X93857076Y-74071171D01*
X93857076Y-74071171D02*
X93952314Y-73975933D01*
X93952314Y-73975933D02*
X93999933Y-73880695D01*
X93714219Y-74785457D02*
X93714219Y-75404504D01*
X93714219Y-75404504D02*
X94095171Y-75071171D01*
X94095171Y-75071171D02*
X94095171Y-75214028D01*
X94095171Y-75214028D02*
X94142790Y-75309266D01*
X94142790Y-75309266D02*
X94190409Y-75356885D01*
X94190409Y-75356885D02*
X94285647Y-75404504D01*
X94285647Y-75404504D02*
X94523742Y-75404504D01*
X94523742Y-75404504D02*
X94618980Y-75356885D01*
X94618980Y-75356885D02*
X94666600Y-75309266D01*
X94666600Y-75309266D02*
X94714219Y-75214028D01*
X94714219Y-75214028D02*
X94714219Y-74928314D01*
X94714219Y-74928314D02*
X94666600Y-74833076D01*
X94666600Y-74833076D02*
X94618980Y-74785457D01*
X91164580Y-70299342D02*
X91212200Y-70251723D01*
X91212200Y-70251723D02*
X91259819Y-70108866D01*
X91259819Y-70108866D02*
X91259819Y-70013628D01*
X91259819Y-70013628D02*
X91212200Y-69870771D01*
X91212200Y-69870771D02*
X91116961Y-69775533D01*
X91116961Y-69775533D02*
X91021723Y-69727914D01*
X91021723Y-69727914D02*
X90831247Y-69680295D01*
X90831247Y-69680295D02*
X90688390Y-69680295D01*
X90688390Y-69680295D02*
X90497914Y-69727914D01*
X90497914Y-69727914D02*
X90402676Y-69775533D01*
X90402676Y-69775533D02*
X90307438Y-69870771D01*
X90307438Y-69870771D02*
X90259819Y-70013628D01*
X90259819Y-70013628D02*
X90259819Y-70108866D01*
X90259819Y-70108866D02*
X90307438Y-70251723D01*
X90307438Y-70251723D02*
X90355057Y-70299342D01*
X90355057Y-70680295D02*
X90307438Y-70727914D01*
X90307438Y-70727914D02*
X90259819Y-70823152D01*
X90259819Y-70823152D02*
X90259819Y-71061247D01*
X90259819Y-71061247D02*
X90307438Y-71156485D01*
X90307438Y-71156485D02*
X90355057Y-71204104D01*
X90355057Y-71204104D02*
X90450295Y-71251723D01*
X90450295Y-71251723D02*
X90545533Y-71251723D01*
X90545533Y-71251723D02*
X90688390Y-71204104D01*
X90688390Y-71204104D02*
X91259819Y-70632676D01*
X91259819Y-70632676D02*
X91259819Y-71251723D01*
X90259819Y-71870771D02*
X90259819Y-71966009D01*
X90259819Y-71966009D02*
X90307438Y-72061247D01*
X90307438Y-72061247D02*
X90355057Y-72108866D01*
X90355057Y-72108866D02*
X90450295Y-72156485D01*
X90450295Y-72156485D02*
X90640771Y-72204104D01*
X90640771Y-72204104D02*
X90878866Y-72204104D01*
X90878866Y-72204104D02*
X91069342Y-72156485D01*
X91069342Y-72156485D02*
X91164580Y-72108866D01*
X91164580Y-72108866D02*
X91212200Y-72061247D01*
X91212200Y-72061247D02*
X91259819Y-71966009D01*
X91259819Y-71966009D02*
X91259819Y-71870771D01*
X91259819Y-71870771D02*
X91212200Y-71775533D01*
X91212200Y-71775533D02*
X91164580Y-71727914D01*
X91164580Y-71727914D02*
X91069342Y-71680295D01*
X91069342Y-71680295D02*
X90878866Y-71632676D01*
X90878866Y-71632676D02*
X90640771Y-71632676D01*
X90640771Y-71632676D02*
X90450295Y-71680295D01*
X90450295Y-71680295D02*
X90355057Y-71727914D01*
X90355057Y-71727914D02*
X90307438Y-71775533D01*
X90307438Y-71775533D02*
X90259819Y-71870771D01*
X96727180Y-73525142D02*
X96774800Y-73477523D01*
X96774800Y-73477523D02*
X96822419Y-73334666D01*
X96822419Y-73334666D02*
X96822419Y-73239428D01*
X96822419Y-73239428D02*
X96774800Y-73096571D01*
X96774800Y-73096571D02*
X96679561Y-73001333D01*
X96679561Y-73001333D02*
X96584323Y-72953714D01*
X96584323Y-72953714D02*
X96393847Y-72906095D01*
X96393847Y-72906095D02*
X96250990Y-72906095D01*
X96250990Y-72906095D02*
X96060514Y-72953714D01*
X96060514Y-72953714D02*
X95965276Y-73001333D01*
X95965276Y-73001333D02*
X95870038Y-73096571D01*
X95870038Y-73096571D02*
X95822419Y-73239428D01*
X95822419Y-73239428D02*
X95822419Y-73334666D01*
X95822419Y-73334666D02*
X95870038Y-73477523D01*
X95870038Y-73477523D02*
X95917657Y-73525142D01*
X96822419Y-74477523D02*
X96822419Y-73906095D01*
X96822419Y-74191809D02*
X95822419Y-74191809D01*
X95822419Y-74191809D02*
X95965276Y-74096571D01*
X95965276Y-74096571D02*
X96060514Y-74001333D01*
X96060514Y-74001333D02*
X96108133Y-73906095D01*
X96822419Y-75429904D02*
X96822419Y-74858476D01*
X96822419Y-75144190D02*
X95822419Y-75144190D01*
X95822419Y-75144190D02*
X95965276Y-75048952D01*
X95965276Y-75048952D02*
X96060514Y-74953714D01*
X96060514Y-74953714D02*
X96108133Y-74858476D01*
X102816819Y-69936905D02*
X101816819Y-69936905D01*
X101816819Y-69936905D02*
X101816819Y-70175000D01*
X101816819Y-70175000D02*
X101864438Y-70317857D01*
X101864438Y-70317857D02*
X101959676Y-70413095D01*
X101959676Y-70413095D02*
X102054914Y-70460714D01*
X102054914Y-70460714D02*
X102245390Y-70508333D01*
X102245390Y-70508333D02*
X102388247Y-70508333D01*
X102388247Y-70508333D02*
X102578723Y-70460714D01*
X102578723Y-70460714D02*
X102673961Y-70413095D01*
X102673961Y-70413095D02*
X102769200Y-70317857D01*
X102769200Y-70317857D02*
X102816819Y-70175000D01*
X102816819Y-70175000D02*
X102816819Y-69936905D01*
X102245390Y-71079762D02*
X102197771Y-70984524D01*
X102197771Y-70984524D02*
X102150152Y-70936905D01*
X102150152Y-70936905D02*
X102054914Y-70889286D01*
X102054914Y-70889286D02*
X102007295Y-70889286D01*
X102007295Y-70889286D02*
X101912057Y-70936905D01*
X101912057Y-70936905D02*
X101864438Y-70984524D01*
X101864438Y-70984524D02*
X101816819Y-71079762D01*
X101816819Y-71079762D02*
X101816819Y-71270238D01*
X101816819Y-71270238D02*
X101864438Y-71365476D01*
X101864438Y-71365476D02*
X101912057Y-71413095D01*
X101912057Y-71413095D02*
X102007295Y-71460714D01*
X102007295Y-71460714D02*
X102054914Y-71460714D01*
X102054914Y-71460714D02*
X102150152Y-71413095D01*
X102150152Y-71413095D02*
X102197771Y-71365476D01*
X102197771Y-71365476D02*
X102245390Y-71270238D01*
X102245390Y-71270238D02*
X102245390Y-71079762D01*
X102245390Y-71079762D02*
X102293009Y-70984524D01*
X102293009Y-70984524D02*
X102340628Y-70936905D01*
X102340628Y-70936905D02*
X102435866Y-70889286D01*
X102435866Y-70889286D02*
X102626342Y-70889286D01*
X102626342Y-70889286D02*
X102721580Y-70936905D01*
X102721580Y-70936905D02*
X102769200Y-70984524D01*
X102769200Y-70984524D02*
X102816819Y-71079762D01*
X102816819Y-71079762D02*
X102816819Y-71270238D01*
X102816819Y-71270238D02*
X102769200Y-71365476D01*
X102769200Y-71365476D02*
X102721580Y-71413095D01*
X102721580Y-71413095D02*
X102626342Y-71460714D01*
X102626342Y-71460714D02*
X102435866Y-71460714D01*
X102435866Y-71460714D02*
X102340628Y-71413095D01*
X102340628Y-71413095D02*
X102293009Y-71365476D01*
X102293009Y-71365476D02*
X102245390Y-71270238D01*
X90346866Y-26315780D02*
X90394485Y-26363400D01*
X90394485Y-26363400D02*
X90537342Y-26411019D01*
X90537342Y-26411019D02*
X90632580Y-26411019D01*
X90632580Y-26411019D02*
X90775437Y-26363400D01*
X90775437Y-26363400D02*
X90870675Y-26268161D01*
X90870675Y-26268161D02*
X90918294Y-26172923D01*
X90918294Y-26172923D02*
X90965913Y-25982447D01*
X90965913Y-25982447D02*
X90965913Y-25839590D01*
X90965913Y-25839590D02*
X90918294Y-25649114D01*
X90918294Y-25649114D02*
X90870675Y-25553876D01*
X90870675Y-25553876D02*
X90775437Y-25458638D01*
X90775437Y-25458638D02*
X90632580Y-25411019D01*
X90632580Y-25411019D02*
X90537342Y-25411019D01*
X90537342Y-25411019D02*
X90394485Y-25458638D01*
X90394485Y-25458638D02*
X90346866Y-25506257D01*
X89489723Y-25411019D02*
X89680199Y-25411019D01*
X89680199Y-25411019D02*
X89775437Y-25458638D01*
X89775437Y-25458638D02*
X89823056Y-25506257D01*
X89823056Y-25506257D02*
X89918294Y-25649114D01*
X89918294Y-25649114D02*
X89965913Y-25839590D01*
X89965913Y-25839590D02*
X89965913Y-26220542D01*
X89965913Y-26220542D02*
X89918294Y-26315780D01*
X89918294Y-26315780D02*
X89870675Y-26363400D01*
X89870675Y-26363400D02*
X89775437Y-26411019D01*
X89775437Y-26411019D02*
X89584961Y-26411019D01*
X89584961Y-26411019D02*
X89489723Y-26363400D01*
X89489723Y-26363400D02*
X89442104Y-26315780D01*
X89442104Y-26315780D02*
X89394485Y-26220542D01*
X89394485Y-26220542D02*
X89394485Y-25982447D01*
X89394485Y-25982447D02*
X89442104Y-25887209D01*
X89442104Y-25887209D02*
X89489723Y-25839590D01*
X89489723Y-25839590D02*
X89584961Y-25791971D01*
X89584961Y-25791971D02*
X89775437Y-25791971D01*
X89775437Y-25791971D02*
X89870675Y-25839590D01*
X89870675Y-25839590D02*
X89918294Y-25887209D01*
X89918294Y-25887209D02*
X89965913Y-25982447D01*
X93708457Y-80166380D02*
X93756076Y-80214000D01*
X93756076Y-80214000D02*
X93898933Y-80261619D01*
X93898933Y-80261619D02*
X93994171Y-80261619D01*
X93994171Y-80261619D02*
X94137028Y-80214000D01*
X94137028Y-80214000D02*
X94232266Y-80118761D01*
X94232266Y-80118761D02*
X94279885Y-80023523D01*
X94279885Y-80023523D02*
X94327504Y-79833047D01*
X94327504Y-79833047D02*
X94327504Y-79690190D01*
X94327504Y-79690190D02*
X94279885Y-79499714D01*
X94279885Y-79499714D02*
X94232266Y-79404476D01*
X94232266Y-79404476D02*
X94137028Y-79309238D01*
X94137028Y-79309238D02*
X93994171Y-79261619D01*
X93994171Y-79261619D02*
X93898933Y-79261619D01*
X93898933Y-79261619D02*
X93756076Y-79309238D01*
X93756076Y-79309238D02*
X93708457Y-79356857D01*
X92756076Y-80261619D02*
X93327504Y-80261619D01*
X93041790Y-80261619D02*
X93041790Y-79261619D01*
X93041790Y-79261619D02*
X93137028Y-79404476D01*
X93137028Y-79404476D02*
X93232266Y-79499714D01*
X93232266Y-79499714D02*
X93327504Y-79547333D01*
X92279885Y-80261619D02*
X92089409Y-80261619D01*
X92089409Y-80261619D02*
X91994171Y-80214000D01*
X91994171Y-80214000D02*
X91946552Y-80166380D01*
X91946552Y-80166380D02*
X91851314Y-80023523D01*
X91851314Y-80023523D02*
X91803695Y-79833047D01*
X91803695Y-79833047D02*
X91803695Y-79452095D01*
X91803695Y-79452095D02*
X91851314Y-79356857D01*
X91851314Y-79356857D02*
X91898933Y-79309238D01*
X91898933Y-79309238D02*
X91994171Y-79261619D01*
X91994171Y-79261619D02*
X92184647Y-79261619D01*
X92184647Y-79261619D02*
X92279885Y-79309238D01*
X92279885Y-79309238D02*
X92327504Y-79356857D01*
X92327504Y-79356857D02*
X92375123Y-79452095D01*
X92375123Y-79452095D02*
X92375123Y-79690190D01*
X92375123Y-79690190D02*
X92327504Y-79785428D01*
X92327504Y-79785428D02*
X92279885Y-79833047D01*
X92279885Y-79833047D02*
X92184647Y-79880666D01*
X92184647Y-79880666D02*
X91994171Y-79880666D01*
X91994171Y-79880666D02*
X91898933Y-79833047D01*
X91898933Y-79833047D02*
X91851314Y-79785428D01*
X91851314Y-79785428D02*
X91803695Y-79690190D01*
X45666819Y-79461905D02*
X44666819Y-79461905D01*
X44666819Y-79461905D02*
X44666819Y-79700000D01*
X44666819Y-79700000D02*
X44714438Y-79842857D01*
X44714438Y-79842857D02*
X44809676Y-79938095D01*
X44809676Y-79938095D02*
X44904914Y-79985714D01*
X44904914Y-79985714D02*
X45095390Y-80033333D01*
X45095390Y-80033333D02*
X45238247Y-80033333D01*
X45238247Y-80033333D02*
X45428723Y-79985714D01*
X45428723Y-79985714D02*
X45523961Y-79938095D01*
X45523961Y-79938095D02*
X45619200Y-79842857D01*
X45619200Y-79842857D02*
X45666819Y-79700000D01*
X45666819Y-79700000D02*
X45666819Y-79461905D01*
X45666819Y-80509524D02*
X45666819Y-80700000D01*
X45666819Y-80700000D02*
X45619200Y-80795238D01*
X45619200Y-80795238D02*
X45571580Y-80842857D01*
X45571580Y-80842857D02*
X45428723Y-80938095D01*
X45428723Y-80938095D02*
X45238247Y-80985714D01*
X45238247Y-80985714D02*
X44857295Y-80985714D01*
X44857295Y-80985714D02*
X44762057Y-80938095D01*
X44762057Y-80938095D02*
X44714438Y-80890476D01*
X44714438Y-80890476D02*
X44666819Y-80795238D01*
X44666819Y-80795238D02*
X44666819Y-80604762D01*
X44666819Y-80604762D02*
X44714438Y-80509524D01*
X44714438Y-80509524D02*
X44762057Y-80461905D01*
X44762057Y-80461905D02*
X44857295Y-80414286D01*
X44857295Y-80414286D02*
X45095390Y-80414286D01*
X45095390Y-80414286D02*
X45190628Y-80461905D01*
X45190628Y-80461905D02*
X45238247Y-80509524D01*
X45238247Y-80509524D02*
X45285866Y-80604762D01*
X45285866Y-80604762D02*
X45285866Y-80795238D01*
X45285866Y-80795238D02*
X45238247Y-80890476D01*
X45238247Y-80890476D02*
X45190628Y-80938095D01*
X45190628Y-80938095D02*
X45095390Y-80985714D01*
X84749819Y-93464142D02*
X84273628Y-93130809D01*
X84749819Y-92892714D02*
X83749819Y-92892714D01*
X83749819Y-92892714D02*
X83749819Y-93273666D01*
X83749819Y-93273666D02*
X83797438Y-93368904D01*
X83797438Y-93368904D02*
X83845057Y-93416523D01*
X83845057Y-93416523D02*
X83940295Y-93464142D01*
X83940295Y-93464142D02*
X84083152Y-93464142D01*
X84083152Y-93464142D02*
X84178390Y-93416523D01*
X84178390Y-93416523D02*
X84226009Y-93368904D01*
X84226009Y-93368904D02*
X84273628Y-93273666D01*
X84273628Y-93273666D02*
X84273628Y-92892714D01*
X84749819Y-94416523D02*
X84749819Y-93845095D01*
X84749819Y-94130809D02*
X83749819Y-94130809D01*
X83749819Y-94130809D02*
X83892676Y-94035571D01*
X83892676Y-94035571D02*
X83987914Y-93940333D01*
X83987914Y-93940333D02*
X84035533Y-93845095D01*
X83749819Y-95035571D02*
X83749819Y-95130809D01*
X83749819Y-95130809D02*
X83797438Y-95226047D01*
X83797438Y-95226047D02*
X83845057Y-95273666D01*
X83845057Y-95273666D02*
X83940295Y-95321285D01*
X83940295Y-95321285D02*
X84130771Y-95368904D01*
X84130771Y-95368904D02*
X84368866Y-95368904D01*
X84368866Y-95368904D02*
X84559342Y-95321285D01*
X84559342Y-95321285D02*
X84654580Y-95273666D01*
X84654580Y-95273666D02*
X84702200Y-95226047D01*
X84702200Y-95226047D02*
X84749819Y-95130809D01*
X84749819Y-95130809D02*
X84749819Y-95035571D01*
X84749819Y-95035571D02*
X84702200Y-94940333D01*
X84702200Y-94940333D02*
X84654580Y-94892714D01*
X84654580Y-94892714D02*
X84559342Y-94845095D01*
X84559342Y-94845095D02*
X84368866Y-94797476D01*
X84368866Y-94797476D02*
X84130771Y-94797476D01*
X84130771Y-94797476D02*
X83940295Y-94845095D01*
X83940295Y-94845095D02*
X83845057Y-94892714D01*
X83845057Y-94892714D02*
X83797438Y-94940333D01*
X83797438Y-94940333D02*
X83749819Y-95035571D01*
X49879476Y-26092800D02*
X50022333Y-26045180D01*
X50022333Y-26045180D02*
X50260428Y-26045180D01*
X50260428Y-26045180D02*
X50355666Y-26092800D01*
X50355666Y-26092800D02*
X50403285Y-26140419D01*
X50403285Y-26140419D02*
X50450904Y-26235657D01*
X50450904Y-26235657D02*
X50450904Y-26330895D01*
X50450904Y-26330895D02*
X50403285Y-26426133D01*
X50403285Y-26426133D02*
X50355666Y-26473752D01*
X50355666Y-26473752D02*
X50260428Y-26521371D01*
X50260428Y-26521371D02*
X50069952Y-26568990D01*
X50069952Y-26568990D02*
X49974714Y-26616609D01*
X49974714Y-26616609D02*
X49927095Y-26664228D01*
X49927095Y-26664228D02*
X49879476Y-26759466D01*
X49879476Y-26759466D02*
X49879476Y-26854704D01*
X49879476Y-26854704D02*
X49927095Y-26949942D01*
X49927095Y-26949942D02*
X49974714Y-26997561D01*
X49974714Y-26997561D02*
X50069952Y-27045180D01*
X50069952Y-27045180D02*
X50308047Y-27045180D01*
X50308047Y-27045180D02*
X50450904Y-26997561D01*
X50784238Y-27045180D02*
X51022333Y-26045180D01*
X51022333Y-26045180D02*
X51212809Y-26759466D01*
X51212809Y-26759466D02*
X51403285Y-26045180D01*
X51403285Y-26045180D02*
X51641381Y-27045180D01*
X51974714Y-26949942D02*
X52022333Y-26997561D01*
X52022333Y-26997561D02*
X52117571Y-27045180D01*
X52117571Y-27045180D02*
X52355666Y-27045180D01*
X52355666Y-27045180D02*
X52450904Y-26997561D01*
X52450904Y-26997561D02*
X52498523Y-26949942D01*
X52498523Y-26949942D02*
X52546142Y-26854704D01*
X52546142Y-26854704D02*
X52546142Y-26759466D01*
X52546142Y-26759466D02*
X52498523Y-26616609D01*
X52498523Y-26616609D02*
X51927095Y-26045180D01*
X51927095Y-26045180D02*
X52546142Y-26045180D01*
X53498523Y-26045180D02*
X52927095Y-26045180D01*
X53212809Y-26045180D02*
X53212809Y-27045180D01*
X53212809Y-27045180D02*
X53117571Y-26902323D01*
X53117571Y-26902323D02*
X53022333Y-26807085D01*
X53022333Y-26807085D02*
X52927095Y-26759466D01*
X46885219Y-25158207D02*
X46409028Y-24824874D01*
X46885219Y-24586779D02*
X45885219Y-24586779D01*
X45885219Y-24586779D02*
X45885219Y-24967731D01*
X45885219Y-24967731D02*
X45932838Y-25062969D01*
X45932838Y-25062969D02*
X45980457Y-25110588D01*
X45980457Y-25110588D02*
X46075695Y-25158207D01*
X46075695Y-25158207D02*
X46218552Y-25158207D01*
X46218552Y-25158207D02*
X46313790Y-25110588D01*
X46313790Y-25110588D02*
X46361409Y-25062969D01*
X46361409Y-25062969D02*
X46409028Y-24967731D01*
X46409028Y-24967731D02*
X46409028Y-24586779D01*
X46361409Y-25586779D02*
X46361409Y-25920112D01*
X46885219Y-26062969D02*
X46885219Y-25586779D01*
X46885219Y-25586779D02*
X45885219Y-25586779D01*
X45885219Y-25586779D02*
X45885219Y-26062969D01*
X46837600Y-26443922D02*
X46885219Y-26586779D01*
X46885219Y-26586779D02*
X46885219Y-26824874D01*
X46885219Y-26824874D02*
X46837600Y-26920112D01*
X46837600Y-26920112D02*
X46789980Y-26967731D01*
X46789980Y-26967731D02*
X46694742Y-27015350D01*
X46694742Y-27015350D02*
X46599504Y-27015350D01*
X46599504Y-27015350D02*
X46504266Y-26967731D01*
X46504266Y-26967731D02*
X46456647Y-26920112D01*
X46456647Y-26920112D02*
X46409028Y-26824874D01*
X46409028Y-26824874D02*
X46361409Y-26634398D01*
X46361409Y-26634398D02*
X46313790Y-26539160D01*
X46313790Y-26539160D02*
X46266171Y-26491541D01*
X46266171Y-26491541D02*
X46170933Y-26443922D01*
X46170933Y-26443922D02*
X46075695Y-26443922D01*
X46075695Y-26443922D02*
X45980457Y-26491541D01*
X45980457Y-26491541D02*
X45932838Y-26539160D01*
X45932838Y-26539160D02*
X45885219Y-26634398D01*
X45885219Y-26634398D02*
X45885219Y-26872493D01*
X45885219Y-26872493D02*
X45932838Y-27015350D01*
X46361409Y-27443922D02*
X46361409Y-27777255D01*
X46885219Y-27920112D02*
X46885219Y-27443922D01*
X46885219Y-27443922D02*
X45885219Y-27443922D01*
X45885219Y-27443922D02*
X45885219Y-27920112D01*
X45885219Y-28205827D02*
X45885219Y-28777255D01*
X46885219Y-28491541D02*
X45885219Y-28491541D01*
X98990028Y-29645795D02*
X98990028Y-28845795D01*
X98990028Y-28845795D02*
X98799552Y-28845795D01*
X98799552Y-28845795D02*
X98685266Y-28883890D01*
X98685266Y-28883890D02*
X98609076Y-28960080D01*
X98609076Y-28960080D02*
X98570981Y-29036271D01*
X98570981Y-29036271D02*
X98532885Y-29188652D01*
X98532885Y-29188652D02*
X98532885Y-29302938D01*
X98532885Y-29302938D02*
X98570981Y-29455319D01*
X98570981Y-29455319D02*
X98609076Y-29531509D01*
X98609076Y-29531509D02*
X98685266Y-29607700D01*
X98685266Y-29607700D02*
X98799552Y-29645795D01*
X98799552Y-29645795D02*
X98990028Y-29645795D01*
X98228124Y-28921985D02*
X98190028Y-28883890D01*
X98190028Y-28883890D02*
X98113838Y-28845795D01*
X98113838Y-28845795D02*
X97923362Y-28845795D01*
X97923362Y-28845795D02*
X97847171Y-28883890D01*
X97847171Y-28883890D02*
X97809076Y-28921985D01*
X97809076Y-28921985D02*
X97770981Y-28998176D01*
X97770981Y-28998176D02*
X97770981Y-29074366D01*
X97770981Y-29074366D02*
X97809076Y-29188652D01*
X97809076Y-29188652D02*
X98266219Y-29645795D01*
X98266219Y-29645795D02*
X97770981Y-29645795D01*
X97466219Y-28921985D02*
X97428123Y-28883890D01*
X97428123Y-28883890D02*
X97351933Y-28845795D01*
X97351933Y-28845795D02*
X97161457Y-28845795D01*
X97161457Y-28845795D02*
X97085266Y-28883890D01*
X97085266Y-28883890D02*
X97047171Y-28921985D01*
X97047171Y-28921985D02*
X97009076Y-28998176D01*
X97009076Y-28998176D02*
X97009076Y-29074366D01*
X97009076Y-29074366D02*
X97047171Y-29188652D01*
X97047171Y-29188652D02*
X97504314Y-29645795D01*
X97504314Y-29645795D02*
X97009076Y-29645795D01*
X99150466Y-23815219D02*
X99483799Y-23339028D01*
X99721894Y-23815219D02*
X99721894Y-22815219D01*
X99721894Y-22815219D02*
X99340942Y-22815219D01*
X99340942Y-22815219D02*
X99245704Y-22862838D01*
X99245704Y-22862838D02*
X99198085Y-22910457D01*
X99198085Y-22910457D02*
X99150466Y-23005695D01*
X99150466Y-23005695D02*
X99150466Y-23148552D01*
X99150466Y-23148552D02*
X99198085Y-23243790D01*
X99198085Y-23243790D02*
X99245704Y-23291409D01*
X99245704Y-23291409D02*
X99340942Y-23339028D01*
X99340942Y-23339028D02*
X99721894Y-23339028D01*
X98817132Y-22815219D02*
X98150466Y-22815219D01*
X98150466Y-22815219D02*
X98579037Y-23815219D01*
X102757266Y-30376019D02*
X103090599Y-29899828D01*
X103328694Y-30376019D02*
X103328694Y-29376019D01*
X103328694Y-29376019D02*
X102947742Y-29376019D01*
X102947742Y-29376019D02*
X102852504Y-29423638D01*
X102852504Y-29423638D02*
X102804885Y-29471257D01*
X102804885Y-29471257D02*
X102757266Y-29566495D01*
X102757266Y-29566495D02*
X102757266Y-29709352D01*
X102757266Y-29709352D02*
X102804885Y-29804590D01*
X102804885Y-29804590D02*
X102852504Y-29852209D01*
X102852504Y-29852209D02*
X102947742Y-29899828D01*
X102947742Y-29899828D02*
X103328694Y-29899828D01*
X101852504Y-29376019D02*
X102328694Y-29376019D01*
X102328694Y-29376019D02*
X102376313Y-29852209D01*
X102376313Y-29852209D02*
X102328694Y-29804590D01*
X102328694Y-29804590D02*
X102233456Y-29756971D01*
X102233456Y-29756971D02*
X101995361Y-29756971D01*
X101995361Y-29756971D02*
X101900123Y-29804590D01*
X101900123Y-29804590D02*
X101852504Y-29852209D01*
X101852504Y-29852209D02*
X101804885Y-29947447D01*
X101804885Y-29947447D02*
X101804885Y-30185542D01*
X101804885Y-30185542D02*
X101852504Y-30280780D01*
X101852504Y-30280780D02*
X101900123Y-30328400D01*
X101900123Y-30328400D02*
X101995361Y-30376019D01*
X101995361Y-30376019D02*
X102233456Y-30376019D01*
X102233456Y-30376019D02*
X102328694Y-30328400D01*
X102328694Y-30328400D02*
X102376313Y-30280780D01*
X83766819Y-117085714D02*
X82766819Y-117085714D01*
X82766819Y-117085714D02*
X82766819Y-117323809D01*
X82766819Y-117323809D02*
X82814438Y-117466666D01*
X82814438Y-117466666D02*
X82909676Y-117561904D01*
X82909676Y-117561904D02*
X83004914Y-117609523D01*
X83004914Y-117609523D02*
X83195390Y-117657142D01*
X83195390Y-117657142D02*
X83338247Y-117657142D01*
X83338247Y-117657142D02*
X83528723Y-117609523D01*
X83528723Y-117609523D02*
X83623961Y-117561904D01*
X83623961Y-117561904D02*
X83719200Y-117466666D01*
X83719200Y-117466666D02*
X83766819Y-117323809D01*
X83766819Y-117323809D02*
X83766819Y-117085714D01*
X83766819Y-118609523D02*
X83766819Y-118038095D01*
X83766819Y-118323809D02*
X82766819Y-118323809D01*
X82766819Y-118323809D02*
X82909676Y-118228571D01*
X82909676Y-118228571D02*
X83004914Y-118133333D01*
X83004914Y-118133333D02*
X83052533Y-118038095D01*
X82766819Y-118942857D02*
X82766819Y-119609523D01*
X82766819Y-119609523D02*
X83766819Y-119180952D01*
X95171185Y-30426819D02*
X95171185Y-29426819D01*
X95171185Y-29426819D02*
X94933090Y-29426819D01*
X94933090Y-29426819D02*
X94790233Y-29474438D01*
X94790233Y-29474438D02*
X94694995Y-29569676D01*
X94694995Y-29569676D02*
X94647376Y-29664914D01*
X94647376Y-29664914D02*
X94599757Y-29855390D01*
X94599757Y-29855390D02*
X94599757Y-29998247D01*
X94599757Y-29998247D02*
X94647376Y-30188723D01*
X94647376Y-30188723D02*
X94694995Y-30283961D01*
X94694995Y-30283961D02*
X94790233Y-30379200D01*
X94790233Y-30379200D02*
X94933090Y-30426819D01*
X94933090Y-30426819D02*
X95171185Y-30426819D01*
X94218804Y-29522057D02*
X94171185Y-29474438D01*
X94171185Y-29474438D02*
X94075947Y-29426819D01*
X94075947Y-29426819D02*
X93837852Y-29426819D01*
X93837852Y-29426819D02*
X93742614Y-29474438D01*
X93742614Y-29474438D02*
X93694995Y-29522057D01*
X93694995Y-29522057D02*
X93647376Y-29617295D01*
X93647376Y-29617295D02*
X93647376Y-29712533D01*
X93647376Y-29712533D02*
X93694995Y-29855390D01*
X93694995Y-29855390D02*
X94266423Y-30426819D01*
X94266423Y-30426819D02*
X93647376Y-30426819D01*
X92694995Y-30426819D02*
X93266423Y-30426819D01*
X92980709Y-30426819D02*
X92980709Y-29426819D01*
X92980709Y-29426819D02*
X93075947Y-29569676D01*
X93075947Y-29569676D02*
X93171185Y-29664914D01*
X93171185Y-29664914D02*
X93266423Y-29712533D01*
X102065057Y-92340580D02*
X102112676Y-92388200D01*
X102112676Y-92388200D02*
X102255533Y-92435819D01*
X102255533Y-92435819D02*
X102350771Y-92435819D01*
X102350771Y-92435819D02*
X102493628Y-92388200D01*
X102493628Y-92388200D02*
X102588866Y-92292961D01*
X102588866Y-92292961D02*
X102636485Y-92197723D01*
X102636485Y-92197723D02*
X102684104Y-92007247D01*
X102684104Y-92007247D02*
X102684104Y-91864390D01*
X102684104Y-91864390D02*
X102636485Y-91673914D01*
X102636485Y-91673914D02*
X102588866Y-91578676D01*
X102588866Y-91578676D02*
X102493628Y-91483438D01*
X102493628Y-91483438D02*
X102350771Y-91435819D01*
X102350771Y-91435819D02*
X102255533Y-91435819D01*
X102255533Y-91435819D02*
X102112676Y-91483438D01*
X102112676Y-91483438D02*
X102065057Y-91531057D01*
X101112676Y-92435819D02*
X101684104Y-92435819D01*
X101398390Y-92435819D02*
X101398390Y-91435819D01*
X101398390Y-91435819D02*
X101493628Y-91578676D01*
X101493628Y-91578676D02*
X101588866Y-91673914D01*
X101588866Y-91673914D02*
X101684104Y-91721533D01*
X100207914Y-91435819D02*
X100684104Y-91435819D01*
X100684104Y-91435819D02*
X100731723Y-91912009D01*
X100731723Y-91912009D02*
X100684104Y-91864390D01*
X100684104Y-91864390D02*
X100588866Y-91816771D01*
X100588866Y-91816771D02*
X100350771Y-91816771D01*
X100350771Y-91816771D02*
X100255533Y-91864390D01*
X100255533Y-91864390D02*
X100207914Y-91912009D01*
X100207914Y-91912009D02*
X100160295Y-92007247D01*
X100160295Y-92007247D02*
X100160295Y-92245342D01*
X100160295Y-92245342D02*
X100207914Y-92340580D01*
X100207914Y-92340580D02*
X100255533Y-92388200D01*
X100255533Y-92388200D02*
X100350771Y-92435819D01*
X100350771Y-92435819D02*
X100588866Y-92435819D01*
X100588866Y-92435819D02*
X100684104Y-92388200D01*
X100684104Y-92388200D02*
X100731723Y-92340580D01*
X64920019Y-98035714D02*
X63920019Y-98035714D01*
X63920019Y-98035714D02*
X63920019Y-98273809D01*
X63920019Y-98273809D02*
X63967638Y-98416666D01*
X63967638Y-98416666D02*
X64062876Y-98511904D01*
X64062876Y-98511904D02*
X64158114Y-98559523D01*
X64158114Y-98559523D02*
X64348590Y-98607142D01*
X64348590Y-98607142D02*
X64491447Y-98607142D01*
X64491447Y-98607142D02*
X64681923Y-98559523D01*
X64681923Y-98559523D02*
X64777161Y-98511904D01*
X64777161Y-98511904D02*
X64872400Y-98416666D01*
X64872400Y-98416666D02*
X64920019Y-98273809D01*
X64920019Y-98273809D02*
X64920019Y-98035714D01*
X64920019Y-99559523D02*
X64920019Y-98988095D01*
X64920019Y-99273809D02*
X63920019Y-99273809D01*
X63920019Y-99273809D02*
X64062876Y-99178571D01*
X64062876Y-99178571D02*
X64158114Y-99083333D01*
X64158114Y-99083333D02*
X64205733Y-98988095D01*
X63920019Y-99892857D02*
X63920019Y-100511904D01*
X63920019Y-100511904D02*
X64300971Y-100178571D01*
X64300971Y-100178571D02*
X64300971Y-100321428D01*
X64300971Y-100321428D02*
X64348590Y-100416666D01*
X64348590Y-100416666D02*
X64396209Y-100464285D01*
X64396209Y-100464285D02*
X64491447Y-100511904D01*
X64491447Y-100511904D02*
X64729542Y-100511904D01*
X64729542Y-100511904D02*
X64824780Y-100464285D01*
X64824780Y-100464285D02*
X64872400Y-100416666D01*
X64872400Y-100416666D02*
X64920019Y-100321428D01*
X64920019Y-100321428D02*
X64920019Y-100035714D01*
X64920019Y-100035714D02*
X64872400Y-99940476D01*
X64872400Y-99940476D02*
X64824780Y-99892857D01*
X90412866Y-29774019D02*
X90746199Y-29297828D01*
X90984294Y-29774019D02*
X90984294Y-28774019D01*
X90984294Y-28774019D02*
X90603342Y-28774019D01*
X90603342Y-28774019D02*
X90508104Y-28821638D01*
X90508104Y-28821638D02*
X90460485Y-28869257D01*
X90460485Y-28869257D02*
X90412866Y-28964495D01*
X90412866Y-28964495D02*
X90412866Y-29107352D01*
X90412866Y-29107352D02*
X90460485Y-29202590D01*
X90460485Y-29202590D02*
X90508104Y-29250209D01*
X90508104Y-29250209D02*
X90603342Y-29297828D01*
X90603342Y-29297828D02*
X90984294Y-29297828D01*
X89841437Y-29202590D02*
X89936675Y-29154971D01*
X89936675Y-29154971D02*
X89984294Y-29107352D01*
X89984294Y-29107352D02*
X90031913Y-29012114D01*
X90031913Y-29012114D02*
X90031913Y-28964495D01*
X90031913Y-28964495D02*
X89984294Y-28869257D01*
X89984294Y-28869257D02*
X89936675Y-28821638D01*
X89936675Y-28821638D02*
X89841437Y-28774019D01*
X89841437Y-28774019D02*
X89650961Y-28774019D01*
X89650961Y-28774019D02*
X89555723Y-28821638D01*
X89555723Y-28821638D02*
X89508104Y-28869257D01*
X89508104Y-28869257D02*
X89460485Y-28964495D01*
X89460485Y-28964495D02*
X89460485Y-29012114D01*
X89460485Y-29012114D02*
X89508104Y-29107352D01*
X89508104Y-29107352D02*
X89555723Y-29154971D01*
X89555723Y-29154971D02*
X89650961Y-29202590D01*
X89650961Y-29202590D02*
X89841437Y-29202590D01*
X89841437Y-29202590D02*
X89936675Y-29250209D01*
X89936675Y-29250209D02*
X89984294Y-29297828D01*
X89984294Y-29297828D02*
X90031913Y-29393066D01*
X90031913Y-29393066D02*
X90031913Y-29583542D01*
X90031913Y-29583542D02*
X89984294Y-29678780D01*
X89984294Y-29678780D02*
X89936675Y-29726400D01*
X89936675Y-29726400D02*
X89841437Y-29774019D01*
X89841437Y-29774019D02*
X89650961Y-29774019D01*
X89650961Y-29774019D02*
X89555723Y-29726400D01*
X89555723Y-29726400D02*
X89508104Y-29678780D01*
X89508104Y-29678780D02*
X89460485Y-29583542D01*
X89460485Y-29583542D02*
X89460485Y-29393066D01*
X89460485Y-29393066D02*
X89508104Y-29297828D01*
X89508104Y-29297828D02*
X89555723Y-29250209D01*
X89555723Y-29250209D02*
X89650961Y-29202590D01*
X86221866Y-26315780D02*
X86269485Y-26363400D01*
X86269485Y-26363400D02*
X86412342Y-26411019D01*
X86412342Y-26411019D02*
X86507580Y-26411019D01*
X86507580Y-26411019D02*
X86650437Y-26363400D01*
X86650437Y-26363400D02*
X86745675Y-26268161D01*
X86745675Y-26268161D02*
X86793294Y-26172923D01*
X86793294Y-26172923D02*
X86840913Y-25982447D01*
X86840913Y-25982447D02*
X86840913Y-25839590D01*
X86840913Y-25839590D02*
X86793294Y-25649114D01*
X86793294Y-25649114D02*
X86745675Y-25553876D01*
X86745675Y-25553876D02*
X86650437Y-25458638D01*
X86650437Y-25458638D02*
X86507580Y-25411019D01*
X86507580Y-25411019D02*
X86412342Y-25411019D01*
X86412342Y-25411019D02*
X86269485Y-25458638D01*
X86269485Y-25458638D02*
X86221866Y-25506257D01*
X85650437Y-25839590D02*
X85745675Y-25791971D01*
X85745675Y-25791971D02*
X85793294Y-25744352D01*
X85793294Y-25744352D02*
X85840913Y-25649114D01*
X85840913Y-25649114D02*
X85840913Y-25601495D01*
X85840913Y-25601495D02*
X85793294Y-25506257D01*
X85793294Y-25506257D02*
X85745675Y-25458638D01*
X85745675Y-25458638D02*
X85650437Y-25411019D01*
X85650437Y-25411019D02*
X85459961Y-25411019D01*
X85459961Y-25411019D02*
X85364723Y-25458638D01*
X85364723Y-25458638D02*
X85317104Y-25506257D01*
X85317104Y-25506257D02*
X85269485Y-25601495D01*
X85269485Y-25601495D02*
X85269485Y-25649114D01*
X85269485Y-25649114D02*
X85317104Y-25744352D01*
X85317104Y-25744352D02*
X85364723Y-25791971D01*
X85364723Y-25791971D02*
X85459961Y-25839590D01*
X85459961Y-25839590D02*
X85650437Y-25839590D01*
X85650437Y-25839590D02*
X85745675Y-25887209D01*
X85745675Y-25887209D02*
X85793294Y-25934828D01*
X85793294Y-25934828D02*
X85840913Y-26030066D01*
X85840913Y-26030066D02*
X85840913Y-26220542D01*
X85840913Y-26220542D02*
X85793294Y-26315780D01*
X85793294Y-26315780D02*
X85745675Y-26363400D01*
X85745675Y-26363400D02*
X85650437Y-26411019D01*
X85650437Y-26411019D02*
X85459961Y-26411019D01*
X85459961Y-26411019D02*
X85364723Y-26363400D01*
X85364723Y-26363400D02*
X85317104Y-26315780D01*
X85317104Y-26315780D02*
X85269485Y-26220542D01*
X85269485Y-26220542D02*
X85269485Y-26030066D01*
X85269485Y-26030066D02*
X85317104Y-25934828D01*
X85317104Y-25934828D02*
X85364723Y-25887209D01*
X85364723Y-25887209D02*
X85459961Y-25839590D01*
X58307266Y-23485019D02*
X58640599Y-23008828D01*
X58878694Y-23485019D02*
X58878694Y-22485019D01*
X58878694Y-22485019D02*
X58497742Y-22485019D01*
X58497742Y-22485019D02*
X58402504Y-22532638D01*
X58402504Y-22532638D02*
X58354885Y-22580257D01*
X58354885Y-22580257D02*
X58307266Y-22675495D01*
X58307266Y-22675495D02*
X58307266Y-22818352D01*
X58307266Y-22818352D02*
X58354885Y-22913590D01*
X58354885Y-22913590D02*
X58402504Y-22961209D01*
X58402504Y-22961209D02*
X58497742Y-23008828D01*
X58497742Y-23008828D02*
X58878694Y-23008828D01*
X57926313Y-22580257D02*
X57878694Y-22532638D01*
X57878694Y-22532638D02*
X57783456Y-22485019D01*
X57783456Y-22485019D02*
X57545361Y-22485019D01*
X57545361Y-22485019D02*
X57450123Y-22532638D01*
X57450123Y-22532638D02*
X57402504Y-22580257D01*
X57402504Y-22580257D02*
X57354885Y-22675495D01*
X57354885Y-22675495D02*
X57354885Y-22770733D01*
X57354885Y-22770733D02*
X57402504Y-22913590D01*
X57402504Y-22913590D02*
X57973932Y-23485019D01*
X57973932Y-23485019D02*
X57354885Y-23485019D01*
X99083019Y-74255333D02*
X98606828Y-73922000D01*
X99083019Y-73683905D02*
X98083019Y-73683905D01*
X98083019Y-73683905D02*
X98083019Y-74064857D01*
X98083019Y-74064857D02*
X98130638Y-74160095D01*
X98130638Y-74160095D02*
X98178257Y-74207714D01*
X98178257Y-74207714D02*
X98273495Y-74255333D01*
X98273495Y-74255333D02*
X98416352Y-74255333D01*
X98416352Y-74255333D02*
X98511590Y-74207714D01*
X98511590Y-74207714D02*
X98559209Y-74160095D01*
X98559209Y-74160095D02*
X98606828Y-74064857D01*
X98606828Y-74064857D02*
X98606828Y-73683905D01*
X99083019Y-74731524D02*
X99083019Y-74922000D01*
X99083019Y-74922000D02*
X99035400Y-75017238D01*
X99035400Y-75017238D02*
X98987780Y-75064857D01*
X98987780Y-75064857D02*
X98844923Y-75160095D01*
X98844923Y-75160095D02*
X98654447Y-75207714D01*
X98654447Y-75207714D02*
X98273495Y-75207714D01*
X98273495Y-75207714D02*
X98178257Y-75160095D01*
X98178257Y-75160095D02*
X98130638Y-75112476D01*
X98130638Y-75112476D02*
X98083019Y-75017238D01*
X98083019Y-75017238D02*
X98083019Y-74826762D01*
X98083019Y-74826762D02*
X98130638Y-74731524D01*
X98130638Y-74731524D02*
X98178257Y-74683905D01*
X98178257Y-74683905D02*
X98273495Y-74636286D01*
X98273495Y-74636286D02*
X98511590Y-74636286D01*
X98511590Y-74636286D02*
X98606828Y-74683905D01*
X98606828Y-74683905D02*
X98654447Y-74731524D01*
X98654447Y-74731524D02*
X98702066Y-74826762D01*
X98702066Y-74826762D02*
X98702066Y-75017238D01*
X98702066Y-75017238D02*
X98654447Y-75112476D01*
X98654447Y-75112476D02*
X98606828Y-75160095D01*
X98606828Y-75160095D02*
X98511590Y-75207714D01*
X95906780Y-93565742D02*
X95954400Y-93518123D01*
X95954400Y-93518123D02*
X96002019Y-93375266D01*
X96002019Y-93375266D02*
X96002019Y-93280028D01*
X96002019Y-93280028D02*
X95954400Y-93137171D01*
X95954400Y-93137171D02*
X95859161Y-93041933D01*
X95859161Y-93041933D02*
X95763923Y-92994314D01*
X95763923Y-92994314D02*
X95573447Y-92946695D01*
X95573447Y-92946695D02*
X95430590Y-92946695D01*
X95430590Y-92946695D02*
X95240114Y-92994314D01*
X95240114Y-92994314D02*
X95144876Y-93041933D01*
X95144876Y-93041933D02*
X95049638Y-93137171D01*
X95049638Y-93137171D02*
X95002019Y-93280028D01*
X95002019Y-93280028D02*
X95002019Y-93375266D01*
X95002019Y-93375266D02*
X95049638Y-93518123D01*
X95049638Y-93518123D02*
X95097257Y-93565742D01*
X96002019Y-94518123D02*
X96002019Y-93946695D01*
X96002019Y-94232409D02*
X95002019Y-94232409D01*
X95002019Y-94232409D02*
X95144876Y-94137171D01*
X95144876Y-94137171D02*
X95240114Y-94041933D01*
X95240114Y-94041933D02*
X95287733Y-93946695D01*
X95097257Y-94899076D02*
X95049638Y-94946695D01*
X95049638Y-94946695D02*
X95002019Y-95041933D01*
X95002019Y-95041933D02*
X95002019Y-95280028D01*
X95002019Y-95280028D02*
X95049638Y-95375266D01*
X95049638Y-95375266D02*
X95097257Y-95422885D01*
X95097257Y-95422885D02*
X95192495Y-95470504D01*
X95192495Y-95470504D02*
X95287733Y-95470504D01*
X95287733Y-95470504D02*
X95430590Y-95422885D01*
X95430590Y-95422885D02*
X96002019Y-94851457D01*
X96002019Y-94851457D02*
X96002019Y-95470504D01*
X88577657Y-87524780D02*
X88625276Y-87572400D01*
X88625276Y-87572400D02*
X88768133Y-87620019D01*
X88768133Y-87620019D02*
X88863371Y-87620019D01*
X88863371Y-87620019D02*
X89006228Y-87572400D01*
X89006228Y-87572400D02*
X89101466Y-87477161D01*
X89101466Y-87477161D02*
X89149085Y-87381923D01*
X89149085Y-87381923D02*
X89196704Y-87191447D01*
X89196704Y-87191447D02*
X89196704Y-87048590D01*
X89196704Y-87048590D02*
X89149085Y-86858114D01*
X89149085Y-86858114D02*
X89101466Y-86762876D01*
X89101466Y-86762876D02*
X89006228Y-86667638D01*
X89006228Y-86667638D02*
X88863371Y-86620019D01*
X88863371Y-86620019D02*
X88768133Y-86620019D01*
X88768133Y-86620019D02*
X88625276Y-86667638D01*
X88625276Y-86667638D02*
X88577657Y-86715257D01*
X87625276Y-87620019D02*
X88196704Y-87620019D01*
X87910990Y-87620019D02*
X87910990Y-86620019D01*
X87910990Y-86620019D02*
X88006228Y-86762876D01*
X88006228Y-86762876D02*
X88101466Y-86858114D01*
X88101466Y-86858114D02*
X88196704Y-86905733D01*
X86768133Y-86620019D02*
X86958609Y-86620019D01*
X86958609Y-86620019D02*
X87053847Y-86667638D01*
X87053847Y-86667638D02*
X87101466Y-86715257D01*
X87101466Y-86715257D02*
X87196704Y-86858114D01*
X87196704Y-86858114D02*
X87244323Y-87048590D01*
X87244323Y-87048590D02*
X87244323Y-87429542D01*
X87244323Y-87429542D02*
X87196704Y-87524780D01*
X87196704Y-87524780D02*
X87149085Y-87572400D01*
X87149085Y-87572400D02*
X87053847Y-87620019D01*
X87053847Y-87620019D02*
X86863371Y-87620019D01*
X86863371Y-87620019D02*
X86768133Y-87572400D01*
X86768133Y-87572400D02*
X86720514Y-87524780D01*
X86720514Y-87524780D02*
X86672895Y-87429542D01*
X86672895Y-87429542D02*
X86672895Y-87191447D01*
X86672895Y-87191447D02*
X86720514Y-87096209D01*
X86720514Y-87096209D02*
X86768133Y-87048590D01*
X86768133Y-87048590D02*
X86863371Y-87000971D01*
X86863371Y-87000971D02*
X87053847Y-87000971D01*
X87053847Y-87000971D02*
X87149085Y-87048590D01*
X87149085Y-87048590D02*
X87196704Y-87096209D01*
X87196704Y-87096209D02*
X87244323Y-87191447D01*
X101950457Y-85618080D02*
X101998076Y-85665700D01*
X101998076Y-85665700D02*
X102140933Y-85713319D01*
X102140933Y-85713319D02*
X102236171Y-85713319D01*
X102236171Y-85713319D02*
X102379028Y-85665700D01*
X102379028Y-85665700D02*
X102474266Y-85570461D01*
X102474266Y-85570461D02*
X102521885Y-85475223D01*
X102521885Y-85475223D02*
X102569504Y-85284747D01*
X102569504Y-85284747D02*
X102569504Y-85141890D01*
X102569504Y-85141890D02*
X102521885Y-84951414D01*
X102521885Y-84951414D02*
X102474266Y-84856176D01*
X102474266Y-84856176D02*
X102379028Y-84760938D01*
X102379028Y-84760938D02*
X102236171Y-84713319D01*
X102236171Y-84713319D02*
X102140933Y-84713319D01*
X102140933Y-84713319D02*
X101998076Y-84760938D01*
X101998076Y-84760938D02*
X101950457Y-84808557D01*
X100998076Y-85713319D02*
X101569504Y-85713319D01*
X101283790Y-85713319D02*
X101283790Y-84713319D01*
X101283790Y-84713319D02*
X101379028Y-84856176D01*
X101379028Y-84856176D02*
X101474266Y-84951414D01*
X101474266Y-84951414D02*
X101569504Y-84999033D01*
X100379028Y-84713319D02*
X100283790Y-84713319D01*
X100283790Y-84713319D02*
X100188552Y-84760938D01*
X100188552Y-84760938D02*
X100140933Y-84808557D01*
X100140933Y-84808557D02*
X100093314Y-84903795D01*
X100093314Y-84903795D02*
X100045695Y-85094271D01*
X100045695Y-85094271D02*
X100045695Y-85332366D01*
X100045695Y-85332366D02*
X100093314Y-85522842D01*
X100093314Y-85522842D02*
X100140933Y-85618080D01*
X100140933Y-85618080D02*
X100188552Y-85665700D01*
X100188552Y-85665700D02*
X100283790Y-85713319D01*
X100283790Y-85713319D02*
X100379028Y-85713319D01*
X100379028Y-85713319D02*
X100474266Y-85665700D01*
X100474266Y-85665700D02*
X100521885Y-85618080D01*
X100521885Y-85618080D02*
X100569504Y-85522842D01*
X100569504Y-85522842D02*
X100617123Y-85332366D01*
X100617123Y-85332366D02*
X100617123Y-85094271D01*
X100617123Y-85094271D02*
X100569504Y-84903795D01*
X100569504Y-84903795D02*
X100521885Y-84808557D01*
X100521885Y-84808557D02*
X100474266Y-84760938D01*
X100474266Y-84760938D02*
X100379028Y-84713319D01*
X64716819Y-60411905D02*
X63716819Y-60411905D01*
X63716819Y-60411905D02*
X63716819Y-60650000D01*
X63716819Y-60650000D02*
X63764438Y-60792857D01*
X63764438Y-60792857D02*
X63859676Y-60888095D01*
X63859676Y-60888095D02*
X63954914Y-60935714D01*
X63954914Y-60935714D02*
X64145390Y-60983333D01*
X64145390Y-60983333D02*
X64288247Y-60983333D01*
X64288247Y-60983333D02*
X64478723Y-60935714D01*
X64478723Y-60935714D02*
X64573961Y-60888095D01*
X64573961Y-60888095D02*
X64669200Y-60792857D01*
X64669200Y-60792857D02*
X64716819Y-60650000D01*
X64716819Y-60650000D02*
X64716819Y-60411905D01*
X63716819Y-61840476D02*
X63716819Y-61650000D01*
X63716819Y-61650000D02*
X63764438Y-61554762D01*
X63764438Y-61554762D02*
X63812057Y-61507143D01*
X63812057Y-61507143D02*
X63954914Y-61411905D01*
X63954914Y-61411905D02*
X64145390Y-61364286D01*
X64145390Y-61364286D02*
X64526342Y-61364286D01*
X64526342Y-61364286D02*
X64621580Y-61411905D01*
X64621580Y-61411905D02*
X64669200Y-61459524D01*
X64669200Y-61459524D02*
X64716819Y-61554762D01*
X64716819Y-61554762D02*
X64716819Y-61745238D01*
X64716819Y-61745238D02*
X64669200Y-61840476D01*
X64669200Y-61840476D02*
X64621580Y-61888095D01*
X64621580Y-61888095D02*
X64526342Y-61935714D01*
X64526342Y-61935714D02*
X64288247Y-61935714D01*
X64288247Y-61935714D02*
X64193009Y-61888095D01*
X64193009Y-61888095D02*
X64145390Y-61840476D01*
X64145390Y-61840476D02*
X64097771Y-61745238D01*
X64097771Y-61745238D02*
X64097771Y-61554762D01*
X64097771Y-61554762D02*
X64145390Y-61459524D01*
X64145390Y-61459524D02*
X64193009Y-61411905D01*
X64193009Y-61411905D02*
X64288247Y-61364286D01*
X101343619Y-74179133D02*
X100867428Y-73845800D01*
X101343619Y-73607705D02*
X100343619Y-73607705D01*
X100343619Y-73607705D02*
X100343619Y-73988657D01*
X100343619Y-73988657D02*
X100391238Y-74083895D01*
X100391238Y-74083895D02*
X100438857Y-74131514D01*
X100438857Y-74131514D02*
X100534095Y-74179133D01*
X100534095Y-74179133D02*
X100676952Y-74179133D01*
X100676952Y-74179133D02*
X100772190Y-74131514D01*
X100772190Y-74131514D02*
X100819809Y-74083895D01*
X100819809Y-74083895D02*
X100867428Y-73988657D01*
X100867428Y-73988657D02*
X100867428Y-73607705D01*
X100676952Y-75036276D02*
X101343619Y-75036276D01*
X100296000Y-74798181D02*
X101010285Y-74560086D01*
X101010285Y-74560086D02*
X101010285Y-75179133D01*
X45666819Y-60411905D02*
X44666819Y-60411905D01*
X44666819Y-60411905D02*
X44666819Y-60650000D01*
X44666819Y-60650000D02*
X44714438Y-60792857D01*
X44714438Y-60792857D02*
X44809676Y-60888095D01*
X44809676Y-60888095D02*
X44904914Y-60935714D01*
X44904914Y-60935714D02*
X45095390Y-60983333D01*
X45095390Y-60983333D02*
X45238247Y-60983333D01*
X45238247Y-60983333D02*
X45428723Y-60935714D01*
X45428723Y-60935714D02*
X45523961Y-60888095D01*
X45523961Y-60888095D02*
X45619200Y-60792857D01*
X45619200Y-60792857D02*
X45666819Y-60650000D01*
X45666819Y-60650000D02*
X45666819Y-60411905D01*
X44666819Y-61888095D02*
X44666819Y-61411905D01*
X44666819Y-61411905D02*
X45143009Y-61364286D01*
X45143009Y-61364286D02*
X45095390Y-61411905D01*
X45095390Y-61411905D02*
X45047771Y-61507143D01*
X45047771Y-61507143D02*
X45047771Y-61745238D01*
X45047771Y-61745238D02*
X45095390Y-61840476D01*
X45095390Y-61840476D02*
X45143009Y-61888095D01*
X45143009Y-61888095D02*
X45238247Y-61935714D01*
X45238247Y-61935714D02*
X45476342Y-61935714D01*
X45476342Y-61935714D02*
X45571580Y-61888095D01*
X45571580Y-61888095D02*
X45619200Y-61840476D01*
X45619200Y-61840476D02*
X45666819Y-61745238D01*
X45666819Y-61745238D02*
X45666819Y-61507143D01*
X45666819Y-61507143D02*
X45619200Y-61411905D01*
X45619200Y-61411905D02*
X45571580Y-61364286D01*
X102065057Y-95236180D02*
X102112676Y-95283800D01*
X102112676Y-95283800D02*
X102255533Y-95331419D01*
X102255533Y-95331419D02*
X102350771Y-95331419D01*
X102350771Y-95331419D02*
X102493628Y-95283800D01*
X102493628Y-95283800D02*
X102588866Y-95188561D01*
X102588866Y-95188561D02*
X102636485Y-95093323D01*
X102636485Y-95093323D02*
X102684104Y-94902847D01*
X102684104Y-94902847D02*
X102684104Y-94759990D01*
X102684104Y-94759990D02*
X102636485Y-94569514D01*
X102636485Y-94569514D02*
X102588866Y-94474276D01*
X102588866Y-94474276D02*
X102493628Y-94379038D01*
X102493628Y-94379038D02*
X102350771Y-94331419D01*
X102350771Y-94331419D02*
X102255533Y-94331419D01*
X102255533Y-94331419D02*
X102112676Y-94379038D01*
X102112676Y-94379038D02*
X102065057Y-94426657D01*
X101112676Y-95331419D02*
X101684104Y-95331419D01*
X101398390Y-95331419D02*
X101398390Y-94331419D01*
X101398390Y-94331419D02*
X101493628Y-94474276D01*
X101493628Y-94474276D02*
X101588866Y-94569514D01*
X101588866Y-94569514D02*
X101684104Y-94617133D01*
X100255533Y-94664752D02*
X100255533Y-95331419D01*
X100493628Y-94283800D02*
X100731723Y-94998085D01*
X100731723Y-94998085D02*
X100112676Y-94998085D01*
X83868419Y-98035714D02*
X82868419Y-98035714D01*
X82868419Y-98035714D02*
X82868419Y-98273809D01*
X82868419Y-98273809D02*
X82916038Y-98416666D01*
X82916038Y-98416666D02*
X83011276Y-98511904D01*
X83011276Y-98511904D02*
X83106514Y-98559523D01*
X83106514Y-98559523D02*
X83296990Y-98607142D01*
X83296990Y-98607142D02*
X83439847Y-98607142D01*
X83439847Y-98607142D02*
X83630323Y-98559523D01*
X83630323Y-98559523D02*
X83725561Y-98511904D01*
X83725561Y-98511904D02*
X83820800Y-98416666D01*
X83820800Y-98416666D02*
X83868419Y-98273809D01*
X83868419Y-98273809D02*
X83868419Y-98035714D01*
X83868419Y-99559523D02*
X83868419Y-98988095D01*
X83868419Y-99273809D02*
X82868419Y-99273809D01*
X82868419Y-99273809D02*
X83011276Y-99178571D01*
X83011276Y-99178571D02*
X83106514Y-99083333D01*
X83106514Y-99083333D02*
X83154133Y-98988095D01*
X83201752Y-100416666D02*
X83868419Y-100416666D01*
X82820800Y-100178571D02*
X83535085Y-99940476D01*
X83535085Y-99940476D02*
X83535085Y-100559523D01*
X55979219Y-117085714D02*
X54979219Y-117085714D01*
X54979219Y-117085714D02*
X54979219Y-117323809D01*
X54979219Y-117323809D02*
X55026838Y-117466666D01*
X55026838Y-117466666D02*
X55122076Y-117561904D01*
X55122076Y-117561904D02*
X55217314Y-117609523D01*
X55217314Y-117609523D02*
X55407790Y-117657142D01*
X55407790Y-117657142D02*
X55550647Y-117657142D01*
X55550647Y-117657142D02*
X55741123Y-117609523D01*
X55741123Y-117609523D02*
X55836361Y-117561904D01*
X55836361Y-117561904D02*
X55931600Y-117466666D01*
X55931600Y-117466666D02*
X55979219Y-117323809D01*
X55979219Y-117323809D02*
X55979219Y-117085714D01*
X55979219Y-118609523D02*
X55979219Y-118038095D01*
X55979219Y-118323809D02*
X54979219Y-118323809D01*
X54979219Y-118323809D02*
X55122076Y-118228571D01*
X55122076Y-118228571D02*
X55217314Y-118133333D01*
X55217314Y-118133333D02*
X55264933Y-118038095D01*
X54979219Y-119466666D02*
X54979219Y-119276190D01*
X54979219Y-119276190D02*
X55026838Y-119180952D01*
X55026838Y-119180952D02*
X55074457Y-119133333D01*
X55074457Y-119133333D02*
X55217314Y-119038095D01*
X55217314Y-119038095D02*
X55407790Y-118990476D01*
X55407790Y-118990476D02*
X55788742Y-118990476D01*
X55788742Y-118990476D02*
X55883980Y-119038095D01*
X55883980Y-119038095D02*
X55931600Y-119085714D01*
X55931600Y-119085714D02*
X55979219Y-119180952D01*
X55979219Y-119180952D02*
X55979219Y-119371428D01*
X55979219Y-119371428D02*
X55931600Y-119466666D01*
X55931600Y-119466666D02*
X55883980Y-119514285D01*
X55883980Y-119514285D02*
X55788742Y-119561904D01*
X55788742Y-119561904D02*
X55550647Y-119561904D01*
X55550647Y-119561904D02*
X55455409Y-119514285D01*
X55455409Y-119514285D02*
X55407790Y-119466666D01*
X55407790Y-119466666D02*
X55360171Y-119371428D01*
X55360171Y-119371428D02*
X55360171Y-119180952D01*
X55360171Y-119180952D02*
X55407790Y-119085714D01*
X55407790Y-119085714D02*
X55455409Y-119038095D01*
X55455409Y-119038095D02*
X55550647Y-118990476D01*
X83919219Y-41361905D02*
X82919219Y-41361905D01*
X82919219Y-41361905D02*
X82919219Y-41600000D01*
X82919219Y-41600000D02*
X82966838Y-41742857D01*
X82966838Y-41742857D02*
X83062076Y-41838095D01*
X83062076Y-41838095D02*
X83157314Y-41885714D01*
X83157314Y-41885714D02*
X83347790Y-41933333D01*
X83347790Y-41933333D02*
X83490647Y-41933333D01*
X83490647Y-41933333D02*
X83681123Y-41885714D01*
X83681123Y-41885714D02*
X83776361Y-41838095D01*
X83776361Y-41838095D02*
X83871600Y-41742857D01*
X83871600Y-41742857D02*
X83919219Y-41600000D01*
X83919219Y-41600000D02*
X83919219Y-41361905D01*
X82919219Y-42266667D02*
X82919219Y-42885714D01*
X82919219Y-42885714D02*
X83300171Y-42552381D01*
X83300171Y-42552381D02*
X83300171Y-42695238D01*
X83300171Y-42695238D02*
X83347790Y-42790476D01*
X83347790Y-42790476D02*
X83395409Y-42838095D01*
X83395409Y-42838095D02*
X83490647Y-42885714D01*
X83490647Y-42885714D02*
X83728742Y-42885714D01*
X83728742Y-42885714D02*
X83823980Y-42838095D01*
X83823980Y-42838095D02*
X83871600Y-42790476D01*
X83871600Y-42790476D02*
X83919219Y-42695238D01*
X83919219Y-42695238D02*
X83919219Y-42409524D01*
X83919219Y-42409524D02*
X83871600Y-42314286D01*
X83871600Y-42314286D02*
X83823980Y-42266667D01*
X83766819Y-78985714D02*
X82766819Y-78985714D01*
X82766819Y-78985714D02*
X82766819Y-79223809D01*
X82766819Y-79223809D02*
X82814438Y-79366666D01*
X82814438Y-79366666D02*
X82909676Y-79461904D01*
X82909676Y-79461904D02*
X83004914Y-79509523D01*
X83004914Y-79509523D02*
X83195390Y-79557142D01*
X83195390Y-79557142D02*
X83338247Y-79557142D01*
X83338247Y-79557142D02*
X83528723Y-79509523D01*
X83528723Y-79509523D02*
X83623961Y-79461904D01*
X83623961Y-79461904D02*
X83719200Y-79366666D01*
X83719200Y-79366666D02*
X83766819Y-79223809D01*
X83766819Y-79223809D02*
X83766819Y-78985714D01*
X83766819Y-80509523D02*
X83766819Y-79938095D01*
X83766819Y-80223809D02*
X82766819Y-80223809D01*
X82766819Y-80223809D02*
X82909676Y-80128571D01*
X82909676Y-80128571D02*
X83004914Y-80033333D01*
X83004914Y-80033333D02*
X83052533Y-79938095D01*
X83766819Y-81461904D02*
X83766819Y-80890476D01*
X83766819Y-81176190D02*
X82766819Y-81176190D01*
X82766819Y-81176190D02*
X82909676Y-81080952D01*
X82909676Y-81080952D02*
X83004914Y-80985714D01*
X83004914Y-80985714D02*
X83052533Y-80890476D01*
X103208057Y-23840619D02*
X103541390Y-23364428D01*
X103779485Y-23840619D02*
X103779485Y-22840619D01*
X103779485Y-22840619D02*
X103398533Y-22840619D01*
X103398533Y-22840619D02*
X103303295Y-22888238D01*
X103303295Y-22888238D02*
X103255676Y-22935857D01*
X103255676Y-22935857D02*
X103208057Y-23031095D01*
X103208057Y-23031095D02*
X103208057Y-23173952D01*
X103208057Y-23173952D02*
X103255676Y-23269190D01*
X103255676Y-23269190D02*
X103303295Y-23316809D01*
X103303295Y-23316809D02*
X103398533Y-23364428D01*
X103398533Y-23364428D02*
X103779485Y-23364428D01*
X102255676Y-23840619D02*
X102827104Y-23840619D01*
X102541390Y-23840619D02*
X102541390Y-22840619D01*
X102541390Y-22840619D02*
X102636628Y-22983476D01*
X102636628Y-22983476D02*
X102731866Y-23078714D01*
X102731866Y-23078714D02*
X102827104Y-23126333D01*
X101303295Y-23840619D02*
X101874723Y-23840619D01*
X101589009Y-23840619D02*
X101589009Y-22840619D01*
X101589009Y-22840619D02*
X101684247Y-22983476D01*
X101684247Y-22983476D02*
X101779485Y-23078714D01*
X101779485Y-23078714D02*
X101874723Y-23126333D01*
X101245666Y-89580480D02*
X101293285Y-89628100D01*
X101293285Y-89628100D02*
X101436142Y-89675719D01*
X101436142Y-89675719D02*
X101531380Y-89675719D01*
X101531380Y-89675719D02*
X101674237Y-89628100D01*
X101674237Y-89628100D02*
X101769475Y-89532861D01*
X101769475Y-89532861D02*
X101817094Y-89437623D01*
X101817094Y-89437623D02*
X101864713Y-89247147D01*
X101864713Y-89247147D02*
X101864713Y-89104290D01*
X101864713Y-89104290D02*
X101817094Y-88913814D01*
X101817094Y-88913814D02*
X101769475Y-88818576D01*
X101769475Y-88818576D02*
X101674237Y-88723338D01*
X101674237Y-88723338D02*
X101531380Y-88675719D01*
X101531380Y-88675719D02*
X101436142Y-88675719D01*
X101436142Y-88675719D02*
X101293285Y-88723338D01*
X101293285Y-88723338D02*
X101245666Y-88770957D01*
X100769475Y-89675719D02*
X100578999Y-89675719D01*
X100578999Y-89675719D02*
X100483761Y-89628100D01*
X100483761Y-89628100D02*
X100436142Y-89580480D01*
X100436142Y-89580480D02*
X100340904Y-89437623D01*
X100340904Y-89437623D02*
X100293285Y-89247147D01*
X100293285Y-89247147D02*
X100293285Y-88866195D01*
X100293285Y-88866195D02*
X100340904Y-88770957D01*
X100340904Y-88770957D02*
X100388523Y-88723338D01*
X100388523Y-88723338D02*
X100483761Y-88675719D01*
X100483761Y-88675719D02*
X100674237Y-88675719D01*
X100674237Y-88675719D02*
X100769475Y-88723338D01*
X100769475Y-88723338D02*
X100817094Y-88770957D01*
X100817094Y-88770957D02*
X100864713Y-88866195D01*
X100864713Y-88866195D02*
X100864713Y-89104290D01*
X100864713Y-89104290D02*
X100817094Y-89199528D01*
X100817094Y-89199528D02*
X100769475Y-89247147D01*
X100769475Y-89247147D02*
X100674237Y-89294766D01*
X100674237Y-89294766D02*
X100483761Y-89294766D01*
X100483761Y-89294766D02*
X100388523Y-89247147D01*
X100388523Y-89247147D02*
X100340904Y-89199528D01*
X100340904Y-89199528D02*
X100293285Y-89104290D01*
X58281866Y-26304419D02*
X58615199Y-25828228D01*
X58853294Y-26304419D02*
X58853294Y-25304419D01*
X58853294Y-25304419D02*
X58472342Y-25304419D01*
X58472342Y-25304419D02*
X58377104Y-25352038D01*
X58377104Y-25352038D02*
X58329485Y-25399657D01*
X58329485Y-25399657D02*
X58281866Y-25494895D01*
X58281866Y-25494895D02*
X58281866Y-25637752D01*
X58281866Y-25637752D02*
X58329485Y-25732990D01*
X58329485Y-25732990D02*
X58377104Y-25780609D01*
X58377104Y-25780609D02*
X58472342Y-25828228D01*
X58472342Y-25828228D02*
X58853294Y-25828228D01*
X57329485Y-26304419D02*
X57900913Y-26304419D01*
X57615199Y-26304419D02*
X57615199Y-25304419D01*
X57615199Y-25304419D02*
X57710437Y-25447276D01*
X57710437Y-25447276D02*
X57805675Y-25542514D01*
X57805675Y-25542514D02*
X57900913Y-25590133D01*
X87396485Y-31773019D02*
X87396485Y-30773019D01*
X87396485Y-30773019D02*
X87158390Y-30773019D01*
X87158390Y-30773019D02*
X87015533Y-30820638D01*
X87015533Y-30820638D02*
X86920295Y-30915876D01*
X86920295Y-30915876D02*
X86872676Y-31011114D01*
X86872676Y-31011114D02*
X86825057Y-31201590D01*
X86825057Y-31201590D02*
X86825057Y-31344447D01*
X86825057Y-31344447D02*
X86872676Y-31534923D01*
X86872676Y-31534923D02*
X86920295Y-31630161D01*
X86920295Y-31630161D02*
X87015533Y-31725400D01*
X87015533Y-31725400D02*
X87158390Y-31773019D01*
X87158390Y-31773019D02*
X87396485Y-31773019D01*
X86444104Y-30868257D02*
X86396485Y-30820638D01*
X86396485Y-30820638D02*
X86301247Y-30773019D01*
X86301247Y-30773019D02*
X86063152Y-30773019D01*
X86063152Y-30773019D02*
X85967914Y-30820638D01*
X85967914Y-30820638D02*
X85920295Y-30868257D01*
X85920295Y-30868257D02*
X85872676Y-30963495D01*
X85872676Y-30963495D02*
X85872676Y-31058733D01*
X85872676Y-31058733D02*
X85920295Y-31201590D01*
X85920295Y-31201590D02*
X86491723Y-31773019D01*
X86491723Y-31773019D02*
X85872676Y-31773019D01*
X85539342Y-30773019D02*
X84920295Y-30773019D01*
X84920295Y-30773019D02*
X85253628Y-31153971D01*
X85253628Y-31153971D02*
X85110771Y-31153971D01*
X85110771Y-31153971D02*
X85015533Y-31201590D01*
X85015533Y-31201590D02*
X84967914Y-31249209D01*
X84967914Y-31249209D02*
X84920295Y-31344447D01*
X84920295Y-31344447D02*
X84920295Y-31582542D01*
X84920295Y-31582542D02*
X84967914Y-31677780D01*
X84967914Y-31677780D02*
X85015533Y-31725400D01*
X85015533Y-31725400D02*
X85110771Y-31773019D01*
X85110771Y-31773019D02*
X85396485Y-31773019D01*
X85396485Y-31773019D02*
X85491723Y-31725400D01*
X85491723Y-31725400D02*
X85539342Y-31677780D01*
X86770428Y-76384209D02*
X87246619Y-76384209D01*
X86246619Y-76050876D02*
X86770428Y-76384209D01*
X86770428Y-76384209D02*
X86246619Y-76717542D01*
X87246619Y-77574685D02*
X87246619Y-77003257D01*
X87246619Y-77288971D02*
X86246619Y-77288971D01*
X86246619Y-77288971D02*
X86389476Y-77193733D01*
X86389476Y-77193733D02*
X86484714Y-77098495D01*
X86484714Y-77098495D02*
X86532333Y-77003257D01*
X81184522Y-26907200D02*
X81041665Y-26954819D01*
X81041665Y-26954819D02*
X80803570Y-26954819D01*
X80803570Y-26954819D02*
X80708332Y-26907200D01*
X80708332Y-26907200D02*
X80660713Y-26859580D01*
X80660713Y-26859580D02*
X80613094Y-26764342D01*
X80613094Y-26764342D02*
X80613094Y-26669104D01*
X80613094Y-26669104D02*
X80660713Y-26573866D01*
X80660713Y-26573866D02*
X80708332Y-26526247D01*
X80708332Y-26526247D02*
X80803570Y-26478628D01*
X80803570Y-26478628D02*
X80994046Y-26431009D01*
X80994046Y-26431009D02*
X81089284Y-26383390D01*
X81089284Y-26383390D02*
X81136903Y-26335771D01*
X81136903Y-26335771D02*
X81184522Y-26240533D01*
X81184522Y-26240533D02*
X81184522Y-26145295D01*
X81184522Y-26145295D02*
X81136903Y-26050057D01*
X81136903Y-26050057D02*
X81089284Y-26002438D01*
X81089284Y-26002438D02*
X80994046Y-25954819D01*
X80994046Y-25954819D02*
X80755951Y-25954819D01*
X80755951Y-25954819D02*
X80613094Y-26002438D01*
X80279760Y-25954819D02*
X80041665Y-26954819D01*
X80041665Y-26954819D02*
X79851189Y-26240533D01*
X79851189Y-26240533D02*
X79660713Y-26954819D01*
X79660713Y-26954819D02*
X79422618Y-25954819D01*
X79089284Y-26050057D02*
X79041665Y-26002438D01*
X79041665Y-26002438D02*
X78946427Y-25954819D01*
X78946427Y-25954819D02*
X78708332Y-25954819D01*
X78708332Y-25954819D02*
X78613094Y-26002438D01*
X78613094Y-26002438D02*
X78565475Y-26050057D01*
X78565475Y-26050057D02*
X78517856Y-26145295D01*
X78517856Y-26145295D02*
X78517856Y-26240533D01*
X78517856Y-26240533D02*
X78565475Y-26383390D01*
X78565475Y-26383390D02*
X79136903Y-26954819D01*
X79136903Y-26954819D02*
X78517856Y-26954819D01*
X78136903Y-26050057D02*
X78089284Y-26002438D01*
X78089284Y-26002438D02*
X77994046Y-25954819D01*
X77994046Y-25954819D02*
X77755951Y-25954819D01*
X77755951Y-25954819D02*
X77660713Y-26002438D01*
X77660713Y-26002438D02*
X77613094Y-26050057D01*
X77613094Y-26050057D02*
X77565475Y-26145295D01*
X77565475Y-26145295D02*
X77565475Y-26240533D01*
X77565475Y-26240533D02*
X77613094Y-26383390D01*
X77613094Y-26383390D02*
X78184522Y-26954819D01*
X78184522Y-26954819D02*
X77565475Y-26954819D01*
X73778989Y-27579887D02*
X73731370Y-27437030D01*
X73731370Y-27437030D02*
X73683751Y-27389411D01*
X73683751Y-27389411D02*
X73588513Y-27341792D01*
X73588513Y-27341792D02*
X73445656Y-27341792D01*
X73445656Y-27341792D02*
X73350418Y-27389411D01*
X73350418Y-27389411D02*
X73302799Y-27437030D01*
X73302799Y-27437030D02*
X73255179Y-27532268D01*
X73255179Y-27532268D02*
X73255179Y-27913220D01*
X73255179Y-27913220D02*
X74255179Y-27913220D01*
X74255179Y-27913220D02*
X74255179Y-27579887D01*
X74255179Y-27579887D02*
X74207560Y-27484649D01*
X74207560Y-27484649D02*
X74159941Y-27437030D01*
X74159941Y-27437030D02*
X74064703Y-27389411D01*
X74064703Y-27389411D02*
X73969465Y-27389411D01*
X73969465Y-27389411D02*
X73874227Y-27437030D01*
X73874227Y-27437030D02*
X73826608Y-27484649D01*
X73826608Y-27484649D02*
X73778989Y-27579887D01*
X73778989Y-27579887D02*
X73778989Y-27913220D01*
X74255179Y-26722744D02*
X74255179Y-26532268D01*
X74255179Y-26532268D02*
X74207560Y-26437030D01*
X74207560Y-26437030D02*
X74112322Y-26341792D01*
X74112322Y-26341792D02*
X73921846Y-26294173D01*
X73921846Y-26294173D02*
X73588513Y-26294173D01*
X73588513Y-26294173D02*
X73398037Y-26341792D01*
X73398037Y-26341792D02*
X73302799Y-26437030D01*
X73302799Y-26437030D02*
X73255179Y-26532268D01*
X73255179Y-26532268D02*
X73255179Y-26722744D01*
X73255179Y-26722744D02*
X73302799Y-26817982D01*
X73302799Y-26817982D02*
X73398037Y-26913220D01*
X73398037Y-26913220D02*
X73588513Y-26960839D01*
X73588513Y-26960839D02*
X73921846Y-26960839D01*
X73921846Y-26960839D02*
X74112322Y-26913220D01*
X74112322Y-26913220D02*
X74207560Y-26817982D01*
X74207560Y-26817982D02*
X74255179Y-26722744D01*
X74255179Y-25675125D02*
X74255179Y-25484649D01*
X74255179Y-25484649D02*
X74207560Y-25389411D01*
X74207560Y-25389411D02*
X74112322Y-25294173D01*
X74112322Y-25294173D02*
X73921846Y-25246554D01*
X73921846Y-25246554D02*
X73588513Y-25246554D01*
X73588513Y-25246554D02*
X73398037Y-25294173D01*
X73398037Y-25294173D02*
X73302799Y-25389411D01*
X73302799Y-25389411D02*
X73255179Y-25484649D01*
X73255179Y-25484649D02*
X73255179Y-25675125D01*
X73255179Y-25675125D02*
X73302799Y-25770363D01*
X73302799Y-25770363D02*
X73398037Y-25865601D01*
X73398037Y-25865601D02*
X73588513Y-25913220D01*
X73588513Y-25913220D02*
X73921846Y-25913220D01*
X73921846Y-25913220D02*
X74112322Y-25865601D01*
X74112322Y-25865601D02*
X74207560Y-25770363D01*
X74207560Y-25770363D02*
X74255179Y-25675125D01*
X74255179Y-24960839D02*
X74255179Y-24389411D01*
X73255179Y-24675125D02*
X74255179Y-24675125D01*
X102816819Y-41361905D02*
X101816819Y-41361905D01*
X101816819Y-41361905D02*
X101816819Y-41600000D01*
X101816819Y-41600000D02*
X101864438Y-41742857D01*
X101864438Y-41742857D02*
X101959676Y-41838095D01*
X101959676Y-41838095D02*
X102054914Y-41885714D01*
X102054914Y-41885714D02*
X102245390Y-41933333D01*
X102245390Y-41933333D02*
X102388247Y-41933333D01*
X102388247Y-41933333D02*
X102578723Y-41885714D01*
X102578723Y-41885714D02*
X102673961Y-41838095D01*
X102673961Y-41838095D02*
X102769200Y-41742857D01*
X102769200Y-41742857D02*
X102816819Y-41600000D01*
X102816819Y-41600000D02*
X102816819Y-41361905D01*
X102150152Y-42790476D02*
X102816819Y-42790476D01*
X101769200Y-42552381D02*
X102483485Y-42314286D01*
X102483485Y-42314286D02*
X102483485Y-42933333D01*
X86767295Y-91891876D02*
X87414914Y-91891876D01*
X87414914Y-91891876D02*
X87491104Y-91929971D01*
X87491104Y-91929971D02*
X87529200Y-91968066D01*
X87529200Y-91968066D02*
X87567295Y-92044257D01*
X87567295Y-92044257D02*
X87567295Y-92196638D01*
X87567295Y-92196638D02*
X87529200Y-92272828D01*
X87529200Y-92272828D02*
X87491104Y-92310923D01*
X87491104Y-92310923D02*
X87414914Y-92349019D01*
X87414914Y-92349019D02*
X86767295Y-92349019D01*
X86767295Y-93110923D02*
X86767295Y-92729971D01*
X86767295Y-92729971D02*
X87148247Y-92691875D01*
X87148247Y-92691875D02*
X87110152Y-92729971D01*
X87110152Y-92729971D02*
X87072057Y-92806161D01*
X87072057Y-92806161D02*
X87072057Y-92996637D01*
X87072057Y-92996637D02*
X87110152Y-93072828D01*
X87110152Y-93072828D02*
X87148247Y-93110923D01*
X87148247Y-93110923D02*
X87224438Y-93149018D01*
X87224438Y-93149018D02*
X87414914Y-93149018D01*
X87414914Y-93149018D02*
X87491104Y-93110923D01*
X87491104Y-93110923D02*
X87529200Y-93072828D01*
X87529200Y-93072828D02*
X87567295Y-92996637D01*
X87567295Y-92996637D02*
X87567295Y-92806161D01*
X87567295Y-92806161D02*
X87529200Y-92729971D01*
X87529200Y-92729971D02*
X87491104Y-92691875D01*
X91539219Y-76744533D02*
X91063028Y-76411200D01*
X91539219Y-76173105D02*
X90539219Y-76173105D01*
X90539219Y-76173105D02*
X90539219Y-76554057D01*
X90539219Y-76554057D02*
X90586838Y-76649295D01*
X90586838Y-76649295D02*
X90634457Y-76696914D01*
X90634457Y-76696914D02*
X90729695Y-76744533D01*
X90729695Y-76744533D02*
X90872552Y-76744533D01*
X90872552Y-76744533D02*
X90967790Y-76696914D01*
X90967790Y-76696914D02*
X91015409Y-76649295D01*
X91015409Y-76649295D02*
X91063028Y-76554057D01*
X91063028Y-76554057D02*
X91063028Y-76173105D01*
X90539219Y-77601676D02*
X90539219Y-77411200D01*
X90539219Y-77411200D02*
X90586838Y-77315962D01*
X90586838Y-77315962D02*
X90634457Y-77268343D01*
X90634457Y-77268343D02*
X90777314Y-77173105D01*
X90777314Y-77173105D02*
X90967790Y-77125486D01*
X90967790Y-77125486D02*
X91348742Y-77125486D01*
X91348742Y-77125486D02*
X91443980Y-77173105D01*
X91443980Y-77173105D02*
X91491600Y-77220724D01*
X91491600Y-77220724D02*
X91539219Y-77315962D01*
X91539219Y-77315962D02*
X91539219Y-77506438D01*
X91539219Y-77506438D02*
X91491600Y-77601676D01*
X91491600Y-77601676D02*
X91443980Y-77649295D01*
X91443980Y-77649295D02*
X91348742Y-77696914D01*
X91348742Y-77696914D02*
X91110647Y-77696914D01*
X91110647Y-77696914D02*
X91015409Y-77649295D01*
X91015409Y-77649295D02*
X90967790Y-77601676D01*
X90967790Y-77601676D02*
X90920171Y-77506438D01*
X90920171Y-77506438D02*
X90920171Y-77315962D01*
X90920171Y-77315962D02*
X90967790Y-77220724D01*
X90967790Y-77220724D02*
X91015409Y-77173105D01*
X91015409Y-77173105D02*
X91110647Y-77125486D01*
X45666819Y-98035714D02*
X44666819Y-98035714D01*
X44666819Y-98035714D02*
X44666819Y-98273809D01*
X44666819Y-98273809D02*
X44714438Y-98416666D01*
X44714438Y-98416666D02*
X44809676Y-98511904D01*
X44809676Y-98511904D02*
X44904914Y-98559523D01*
X44904914Y-98559523D02*
X45095390Y-98607142D01*
X45095390Y-98607142D02*
X45238247Y-98607142D01*
X45238247Y-98607142D02*
X45428723Y-98559523D01*
X45428723Y-98559523D02*
X45523961Y-98511904D01*
X45523961Y-98511904D02*
X45619200Y-98416666D01*
X45619200Y-98416666D02*
X45666819Y-98273809D01*
X45666819Y-98273809D02*
X45666819Y-98035714D01*
X45666819Y-99559523D02*
X45666819Y-98988095D01*
X45666819Y-99273809D02*
X44666819Y-99273809D01*
X44666819Y-99273809D02*
X44809676Y-99178571D01*
X44809676Y-99178571D02*
X44904914Y-99083333D01*
X44904914Y-99083333D02*
X44952533Y-98988095D01*
X44762057Y-99940476D02*
X44714438Y-99988095D01*
X44714438Y-99988095D02*
X44666819Y-100083333D01*
X44666819Y-100083333D02*
X44666819Y-100321428D01*
X44666819Y-100321428D02*
X44714438Y-100416666D01*
X44714438Y-100416666D02*
X44762057Y-100464285D01*
X44762057Y-100464285D02*
X44857295Y-100511904D01*
X44857295Y-100511904D02*
X44952533Y-100511904D01*
X44952533Y-100511904D02*
X45095390Y-100464285D01*
X45095390Y-100464285D02*
X45666819Y-99892857D01*
X45666819Y-99892857D02*
X45666819Y-100511904D01*
X103070819Y-74229933D02*
X102594628Y-73896600D01*
X103070819Y-73658505D02*
X102070819Y-73658505D01*
X102070819Y-73658505D02*
X102070819Y-74039457D01*
X102070819Y-74039457D02*
X102118438Y-74134695D01*
X102118438Y-74134695D02*
X102166057Y-74182314D01*
X102166057Y-74182314D02*
X102261295Y-74229933D01*
X102261295Y-74229933D02*
X102404152Y-74229933D01*
X102404152Y-74229933D02*
X102499390Y-74182314D01*
X102499390Y-74182314D02*
X102547009Y-74134695D01*
X102547009Y-74134695D02*
X102594628Y-74039457D01*
X102594628Y-74039457D02*
X102594628Y-73658505D01*
X102070819Y-74563267D02*
X102070819Y-75182314D01*
X102070819Y-75182314D02*
X102451771Y-74848981D01*
X102451771Y-74848981D02*
X102451771Y-74991838D01*
X102451771Y-74991838D02*
X102499390Y-75087076D01*
X102499390Y-75087076D02*
X102547009Y-75134695D01*
X102547009Y-75134695D02*
X102642247Y-75182314D01*
X102642247Y-75182314D02*
X102880342Y-75182314D01*
X102880342Y-75182314D02*
X102975580Y-75134695D01*
X102975580Y-75134695D02*
X103023200Y-75087076D01*
X103023200Y-75087076D02*
X103070819Y-74991838D01*
X103070819Y-74991838D02*
X103070819Y-74706124D01*
X103070819Y-74706124D02*
X103023200Y-74610886D01*
X103023200Y-74610886D02*
X102975580Y-74563267D01*
X102816819Y-107560714D02*
X101816819Y-107560714D01*
X101816819Y-107560714D02*
X101816819Y-107798809D01*
X101816819Y-107798809D02*
X101864438Y-107941666D01*
X101864438Y-107941666D02*
X101959676Y-108036904D01*
X101959676Y-108036904D02*
X102054914Y-108084523D01*
X102054914Y-108084523D02*
X102245390Y-108132142D01*
X102245390Y-108132142D02*
X102388247Y-108132142D01*
X102388247Y-108132142D02*
X102578723Y-108084523D01*
X102578723Y-108084523D02*
X102673961Y-108036904D01*
X102673961Y-108036904D02*
X102769200Y-107941666D01*
X102769200Y-107941666D02*
X102816819Y-107798809D01*
X102816819Y-107798809D02*
X102816819Y-107560714D01*
X102816819Y-109084523D02*
X102816819Y-108513095D01*
X102816819Y-108798809D02*
X101816819Y-108798809D01*
X101816819Y-108798809D02*
X101959676Y-108703571D01*
X101959676Y-108703571D02*
X102054914Y-108608333D01*
X102054914Y-108608333D02*
X102102533Y-108513095D01*
X101816819Y-109989285D02*
X101816819Y-109513095D01*
X101816819Y-109513095D02*
X102293009Y-109465476D01*
X102293009Y-109465476D02*
X102245390Y-109513095D01*
X102245390Y-109513095D02*
X102197771Y-109608333D01*
X102197771Y-109608333D02*
X102197771Y-109846428D01*
X102197771Y-109846428D02*
X102245390Y-109941666D01*
X102245390Y-109941666D02*
X102293009Y-109989285D01*
X102293009Y-109989285D02*
X102388247Y-110036904D01*
X102388247Y-110036904D02*
X102626342Y-110036904D01*
X102626342Y-110036904D02*
X102721580Y-109989285D01*
X102721580Y-109989285D02*
X102769200Y-109941666D01*
X102769200Y-109941666D02*
X102816819Y-109846428D01*
X102816819Y-109846428D02*
X102816819Y-109608333D01*
X102816819Y-109608333D02*
X102769200Y-109513095D01*
X102769200Y-109513095D02*
X102721580Y-109465476D01*
X89365057Y-97432019D02*
X89698390Y-96955828D01*
X89936485Y-97432019D02*
X89936485Y-96432019D01*
X89936485Y-96432019D02*
X89555533Y-96432019D01*
X89555533Y-96432019D02*
X89460295Y-96479638D01*
X89460295Y-96479638D02*
X89412676Y-96527257D01*
X89412676Y-96527257D02*
X89365057Y-96622495D01*
X89365057Y-96622495D02*
X89365057Y-96765352D01*
X89365057Y-96765352D02*
X89412676Y-96860590D01*
X89412676Y-96860590D02*
X89460295Y-96908209D01*
X89460295Y-96908209D02*
X89555533Y-96955828D01*
X89555533Y-96955828D02*
X89936485Y-96955828D01*
X88412676Y-97432019D02*
X88984104Y-97432019D01*
X88698390Y-97432019D02*
X88698390Y-96432019D01*
X88698390Y-96432019D02*
X88793628Y-96574876D01*
X88793628Y-96574876D02*
X88888866Y-96670114D01*
X88888866Y-96670114D02*
X88984104Y-96717733D01*
X88031723Y-96527257D02*
X87984104Y-96479638D01*
X87984104Y-96479638D02*
X87888866Y-96432019D01*
X87888866Y-96432019D02*
X87650771Y-96432019D01*
X87650771Y-96432019D02*
X87555533Y-96479638D01*
X87555533Y-96479638D02*
X87507914Y-96527257D01*
X87507914Y-96527257D02*
X87460295Y-96622495D01*
X87460295Y-96622495D02*
X87460295Y-96717733D01*
X87460295Y-96717733D02*
X87507914Y-96860590D01*
X87507914Y-96860590D02*
X88079342Y-97432019D01*
X88079342Y-97432019D02*
X87460295Y-97432019D01*
X66976666Y-31870180D02*
X66976666Y-31155895D01*
X66976666Y-31155895D02*
X66929047Y-31013038D01*
X66929047Y-31013038D02*
X66833809Y-30917800D01*
X66833809Y-30917800D02*
X66690952Y-30870180D01*
X66690952Y-30870180D02*
X66595714Y-30870180D01*
X67976666Y-30870180D02*
X67405238Y-30870180D01*
X67690952Y-30870180D02*
X67690952Y-31870180D01*
X67690952Y-31870180D02*
X67595714Y-31727323D01*
X67595714Y-31727323D02*
X67500476Y-31632085D01*
X67500476Y-31632085D02*
X67405238Y-31584466D01*
X64716819Y-41361905D02*
X63716819Y-41361905D01*
X63716819Y-41361905D02*
X63716819Y-41600000D01*
X63716819Y-41600000D02*
X63764438Y-41742857D01*
X63764438Y-41742857D02*
X63859676Y-41838095D01*
X63859676Y-41838095D02*
X63954914Y-41885714D01*
X63954914Y-41885714D02*
X64145390Y-41933333D01*
X64145390Y-41933333D02*
X64288247Y-41933333D01*
X64288247Y-41933333D02*
X64478723Y-41885714D01*
X64478723Y-41885714D02*
X64573961Y-41838095D01*
X64573961Y-41838095D02*
X64669200Y-41742857D01*
X64669200Y-41742857D02*
X64716819Y-41600000D01*
X64716819Y-41600000D02*
X64716819Y-41361905D01*
X63812057Y-42314286D02*
X63764438Y-42361905D01*
X63764438Y-42361905D02*
X63716819Y-42457143D01*
X63716819Y-42457143D02*
X63716819Y-42695238D01*
X63716819Y-42695238D02*
X63764438Y-42790476D01*
X63764438Y-42790476D02*
X63812057Y-42838095D01*
X63812057Y-42838095D02*
X63907295Y-42885714D01*
X63907295Y-42885714D02*
X64002533Y-42885714D01*
X64002533Y-42885714D02*
X64145390Y-42838095D01*
X64145390Y-42838095D02*
X64716819Y-42266667D01*
X64716819Y-42266667D02*
X64716819Y-42885714D01*
D11*
%TO.C,D10*%
X63887200Y-81200000D02*
X63687200Y-81200000D01*
X63687200Y-80800000D01*
X63887200Y-80800000D01*
X63887200Y-81200000D01*
G36*
X63887200Y-81200000D02*
G01*
X63687200Y-81200000D01*
X63687200Y-80800000D01*
X63887200Y-80800000D01*
X63887200Y-81200000D01*
G37*
X61687200Y-81200000D02*
X61487200Y-81200000D01*
X61487200Y-80800000D01*
X61687200Y-80800000D01*
X61687200Y-81200000D01*
G36*
X61687200Y-81200000D02*
G01*
X61487200Y-81200000D01*
X61487200Y-80800000D01*
X61687200Y-80800000D01*
X61687200Y-81200000D01*
G37*
D12*
X63687200Y-81900000D02*
X63687200Y-78500000D01*
X63687200Y-78500000D02*
X61687200Y-78500000D01*
X62814200Y-81900000D02*
X63687200Y-81900000D01*
X61687200Y-81900000D02*
X62814200Y-81900000D01*
X61687200Y-78500000D02*
X61687200Y-81900000D01*
%TO.C,U1*%
X97473168Y-52669300D02*
X95107600Y-52669300D01*
X95107600Y-55039300D02*
X97627600Y-55039300D01*
X97767600Y-52664300D02*
X97627600Y-52474300D01*
X97907600Y-52474300D01*
X97767600Y-52664300D01*
G36*
X97767600Y-52664300D02*
G01*
X97627600Y-52474300D01*
X97907600Y-52474300D01*
X97767600Y-52664300D01*
G37*
%TO.C,R13*%
X96706458Y-49896500D02*
X96231942Y-49896500D01*
X96706458Y-50941500D02*
X96231942Y-50941500D01*
%TO.C,D50*%
X41826400Y-22606400D02*
X41826400Y-29906400D01*
X44851400Y-22606400D02*
X41826400Y-22606400D01*
X44851400Y-22606400D02*
X45576400Y-23331400D01*
X41826400Y-29906400D02*
X45576400Y-29906400D01*
X45576400Y-29906400D02*
X45576400Y-23331400D01*
X45351400Y-23681400D02*
X45151400Y-23531400D01*
X45351400Y-23381400D01*
X45351400Y-23681400D01*
G36*
X45351400Y-23681400D02*
G01*
X45151400Y-23531400D01*
X45351400Y-23381400D01*
X45351400Y-23681400D01*
G37*
%TO.C,D49*%
X36453600Y-22639000D02*
X36453600Y-29939000D01*
X39478600Y-22639000D02*
X36453600Y-22639000D01*
X39478600Y-22639000D02*
X40203600Y-23364000D01*
X36453600Y-29939000D02*
X40203600Y-29939000D01*
X40203600Y-29939000D02*
X40203600Y-23364000D01*
X39978600Y-23714000D02*
X39778600Y-23564000D01*
X39978600Y-23414000D01*
X39978600Y-23714000D01*
G36*
X39978600Y-23714000D02*
G01*
X39778600Y-23564000D01*
X39978600Y-23414000D01*
X39978600Y-23714000D01*
G37*
%TO.C,D48*%
X30941800Y-22639000D02*
X30941800Y-29939000D01*
X33966800Y-22639000D02*
X30941800Y-22639000D01*
X33966800Y-22639000D02*
X34691800Y-23364000D01*
X30941800Y-29939000D02*
X34691800Y-29939000D01*
X34691800Y-29939000D02*
X34691800Y-23364000D01*
X34466800Y-23714000D02*
X34266800Y-23564000D01*
X34466800Y-23414000D01*
X34466800Y-23714000D01*
G36*
X34466800Y-23714000D02*
G01*
X34266800Y-23564000D01*
X34466800Y-23414000D01*
X34466800Y-23714000D01*
G37*
%TO.C,D47*%
X91523800Y-110942600D02*
X98823800Y-110942600D01*
X91523800Y-107917600D02*
X91523800Y-110942600D01*
X91523800Y-107917600D02*
X92248800Y-107192600D01*
X98823800Y-110942600D02*
X98823800Y-107192600D01*
X98823800Y-107192600D02*
X92248800Y-107192600D01*
X92448800Y-107617600D02*
X92298800Y-107417600D01*
X92598800Y-107417600D01*
X92448800Y-107617600D01*
G36*
X92448800Y-107617600D02*
G01*
X92298800Y-107417600D01*
X92598800Y-107417600D01*
X92448800Y-107617600D01*
G37*
%TO.C,D46*%
X72524600Y-120467600D02*
X79824600Y-120467600D01*
X72524600Y-117442600D02*
X72524600Y-120467600D01*
X72524600Y-117442600D02*
X73249600Y-116717600D01*
X79824600Y-120467600D02*
X79824600Y-116717600D01*
X79824600Y-116717600D02*
X73249600Y-116717600D01*
X73449600Y-117142600D02*
X73299600Y-116942600D01*
X73599600Y-116942600D01*
X73449600Y-117142600D01*
G36*
X73449600Y-117142600D02*
G01*
X73299600Y-116942600D01*
X73599600Y-116942600D01*
X73449600Y-117142600D01*
G37*
%TO.C,D45*%
X44051200Y-120645400D02*
X51351200Y-120645400D01*
X44051200Y-117620400D02*
X44051200Y-120645400D01*
X44051200Y-117620400D02*
X44776200Y-116895400D01*
X51351200Y-120645400D02*
X51351200Y-116895400D01*
X51351200Y-116895400D02*
X44776200Y-116895400D01*
X44976200Y-117320400D02*
X44826200Y-117120400D01*
X45126200Y-117120400D01*
X44976200Y-117320400D01*
G36*
X44976200Y-117320400D02*
G01*
X44826200Y-117120400D01*
X45126200Y-117120400D01*
X44976200Y-117320400D01*
G37*
%TO.C,D44*%
X72677000Y-101874800D02*
X79977000Y-101874800D01*
X72677000Y-98849800D02*
X72677000Y-101874800D01*
X72677000Y-98849800D02*
X73402000Y-98124800D01*
X79977000Y-101874800D02*
X79977000Y-98124800D01*
X79977000Y-98124800D02*
X73402000Y-98124800D01*
X73602000Y-98549800D02*
X73452000Y-98349800D01*
X73752000Y-98349800D01*
X73602000Y-98549800D01*
G36*
X73602000Y-98549800D02*
G01*
X73452000Y-98349800D01*
X73752000Y-98349800D01*
X73602000Y-98549800D01*
G37*
%TO.C,D43*%
X53728600Y-101544600D02*
X61028600Y-101544600D01*
X53728600Y-98519600D02*
X53728600Y-101544600D01*
X53728600Y-98519600D02*
X54453600Y-97794600D01*
X61028600Y-101544600D02*
X61028600Y-97794600D01*
X61028600Y-97794600D02*
X54453600Y-97794600D01*
X54653600Y-98219600D02*
X54503600Y-98019600D01*
X54803600Y-98019600D01*
X54653600Y-98219600D01*
G36*
X54653600Y-98219600D02*
G01*
X54503600Y-98019600D01*
X54803600Y-98019600D01*
X54653600Y-98219600D01*
G37*
%TO.C,D42*%
X34475400Y-101468400D02*
X41775400Y-101468400D01*
X34475400Y-98443400D02*
X34475400Y-101468400D01*
X34475400Y-98443400D02*
X35200400Y-97718400D01*
X41775400Y-101468400D02*
X41775400Y-97718400D01*
X41775400Y-97718400D02*
X35200400Y-97718400D01*
X35400400Y-98143400D02*
X35250400Y-97943400D01*
X35550400Y-97943400D01*
X35400400Y-98143400D01*
G36*
X35400400Y-98143400D02*
G01*
X35250400Y-97943400D01*
X35550400Y-97943400D01*
X35400400Y-98143400D01*
G37*
%TO.C,D41*%
X91549200Y-72664800D02*
X98849200Y-72664800D01*
X91549200Y-69639800D02*
X91549200Y-72664800D01*
X91549200Y-69639800D02*
X92274200Y-68914800D01*
X98849200Y-72664800D02*
X98849200Y-68914800D01*
X98849200Y-68914800D02*
X92274200Y-68914800D01*
X92474200Y-69339800D02*
X92324200Y-69139800D01*
X92624200Y-69139800D01*
X92474200Y-69339800D01*
G36*
X92474200Y-69339800D02*
G01*
X92324200Y-69139800D01*
X92624200Y-69139800D01*
X92474200Y-69339800D01*
G37*
%TO.C,D40*%
X72499200Y-82139000D02*
X79799200Y-82139000D01*
X72499200Y-79114000D02*
X72499200Y-82139000D01*
X72499200Y-79114000D02*
X73224200Y-78389000D01*
X79799200Y-82139000D02*
X79799200Y-78389000D01*
X79799200Y-78389000D02*
X73224200Y-78389000D01*
X73424200Y-78814000D02*
X73274200Y-78614000D01*
X73574200Y-78614000D01*
X73424200Y-78814000D01*
G36*
X73424200Y-78814000D02*
G01*
X73274200Y-78614000D01*
X73574200Y-78614000D01*
X73424200Y-78814000D01*
G37*
%TO.C,D39*%
X53619800Y-82723200D02*
X60919800Y-82723200D01*
X53619800Y-79698200D02*
X53619800Y-82723200D01*
X53619800Y-79698200D02*
X54344800Y-78973200D01*
X60919800Y-82723200D02*
X60919800Y-78973200D01*
X60919800Y-78973200D02*
X54344800Y-78973200D01*
X54544800Y-79398200D02*
X54394800Y-79198200D01*
X54694800Y-79198200D01*
X54544800Y-79398200D01*
G36*
X54544800Y-79398200D02*
G01*
X54394800Y-79198200D01*
X54694800Y-79198200D01*
X54544800Y-79398200D01*
G37*
%TO.C,D38*%
X34475400Y-82697800D02*
X41775400Y-82697800D01*
X34475400Y-79672800D02*
X34475400Y-82697800D01*
X34475400Y-79672800D02*
X35200400Y-78947800D01*
X41775400Y-82697800D02*
X41775400Y-78947800D01*
X41775400Y-78947800D02*
X35200400Y-78947800D01*
X35400400Y-79372800D02*
X35250400Y-79172800D01*
X35550400Y-79172800D01*
X35400400Y-79372800D01*
G36*
X35400400Y-79372800D02*
G01*
X35250400Y-79172800D01*
X35550400Y-79172800D01*
X35400400Y-79372800D01*
G37*
%TO.C,D37*%
X72727800Y-63800200D02*
X80027800Y-63800200D01*
X72727800Y-60775200D02*
X72727800Y-63800200D01*
X72727800Y-60775200D02*
X73452800Y-60050200D01*
X80027800Y-63800200D02*
X80027800Y-60050200D01*
X80027800Y-60050200D02*
X73452800Y-60050200D01*
X73652800Y-60475200D02*
X73502800Y-60275200D01*
X73802800Y-60275200D01*
X73652800Y-60475200D01*
G36*
X73652800Y-60475200D02*
G01*
X73502800Y-60275200D01*
X73802800Y-60275200D01*
X73652800Y-60475200D01*
G37*
%TO.C,D36*%
X53322200Y-63647800D02*
X60622200Y-63647800D01*
X53322200Y-60622800D02*
X53322200Y-63647800D01*
X53322200Y-60622800D02*
X54047200Y-59897800D01*
X60622200Y-63647800D02*
X60622200Y-59897800D01*
X60622200Y-59897800D02*
X54047200Y-59897800D01*
X54247200Y-60322800D02*
X54097200Y-60122800D01*
X54397200Y-60122800D01*
X54247200Y-60322800D01*
G36*
X54247200Y-60322800D02*
G01*
X54097200Y-60122800D01*
X54397200Y-60122800D01*
X54247200Y-60322800D01*
G37*
%TO.C,D35*%
X34272200Y-63597000D02*
X41572200Y-63597000D01*
X34272200Y-60572000D02*
X34272200Y-63597000D01*
X34272200Y-60572000D02*
X34997200Y-59847000D01*
X41572200Y-63597000D02*
X41572200Y-59847000D01*
X41572200Y-59847000D02*
X34997200Y-59847000D01*
X35197200Y-60272000D02*
X35047200Y-60072000D01*
X35347200Y-60072000D01*
X35197200Y-60272000D01*
G36*
X35197200Y-60272000D02*
G01*
X35047200Y-60072000D01*
X35347200Y-60072000D01*
X35197200Y-60272000D01*
G37*
%TO.C,D34*%
X91676200Y-44623200D02*
X98976200Y-44623200D01*
X91676200Y-41598200D02*
X91676200Y-44623200D01*
X91676200Y-41598200D02*
X92401200Y-40873200D01*
X98976200Y-44623200D02*
X98976200Y-40873200D01*
X98976200Y-40873200D02*
X92401200Y-40873200D01*
X92601200Y-41298200D02*
X92451200Y-41098200D01*
X92751200Y-41098200D01*
X92601200Y-41298200D01*
G36*
X92601200Y-41298200D02*
G01*
X92451200Y-41098200D01*
X92751200Y-41098200D01*
X92601200Y-41298200D01*
G37*
%TO.C,D33*%
X72778600Y-44496200D02*
X80078600Y-44496200D01*
X72778600Y-41471200D02*
X72778600Y-44496200D01*
X72778600Y-41471200D02*
X73503600Y-40746200D01*
X80078600Y-44496200D02*
X80078600Y-40746200D01*
X80078600Y-40746200D02*
X73503600Y-40746200D01*
X73703600Y-41171200D02*
X73553600Y-40971200D01*
X73853600Y-40971200D01*
X73703600Y-41171200D01*
G36*
X73703600Y-41171200D02*
G01*
X73553600Y-40971200D01*
X73853600Y-40971200D01*
X73703600Y-41171200D01*
G37*
%TO.C,D32*%
X53550800Y-44470800D02*
X60850800Y-44470800D01*
X53550800Y-41445800D02*
X53550800Y-44470800D01*
X53550800Y-41445800D02*
X54275800Y-40720800D01*
X60850800Y-44470800D02*
X60850800Y-40720800D01*
X60850800Y-40720800D02*
X54275800Y-40720800D01*
X54475800Y-41145800D02*
X54325800Y-40945800D01*
X54625800Y-40945800D01*
X54475800Y-41145800D01*
G36*
X54475800Y-41145800D02*
G01*
X54325800Y-40945800D01*
X54625800Y-40945800D01*
X54475800Y-41145800D01*
G37*
%TO.C,D31*%
X34373800Y-44623200D02*
X41673800Y-44623200D01*
X34373800Y-41598200D02*
X34373800Y-44623200D01*
X34373800Y-41598200D02*
X35098800Y-40873200D01*
X41673800Y-44623200D02*
X41673800Y-40873200D01*
X41673800Y-40873200D02*
X35098800Y-40873200D01*
X35298800Y-41298200D02*
X35148800Y-41098200D01*
X35448800Y-41098200D01*
X35298800Y-41298200D01*
G36*
X35298800Y-41298200D02*
G01*
X35148800Y-41098200D01*
X35448800Y-41098200D01*
X35298800Y-41298200D01*
G37*
%TO.C,SW11*%
X72100000Y-69300000D02*
X77200000Y-69300000D01*
X76000000Y-73500000D02*
X81100000Y-73500000D01*
X70100000Y-71300000D02*
G75*
G02*
X72100000Y-69300000I1999999J1D01*
G01*
X74000000Y-75500000D02*
G75*
G02*
X76000000Y-73500000I1999999J1D01*
G01*
%TO.C,SW8*%
X91150000Y-59775000D02*
X96250000Y-59775000D01*
X95050000Y-63975000D02*
X100150000Y-63975000D01*
X89150000Y-61775000D02*
G75*
G02*
X91150000Y-59775000I1999999J1D01*
G01*
X93050000Y-65975000D02*
G75*
G02*
X95050000Y-63975000I1999999J1D01*
G01*
%TO.C,SW17*%
X72100000Y-107400000D02*
X77200000Y-107400000D01*
X76000000Y-111600000D02*
X81100000Y-111600000D01*
X70100000Y-109400000D02*
G75*
G02*
X72100000Y-107400000I1999999J1D01*
G01*
X74000000Y-113600000D02*
G75*
G02*
X76000000Y-111600000I1999999J1D01*
G01*
%TO.C,SW12*%
X34000000Y-88350000D02*
X39100000Y-88350000D01*
X37900000Y-92550000D02*
X43000000Y-92550000D01*
X32000000Y-90350000D02*
G75*
G02*
X34000000Y-88350000I1999999J1D01*
G01*
X35900000Y-94550000D02*
G75*
G02*
X37900000Y-92550000I1999999J1D01*
G01*
%TO.C,SW7*%
X72100000Y-50250000D02*
X77200000Y-50250000D01*
X76000000Y-54450000D02*
X81100000Y-54450000D01*
X70100000Y-52250000D02*
G75*
G02*
X72100000Y-50250000I1999999J1D01*
G01*
X74000000Y-56450000D02*
G75*
G02*
X76000000Y-54450000I1999999J1D01*
G01*
%TO.C,SW14*%
X72100000Y-88350000D02*
X77200000Y-88350000D01*
X76000000Y-92550000D02*
X81100000Y-92550000D01*
X70100000Y-90350000D02*
G75*
G02*
X72100000Y-88350000I1999999J1D01*
G01*
X74000000Y-94550000D02*
G75*
G02*
X76000000Y-92550000I1999999J1D01*
G01*
%TO.C,SW1*%
X34000000Y-31200000D02*
X39100000Y-31200000D01*
X37900000Y-35400000D02*
X43000000Y-35400000D01*
X32000000Y-33200000D02*
G75*
G02*
X34000000Y-31200000I1999999J1D01*
G01*
X35900000Y-37400000D02*
G75*
G02*
X37900000Y-35400000I1999999J1D01*
G01*
%TO.C,SW9*%
X34000000Y-69300000D02*
X39100000Y-69300000D01*
X37900000Y-73500000D02*
X43000000Y-73500000D01*
X32000000Y-71300000D02*
G75*
G02*
X34000000Y-69300000I1999999J1D01*
G01*
X35900000Y-75500000D02*
G75*
G02*
X37900000Y-73500000I1999999J1D01*
G01*
%TO.C,SW3*%
X72100000Y-31200000D02*
X77200000Y-31200000D01*
X76000000Y-35400000D02*
X81100000Y-35400000D01*
X70100000Y-33200000D02*
G75*
G02*
X72100000Y-31200000I1999999J1D01*
G01*
X74000000Y-37400000D02*
G75*
G02*
X76000000Y-35400000I1999999J1D01*
G01*
%TO.C,SW10*%
X53050000Y-69300000D02*
X58150000Y-69300000D01*
X56950000Y-73500000D02*
X62050000Y-73500000D01*
X51050000Y-71300000D02*
G75*
G02*
X53050000Y-69300000I1999999J1D01*
G01*
X54950000Y-75500000D02*
G75*
G02*
X56950000Y-73500000I1999999J1D01*
G01*
%TO.C,SW6*%
X53050000Y-50250000D02*
X58150000Y-50250000D01*
X56950000Y-54450000D02*
X62050000Y-54450000D01*
X51050000Y-52250000D02*
G75*
G02*
X53050000Y-50250000I1999999J1D01*
G01*
X54950000Y-56450000D02*
G75*
G02*
X56950000Y-54450000I1999999J1D01*
G01*
%TO.C,SW2*%
X53050000Y-31200000D02*
X58150000Y-31200000D01*
X56950000Y-35400000D02*
X62050000Y-35400000D01*
X51050000Y-33200000D02*
G75*
G02*
X53050000Y-31200000I1999999J1D01*
G01*
X54950000Y-37400000D02*
G75*
G02*
X56950000Y-35400000I1999999J1D01*
G01*
%TO.C,SW15*%
X91150000Y-97875000D02*
X96250000Y-97875000D01*
X95050000Y-102075000D02*
X100150000Y-102075000D01*
X89150000Y-99875000D02*
G75*
G02*
X91150000Y-97875000I1999999J1D01*
G01*
X93050000Y-104075000D02*
G75*
G02*
X95050000Y-102075000I1999999J1D01*
G01*
%TO.C,SW4*%
X91150000Y-31200000D02*
X96250000Y-31200000D01*
X95050000Y-35400000D02*
X100150000Y-35400000D01*
X89150000Y-33200000D02*
G75*
G02*
X91150000Y-31200000I1999999J1D01*
G01*
X93050000Y-37400000D02*
G75*
G02*
X95050000Y-35400000I1999999J1D01*
G01*
%TO.C,SW5*%
X34000000Y-50250000D02*
X39100000Y-50250000D01*
X37900000Y-54450000D02*
X43000000Y-54450000D01*
X32000000Y-52250000D02*
G75*
G02*
X34000000Y-50250000I1999999J1D01*
G01*
X35900000Y-56450000D02*
G75*
G02*
X37900000Y-54450000I1999999J1D01*
G01*
%TO.C,SW16*%
X43525000Y-107400000D02*
X48625000Y-107400000D01*
X47425000Y-111600000D02*
X52525000Y-111600000D01*
X41525000Y-109400000D02*
G75*
G02*
X43525000Y-107400000I1999999J1D01*
G01*
X45425000Y-113600000D02*
G75*
G02*
X47425000Y-111600000I1999999J1D01*
G01*
%TO.C,SW13*%
X53050000Y-88350000D02*
X58150000Y-88350000D01*
X56950000Y-92550000D02*
X62050000Y-92550000D01*
X51050000Y-90350000D02*
G75*
G02*
X53050000Y-88350000I1999999J1D01*
G01*
X54950000Y-94550000D02*
G75*
G02*
X56950000Y-92550000I1999999J1D01*
G01*
%TO.C,D1*%
X42180000Y-40400000D02*
X42180000Y-43800000D01*
X42180000Y-43800000D02*
X43307000Y-43800000D01*
X43307000Y-43800000D02*
X44180000Y-43800000D01*
X44180000Y-40400000D02*
X42180000Y-40400000D01*
X44180000Y-43800000D02*
X44180000Y-40400000D01*
D11*
X42180000Y-43100000D02*
X41980000Y-43100000D01*
X41980000Y-42700000D01*
X42180000Y-42700000D01*
X42180000Y-43100000D01*
G36*
X42180000Y-43100000D02*
G01*
X41980000Y-43100000D01*
X41980000Y-42700000D01*
X42180000Y-42700000D01*
X42180000Y-43100000D01*
G37*
X44380000Y-43100000D02*
X44180000Y-43100000D01*
X44180000Y-42700000D01*
X44380000Y-42700000D01*
X44380000Y-43100000D01*
G36*
X44380000Y-43100000D02*
G01*
X44180000Y-43100000D01*
X44180000Y-42700000D01*
X44380000Y-42700000D01*
X44380000Y-43100000D01*
G37*
%TO.C,C17*%
D12*
X88062380Y-82116200D02*
X87781220Y-82116200D01*
X88062380Y-83136200D02*
X87781220Y-83136200D01*
%TO.C,D7*%
X80381600Y-59450000D02*
X80381600Y-62850000D01*
X80381600Y-62850000D02*
X81508600Y-62850000D01*
X81508600Y-62850000D02*
X82381600Y-62850000D01*
X82381600Y-59450000D02*
X80381600Y-59450000D01*
X82381600Y-62850000D02*
X82381600Y-59450000D01*
D11*
X80381600Y-62150000D02*
X80181600Y-62150000D01*
X80181600Y-61750000D01*
X80381600Y-61750000D01*
X80381600Y-62150000D01*
G36*
X80381600Y-62150000D02*
G01*
X80181600Y-62150000D01*
X80181600Y-61750000D01*
X80381600Y-61750000D01*
X80381600Y-62150000D01*
G37*
X82581600Y-62150000D02*
X82381600Y-62150000D01*
X82381600Y-61750000D01*
X82581600Y-61750000D01*
X82581600Y-62150000D01*
G36*
X82581600Y-62150000D02*
G01*
X82381600Y-62150000D01*
X82381600Y-61750000D01*
X82581600Y-61750000D01*
X82581600Y-62150000D01*
G37*
%TO.C,C7*%
D12*
X91997000Y-95187380D02*
X91997000Y-94906220D01*
X93017000Y-95187380D02*
X93017000Y-94906220D01*
%TO.C,C13*%
X93597200Y-77136480D02*
X93597200Y-76855320D01*
X94617200Y-77136480D02*
X94617200Y-76855320D01*
%TO.C,C20*%
X90142600Y-73773420D02*
X90142600Y-74054580D01*
X91162600Y-73773420D02*
X91162600Y-74054580D01*
%TO.C,C11*%
X95705200Y-76821420D02*
X95705200Y-77102580D01*
X96725200Y-76821420D02*
X96725200Y-77102580D01*
%TO.C,D8*%
X99330000Y-68975000D02*
X99330000Y-72375000D01*
X99330000Y-72375000D02*
X100457000Y-72375000D01*
X100457000Y-72375000D02*
X101330000Y-72375000D01*
X101330000Y-68975000D02*
X99330000Y-68975000D01*
X101330000Y-72375000D02*
X101330000Y-68975000D01*
D11*
X99330000Y-71675000D02*
X99130000Y-71675000D01*
X99130000Y-71275000D01*
X99330000Y-71275000D01*
X99330000Y-71675000D01*
G36*
X99330000Y-71675000D02*
G01*
X99130000Y-71675000D01*
X99130000Y-71275000D01*
X99330000Y-71275000D01*
X99330000Y-71675000D01*
G37*
X101530000Y-71675000D02*
X101330000Y-71675000D01*
X101330000Y-71275000D01*
X101530000Y-71275000D01*
X101530000Y-71675000D01*
G36*
X101530000Y-71675000D02*
G01*
X101330000Y-71675000D01*
X101330000Y-71275000D01*
X101530000Y-71275000D01*
X101530000Y-71675000D01*
G37*
%TO.C,C6*%
D12*
X90039620Y-24016200D02*
X90320780Y-24016200D01*
X90039620Y-25036200D02*
X90320780Y-25036200D01*
%TO.C,C19*%
X90272780Y-79271400D02*
X89991620Y-79271400D01*
X90272780Y-80291400D02*
X89991620Y-80291400D01*
%TO.C,D9*%
X42180000Y-78500000D02*
X42180000Y-81900000D01*
X42180000Y-81900000D02*
X43307000Y-81900000D01*
X43307000Y-81900000D02*
X44180000Y-81900000D01*
X44180000Y-78500000D02*
X42180000Y-78500000D01*
X44180000Y-81900000D02*
X44180000Y-78500000D01*
D11*
X42180000Y-81200000D02*
X41980000Y-81200000D01*
X41980000Y-80800000D01*
X42180000Y-80800000D01*
X42180000Y-81200000D01*
G36*
X42180000Y-81200000D02*
G01*
X41980000Y-81200000D01*
X41980000Y-80800000D01*
X42180000Y-80800000D01*
X42180000Y-81200000D01*
G37*
X44380000Y-81200000D02*
X44180000Y-81200000D01*
X44180000Y-80800000D01*
X44380000Y-80800000D01*
X44380000Y-81200000D01*
G36*
X44380000Y-81200000D02*
G01*
X44180000Y-81200000D01*
X44180000Y-80800000D01*
X44380000Y-80800000D01*
X44380000Y-81200000D01*
G37*
%TO.C,R10*%
D12*
X85202500Y-93869742D02*
X85202500Y-94344258D01*
X86247500Y-93869742D02*
X86247500Y-94344258D01*
%TO.C,SW21*%
D13*
X48463200Y-23274200D02*
X54914800Y-23274200D01*
X48463200Y-23671959D02*
X48463200Y-23274200D01*
X48463200Y-27671961D02*
X48463200Y-25328039D01*
X48463200Y-29725800D02*
X48463200Y-29328041D01*
X54914800Y-23274200D02*
X54914800Y-23671959D01*
X54914800Y-25328039D02*
X54914800Y-27671961D01*
X54914800Y-29328041D02*
X54914800Y-29725800D01*
X54914800Y-29725800D02*
X48463200Y-29725800D01*
%TO.C,D22*%
D12*
X96618600Y-28533500D02*
X96618600Y-27533500D01*
%TO.C,R7*%
X99221058Y-24267900D02*
X98746542Y-24267900D01*
X99221058Y-25312900D02*
X98746542Y-25312900D01*
%TO.C,R5*%
X102827858Y-27950900D02*
X102353342Y-27950900D01*
X102827858Y-28995900D02*
X102353342Y-28995900D01*
%TO.C,D17*%
X80280000Y-116600000D02*
X80280000Y-120000000D01*
X80280000Y-120000000D02*
X81407000Y-120000000D01*
X81407000Y-120000000D02*
X82280000Y-120000000D01*
X82280000Y-116600000D02*
X80280000Y-116600000D01*
X82280000Y-120000000D02*
X82280000Y-116600000D01*
D11*
X80280000Y-119300000D02*
X80080000Y-119300000D01*
X80080000Y-118900000D01*
X80280000Y-118900000D01*
X80280000Y-119300000D01*
G36*
X80280000Y-119300000D02*
G01*
X80080000Y-119300000D01*
X80080000Y-118900000D01*
X80280000Y-118900000D01*
X80280000Y-119300000D01*
G37*
X82480000Y-119300000D02*
X82280000Y-119300000D01*
X82280000Y-118900000D01*
X82480000Y-118900000D01*
X82480000Y-119300000D01*
G36*
X82480000Y-119300000D02*
G01*
X82280000Y-119300000D01*
X82280000Y-118900000D01*
X82480000Y-118900000D01*
X82480000Y-119300000D01*
G37*
%TO.C,D21*%
D12*
X92256900Y-26940000D02*
X92256900Y-28067000D01*
X92256900Y-28067000D02*
X92256900Y-28940000D01*
X92256900Y-28940000D02*
X95656900Y-28940000D01*
X95656900Y-26940000D02*
X92256900Y-26940000D01*
X95656900Y-28940000D02*
X95656900Y-26940000D01*
D11*
X93356900Y-26940000D02*
X92956900Y-26940000D01*
X92956900Y-26740000D01*
X93356900Y-26740000D01*
X93356900Y-26940000D01*
G36*
X93356900Y-26940000D02*
G01*
X92956900Y-26940000D01*
X92956900Y-26740000D01*
X93356900Y-26740000D01*
X93356900Y-26940000D01*
G37*
X93356900Y-29140000D02*
X92956900Y-29140000D01*
X92956900Y-28940000D01*
X93356900Y-28940000D01*
X93356900Y-29140000D01*
G36*
X93356900Y-29140000D02*
G01*
X92956900Y-29140000D01*
X92956900Y-28940000D01*
X93356900Y-28940000D01*
X93356900Y-29140000D01*
G37*
%TO.C,C15*%
D12*
X101281620Y-90041000D02*
X101562780Y-90041000D01*
X101281620Y-91061000D02*
X101562780Y-91061000D01*
%TO.C,D13*%
X61433200Y-97550000D02*
X61433200Y-100950000D01*
X61433200Y-100950000D02*
X62560200Y-100950000D01*
X62560200Y-100950000D02*
X63433200Y-100950000D01*
X63433200Y-97550000D02*
X61433200Y-97550000D01*
X63433200Y-100950000D02*
X63433200Y-97550000D01*
D11*
X61433200Y-100250000D02*
X61233200Y-100250000D01*
X61233200Y-99850000D01*
X61433200Y-99850000D01*
X61433200Y-100250000D01*
G36*
X61433200Y-100250000D02*
G01*
X61233200Y-100250000D01*
X61233200Y-99850000D01*
X61433200Y-99850000D01*
X61433200Y-100250000D01*
G37*
X63633200Y-100250000D02*
X63433200Y-100250000D01*
X63433200Y-99850000D01*
X63633200Y-99850000D01*
X63633200Y-100250000D01*
G36*
X63633200Y-100250000D02*
G01*
X63433200Y-100250000D01*
X63433200Y-99850000D01*
X63633200Y-99850000D01*
X63633200Y-100250000D01*
G37*
%TO.C,IC2*%
D12*
X91373400Y-81327600D02*
X91373400Y-81977600D01*
X91373400Y-87897600D02*
X91373400Y-88547600D01*
X91373400Y-88547600D02*
X92023400Y-88547600D01*
X92023400Y-81327600D02*
X91373400Y-81327600D01*
X97943400Y-88547600D02*
X98593400Y-88547600D01*
X98593400Y-81327600D02*
X97943400Y-81327600D01*
X98593400Y-81977600D02*
X98593400Y-81327600D01*
X98593400Y-88547600D02*
X98593400Y-87897600D01*
X90843400Y-87537600D02*
X90513400Y-87777600D01*
X90513400Y-87297600D01*
X90843400Y-87537600D01*
G36*
X90843400Y-87537600D02*
G01*
X90513400Y-87777600D01*
X90513400Y-87297600D01*
X90843400Y-87537600D01*
G37*
%TO.C,R8*%
X90083421Y-27379200D02*
X90408979Y-27379200D01*
X90083421Y-28399200D02*
X90408979Y-28399200D01*
%TO.C,C8*%
X85914620Y-24016200D02*
X86195780Y-24016200D01*
X85914620Y-25036200D02*
X86195780Y-25036200D01*
%TO.C,R2*%
X58377858Y-23937700D02*
X57903342Y-23937700D01*
X58377858Y-24982700D02*
X57903342Y-24982700D01*
%TO.C,R9*%
X97953300Y-76724742D02*
X97953300Y-77199258D01*
X98998300Y-76724742D02*
X98998300Y-77199258D01*
%TO.C,C12*%
X96467200Y-94068020D02*
X96467200Y-94349180D01*
X97487200Y-94068020D02*
X97487200Y-94349180D01*
%TO.C,C16*%
X88075380Y-88085200D02*
X87794220Y-88085200D01*
X88075380Y-89105200D02*
X87794220Y-89105200D01*
%TO.C,C10*%
X101167020Y-83318500D02*
X101448180Y-83318500D01*
X101167020Y-84338500D02*
X101448180Y-84338500D01*
%TO.C,D6*%
X61230000Y-59450000D02*
X61230000Y-62850000D01*
X61230000Y-62850000D02*
X62357000Y-62850000D01*
X62357000Y-62850000D02*
X63230000Y-62850000D01*
X63230000Y-59450000D02*
X61230000Y-59450000D01*
X63230000Y-62850000D02*
X63230000Y-59450000D01*
D11*
X61230000Y-62150000D02*
X61030000Y-62150000D01*
X61030000Y-61750000D01*
X61230000Y-61750000D01*
X61230000Y-62150000D01*
G36*
X61230000Y-62150000D02*
G01*
X61030000Y-62150000D01*
X61030000Y-61750000D01*
X61230000Y-61750000D01*
X61230000Y-62150000D01*
G37*
X63430000Y-62150000D02*
X63230000Y-62150000D01*
X63230000Y-61750000D01*
X63430000Y-61750000D01*
X63430000Y-62150000D01*
G36*
X63430000Y-62150000D02*
G01*
X63230000Y-62150000D01*
X63230000Y-61750000D01*
X63430000Y-61750000D01*
X63430000Y-62150000D01*
G37*
%TO.C,R4*%
D12*
X100264700Y-77123058D02*
X100264700Y-76648542D01*
X101309700Y-77123058D02*
X101309700Y-76648542D01*
%TO.C,D5*%
X42180000Y-59450000D02*
X42180000Y-62850000D01*
X42180000Y-62850000D02*
X43307000Y-62850000D01*
X43307000Y-62850000D02*
X44180000Y-62850000D01*
X44180000Y-59450000D02*
X42180000Y-59450000D01*
X44180000Y-62850000D02*
X44180000Y-59450000D01*
D11*
X42180000Y-62150000D02*
X41980000Y-62150000D01*
X41980000Y-61750000D01*
X42180000Y-61750000D01*
X42180000Y-62150000D01*
G36*
X42180000Y-62150000D02*
G01*
X41980000Y-62150000D01*
X41980000Y-61750000D01*
X42180000Y-61750000D01*
X42180000Y-62150000D01*
G37*
X44380000Y-62150000D02*
X44180000Y-62150000D01*
X44180000Y-61750000D01*
X44380000Y-61750000D01*
X44380000Y-62150000D01*
G36*
X44380000Y-62150000D02*
G01*
X44180000Y-62150000D01*
X44180000Y-61750000D01*
X44380000Y-61750000D01*
X44380000Y-62150000D01*
G37*
%TO.C,U2*%
D14*
X94409500Y-26035000D02*
X95268300Y-26035000D01*
X95268300Y-23495000D02*
X94409500Y-23495000D01*
X95547700Y-25033400D02*
X95547700Y-24496600D01*
D15*
X93922900Y-26365200D02*
G75*
G02*
X93722900Y-26365200I-100000J0D01*
G01*
X93722900Y-26365200D02*
G75*
G02*
X93922900Y-26365200I100000J0D01*
G01*
%TO.C,C14*%
D12*
X101281620Y-92936600D02*
X101562780Y-92936600D01*
X101281620Y-93956600D02*
X101562780Y-93956600D01*
%TO.C,D14*%
X80381600Y-97550000D02*
X80381600Y-100950000D01*
X80381600Y-100950000D02*
X81508600Y-100950000D01*
X81508600Y-100950000D02*
X82381600Y-100950000D01*
X82381600Y-97550000D02*
X80381600Y-97550000D01*
X82381600Y-100950000D02*
X82381600Y-97550000D01*
D11*
X80381600Y-100250000D02*
X80181600Y-100250000D01*
X80181600Y-99850000D01*
X80381600Y-99850000D01*
X80381600Y-100250000D01*
G36*
X80381600Y-100250000D02*
G01*
X80181600Y-100250000D01*
X80181600Y-99850000D01*
X80381600Y-99850000D01*
X80381600Y-100250000D01*
G37*
X82581600Y-100250000D02*
X82381600Y-100250000D01*
X82381600Y-99850000D01*
X82581600Y-99850000D01*
X82581600Y-100250000D01*
G36*
X82581600Y-100250000D02*
G01*
X82381600Y-100250000D01*
X82381600Y-99850000D01*
X82581600Y-99850000D01*
X82581600Y-100250000D01*
G37*
%TO.C,D16*%
D12*
X52492400Y-116600000D02*
X52492400Y-120000000D01*
X52492400Y-120000000D02*
X53619400Y-120000000D01*
X53619400Y-120000000D02*
X54492400Y-120000000D01*
X54492400Y-116600000D02*
X52492400Y-116600000D01*
X54492400Y-120000000D02*
X54492400Y-116600000D01*
D11*
X52492400Y-119300000D02*
X52292400Y-119300000D01*
X52292400Y-118900000D01*
X52492400Y-118900000D01*
X52492400Y-119300000D01*
G36*
X52492400Y-119300000D02*
G01*
X52292400Y-119300000D01*
X52292400Y-118900000D01*
X52492400Y-118900000D01*
X52492400Y-119300000D01*
G37*
X54692400Y-119300000D02*
X54492400Y-119300000D01*
X54492400Y-118900000D01*
X54692400Y-118900000D01*
X54692400Y-119300000D01*
G36*
X54692400Y-119300000D02*
G01*
X54492400Y-119300000D01*
X54492400Y-118900000D01*
X54692400Y-118900000D01*
X54692400Y-119300000D01*
G37*
%TO.C,D3*%
D12*
X80432400Y-40400000D02*
X80432400Y-43800000D01*
X80432400Y-43800000D02*
X81559400Y-43800000D01*
X81559400Y-43800000D02*
X82432400Y-43800000D01*
X82432400Y-40400000D02*
X80432400Y-40400000D01*
X82432400Y-43800000D02*
X82432400Y-40400000D01*
D11*
X80432400Y-43100000D02*
X80232400Y-43100000D01*
X80232400Y-42700000D01*
X80432400Y-42700000D01*
X80432400Y-43100000D01*
G36*
X80432400Y-43100000D02*
G01*
X80232400Y-43100000D01*
X80232400Y-42700000D01*
X80432400Y-42700000D01*
X80432400Y-43100000D01*
G37*
X82632400Y-43100000D02*
X82432400Y-43100000D01*
X82432400Y-42700000D01*
X82632400Y-42700000D01*
X82632400Y-43100000D01*
G36*
X82632400Y-43100000D02*
G01*
X82432400Y-43100000D01*
X82432400Y-42700000D01*
X82632400Y-42700000D01*
X82632400Y-43100000D01*
G37*
%TO.C,D11*%
D12*
X80280000Y-78500000D02*
X80280000Y-81900000D01*
X80280000Y-81900000D02*
X81407000Y-81900000D01*
X81407000Y-81900000D02*
X82280000Y-81900000D01*
X82280000Y-78500000D02*
X80280000Y-78500000D01*
X82280000Y-81900000D02*
X82280000Y-78500000D01*
D11*
X80280000Y-81200000D02*
X80080000Y-81200000D01*
X80080000Y-80800000D01*
X80280000Y-80800000D01*
X80280000Y-81200000D01*
G36*
X80280000Y-81200000D02*
G01*
X80080000Y-81200000D01*
X80080000Y-80800000D01*
X80280000Y-80800000D01*
X80280000Y-81200000D01*
G37*
X82480000Y-81200000D02*
X82280000Y-81200000D01*
X82280000Y-80800000D01*
X82480000Y-80800000D01*
X82480000Y-81200000D01*
G36*
X82480000Y-81200000D02*
G01*
X82280000Y-81200000D01*
X82280000Y-80800000D01*
X82480000Y-80800000D01*
X82480000Y-81200000D01*
G37*
%TO.C,R11*%
D12*
X102802458Y-24293300D02*
X102327942Y-24293300D01*
X102802458Y-25338300D02*
X102327942Y-25338300D01*
%TO.C,C9*%
X100938420Y-87280900D02*
X101219580Y-87280900D01*
X100938420Y-88300900D02*
X101219580Y-88300900D01*
%TO.C,R1*%
X58352458Y-26757100D02*
X57877942Y-26757100D01*
X58352458Y-27802100D02*
X57877942Y-27802100D01*
%TO.C,D23*%
X84482200Y-28413200D02*
X84482200Y-29540200D01*
X84482200Y-29540200D02*
X84482200Y-30413200D01*
X84482200Y-30413200D02*
X87882200Y-30413200D01*
X87882200Y-28413200D02*
X84482200Y-28413200D01*
X87882200Y-30413200D02*
X87882200Y-28413200D01*
D11*
X85582200Y-28413200D02*
X85182200Y-28413200D01*
X85182200Y-28213200D01*
X85582200Y-28213200D01*
X85582200Y-28413200D01*
G36*
X85582200Y-28413200D02*
G01*
X85182200Y-28413200D01*
X85182200Y-28213200D01*
X85582200Y-28213200D01*
X85582200Y-28413200D01*
G37*
X85582200Y-30613200D02*
X85182200Y-30613200D01*
X85182200Y-30413200D01*
X85582200Y-30413200D01*
X85582200Y-30613200D01*
G36*
X85582200Y-30613200D02*
G01*
X85182200Y-30613200D01*
X85182200Y-30413200D01*
X85582200Y-30413200D01*
X85582200Y-30613200D01*
G37*
%TO.C,Y1*%
D12*
X87821800Y-77535400D02*
X87821800Y-76185400D01*
X89571800Y-77535400D02*
X89571800Y-76185400D01*
%TO.C,SW22*%
D13*
X76149199Y-23274200D02*
X82600799Y-23274200D01*
X76149199Y-23671959D02*
X76149199Y-23274200D01*
X76149199Y-27671961D02*
X76149199Y-25328039D01*
X76149199Y-29725800D02*
X76149199Y-29328041D01*
X82600799Y-23274200D02*
X82600799Y-23671959D01*
X82600799Y-25328039D02*
X82600799Y-27671961D01*
X82600799Y-29328041D02*
X82600799Y-29725800D01*
X82600799Y-29725800D02*
X76149199Y-29725800D01*
%TO.C,D4*%
D12*
X99330000Y-40400000D02*
X99330000Y-43800000D01*
X99330000Y-43800000D02*
X100457000Y-43800000D01*
X100457000Y-43800000D02*
X101330000Y-43800000D01*
X101330000Y-40400000D02*
X99330000Y-40400000D01*
X101330000Y-43800000D02*
X101330000Y-40400000D01*
D11*
X99330000Y-43100000D02*
X99130000Y-43100000D01*
X99130000Y-42700000D01*
X99330000Y-42700000D01*
X99330000Y-43100000D01*
G36*
X99330000Y-43100000D02*
G01*
X99130000Y-43100000D01*
X99130000Y-42700000D01*
X99330000Y-42700000D01*
X99330000Y-43100000D01*
G37*
X101530000Y-43100000D02*
X101330000Y-43100000D01*
X101330000Y-42700000D01*
X101530000Y-42700000D01*
X101530000Y-43100000D01*
G36*
X101530000Y-43100000D02*
G01*
X101330000Y-43100000D01*
X101330000Y-42700000D01*
X101530000Y-42700000D01*
X101530000Y-43100000D01*
G37*
%TO.C,U5*%
D14*
X88005000Y-94001400D02*
X88005000Y-91001400D01*
X90405000Y-91001400D02*
X90405000Y-94001400D01*
X88205000Y-90501400D02*
G75*
G02*
X88005000Y-90501400I-100000J0D01*
G01*
X88005000Y-90501400D02*
G75*
G02*
X88205000Y-90501400I100000J0D01*
G01*
%TO.C,R6*%
D12*
X91933700Y-76750142D02*
X91933700Y-77224658D01*
X92978700Y-76750142D02*
X92978700Y-77224658D01*
%TO.C,D12*%
X42180000Y-97550000D02*
X42180000Y-100950000D01*
X42180000Y-100950000D02*
X43307000Y-100950000D01*
X43307000Y-100950000D02*
X44180000Y-100950000D01*
X44180000Y-97550000D02*
X42180000Y-97550000D01*
X44180000Y-100950000D02*
X44180000Y-97550000D01*
D11*
X42180000Y-100250000D02*
X41980000Y-100250000D01*
X41980000Y-99850000D01*
X42180000Y-99850000D01*
X42180000Y-100250000D01*
G36*
X42180000Y-100250000D02*
G01*
X41980000Y-100250000D01*
X41980000Y-99850000D01*
X42180000Y-99850000D01*
X42180000Y-100250000D01*
G37*
X44380000Y-100250000D02*
X44180000Y-100250000D01*
X44180000Y-99850000D01*
X44380000Y-99850000D01*
X44380000Y-100250000D01*
G36*
X44380000Y-100250000D02*
G01*
X44180000Y-100250000D01*
X44180000Y-99850000D01*
X44380000Y-99850000D01*
X44380000Y-100250000D01*
G37*
%TO.C,R3*%
D12*
X102042700Y-77173858D02*
X102042700Y-76699342D01*
X103087700Y-77173858D02*
X103087700Y-76699342D01*
%TO.C,D15*%
X99330000Y-107075000D02*
X99330000Y-110475000D01*
X99330000Y-110475000D02*
X100457000Y-110475000D01*
X100457000Y-110475000D02*
X101330000Y-110475000D01*
X101330000Y-107075000D02*
X99330000Y-107075000D01*
X101330000Y-110475000D02*
X101330000Y-107075000D01*
D11*
X99330000Y-109775000D02*
X99130000Y-109775000D01*
X99130000Y-109375000D01*
X99330000Y-109375000D01*
X99330000Y-109775000D01*
G36*
X99330000Y-109775000D02*
G01*
X99130000Y-109775000D01*
X99130000Y-109375000D01*
X99330000Y-109375000D01*
X99330000Y-109775000D01*
G37*
X101530000Y-109775000D02*
X101330000Y-109775000D01*
X101330000Y-109375000D01*
X101530000Y-109375000D01*
X101530000Y-109775000D01*
G36*
X101530000Y-109775000D02*
G01*
X101330000Y-109775000D01*
X101330000Y-109375000D01*
X101530000Y-109375000D01*
X101530000Y-109775000D01*
G37*
%TO.C,R12*%
D12*
X88959458Y-95006900D02*
X88484942Y-95006900D01*
X88959458Y-96051900D02*
X88484942Y-96051900D01*
%TO.C,J1*%
X62640000Y-25925000D02*
X62640000Y-27625000D01*
X71980000Y-25925000D02*
X71980000Y-27625000D01*
%TO.C,D2*%
X61230000Y-40400000D02*
X61230000Y-43800000D01*
X61230000Y-43800000D02*
X62357000Y-43800000D01*
X62357000Y-43800000D02*
X63230000Y-43800000D01*
X63230000Y-40400000D02*
X61230000Y-40400000D01*
X63230000Y-43800000D02*
X63230000Y-40400000D01*
D11*
X61230000Y-43100000D02*
X61030000Y-43100000D01*
X61030000Y-42700000D01*
X61230000Y-42700000D01*
X61230000Y-43100000D01*
G36*
X61230000Y-43100000D02*
G01*
X61030000Y-43100000D01*
X61030000Y-42700000D01*
X61230000Y-42700000D01*
X61230000Y-43100000D01*
G37*
X63430000Y-43100000D02*
X63230000Y-43100000D01*
X63230000Y-42700000D01*
X63430000Y-42700000D01*
X63430000Y-43100000D01*
G36*
X63430000Y-43100000D02*
G01*
X63230000Y-43100000D01*
X63230000Y-42700000D01*
X63430000Y-42700000D01*
X63430000Y-43100000D01*
G37*
%TD*%
M02*
